<svg id="Capa_1" data-name="Capa 1" xmlns="http://www.w3.org/2000/svg" xmlns:xlink="http://www.w3.org/1999/xlink" viewBox="0 0 544.25 469.89"><defs><style>.cls-1{fill:none;}.cls-2{fill:#ffcd07;}.cls-3{fill:#a13116;opacity:0.3;isolation:isolate;}.cls-4{clip-path:url(#clip-path);}.cls-5{opacity:0.6;}.cls-6{fill:#411110;}</style><clipPath id="clip-path"><rect class="cls-1" x="0.13" y="-1.59" width="543.25" height="470.89"/></clipPath></defs><rect class="cls-2" y="0.15" width="543.25" height="470.89"/><rect class="cls-3" x="1.01" width="543.25" height="470.89"/><g class="cls-4"><g class="cls-5"><polygon class="cls-6" points="543.9 402.78 410.21 533.67 543.9 533.67 543.9 402.78"/><polygon class="cls-6" points="0.86 2 0.86 132.89 134.55 2 0.86 2"/><polygon class="cls-6" points="272.77 534.46 544.25 268.67 543.9 268.32 543.9 132.98 543.9 132.98 543.94 132.95 543.94 2.09 543.9 2.09 543.9 1.96 410.34 1.96 410.2 2.09 410.21 2.09 271.98 2.09 0.5 267.89 0.86 268.23 139.09 268.24 139.08 268.23 271.98 138.11 271.98 138.11 271.98 138.11 271.98 268.32 271.98 268.32 271.98 268.32 406.38 268.32 272.77 399.13 272.77 534.46"/></g></g></svg>