<svg id="Capa_1" data-name="Capa 1" xmlns="http://www.w3.org/2000/svg" xmlns:xlink="http://www.w3.org/1999/xlink" viewBox="0 0 542.21 625.53"><defs><style>.cls-1{fill:none;}.cls-2{fill:#ffc600;}.cls-3{fill:#a13116;opacity:0.5;}.cls-4{opacity:0.7;}.cls-5{clip-path:url(#clip-path);}.cls-6{fill:#470600;}</style><clipPath id="clip-path"><rect id="SVGID" class="cls-1" x="-31.22" y="31.22" width="604.65" height="542.21" transform="translate(573.43 31.22) rotate(90)"/></clipPath></defs><rect class="cls-2" x="-41.66" y="41.66" width="625.53" height="542.21" transform="translate(583.87 41.66) rotate(90)"/><rect class="cls-3" x="-41.66" y="41.66" width="625.53" height="542.21" transform="translate(583.87 41.66) rotate(90)"/><g class="cls-4"><g class="cls-5"><polygon class="cls-2" points="7.87 347 -80.24 260.72 -80.24 347 7.87 347"/><polygon class="cls-2" points="277.69 -3.45 189.57 -3.45 277.69 82.83 277.69 -3.45"/><polygon class="cls-2" points="-80.77 172.03 98.17 347.23 98.4 347 189.51 347 189.51 347 189.53 347.02 277.63 347.02 277.63 347 277.72 347 277.72 260.81 277.63 260.72 277.63 260.72 277.63 171.52 98.69 -3.68 98.45 -3.45 98.45 85.75 98.46 85.75 186.06 171.52 186.06 171.52 186.06 171.52 98.4 171.52 98.4 171.52 98.4 171.52 98.4 258.25 10.33 172.03 -80.77 172.03"/><polygon class="cls-2" points="278.4 347.71 278.4 435.83 364.68 347.71 278.4 347.71"/><polygon class="cls-2" points="453.88 706.17 629.08 527.23 628.85 527 628.85 435.89 628.85 435.89 628.87 435.87 628.87 347.77 628.85 347.77 628.85 347.68 542.65 347.68 542.57 347.77 542.57 347.77 453.37 347.77 278.17 526.71 278.4 526.94 367.61 526.94 367.6 526.94 453.37 439.34 453.37 439.34 453.37 439.34 453.37 527 453.37 527 453.37 527 540.1 527 453.88 615.07 453.88 706.17"/><polygon class="cls-6" points="192.11 347.67 278.38 435.79 278.38 347.67 192.11 347.67"/><polygon class="cls-6" points="-72.06 705.61 14.22 705.61 -72.06 617.49 -72.06 705.61"/><polygon class="cls-6" points="278.91 526.38 103.71 347.44 103.48 347.67 14.28 347.67 14.28 347.67 14.26 347.65 -72 347.65 -72 347.67 -72.09 347.67 -72.09 435.71 -72 435.8 -72 435.79 -72 526.9 103.2 705.84 103.43 705.61 103.43 614.5 103.42 614.5 17.66 526.9 17.66 526.9 17.66 526.9 103.48 526.9 103.48 526.9 103.48 526.9 103.48 438.31 189.7 526.38 278.91 526.38"/><polygon class="cls-6" points="277.75 82.82 365.86 -3.45 277.75 -3.45 277.75 82.82"/><polygon class="cls-6" points="456.45 -3.97 277.51 171.23 277.74 171.46 277.74 260.66 277.74 260.66 277.72 260.68 277.72 346.93 277.74 346.93 277.75 347.02 365.78 347.02 365.87 346.94 365.86 346.93 456.97 346.93 635.91 171.74 635.68 171.51 544.57 171.51 544.57 171.51 456.97 257.28 456.97 257.28 456.97 257.28 456.97 171.45 456.97 171.45 456.97 171.45 368.38 171.45 456.45 85.23 456.45 -3.97"/></g></g></svg>