<svg id="Capa_1" data-name="Capa 1" xmlns="http://www.w3.org/2000/svg" xmlns:xlink="http://www.w3.org/1999/xlink" viewBox="0 0 1086 175"><defs><style>.cls-1{fill:none;}.cls-2{fill:#470600;}.cls-3{clip-path:url(#clip-path);}.cls-4{opacity:0.5;}.cls-5{fill:#a13116;}</style><clipPath id="clip-path"><rect id="SVGID" class="cls-1" x="-1.01" y="-0.17" width="1083.6" height="177.7"/></clipPath></defs><rect class="cls-2" width="1086" height="175"/><g class="cls-3"><g class="cls-4"><polygon class="cls-5" points="773.4 103.9 698.97 179.93 773.4 179.93 773.4 103.9"/><polygon class="cls-5" points="622.45 180.39 773.6 26 773.4 25.8 773.4 -52.8 773.4 -52.8 773.42 -52.82 773.42 -128.83 773.4 -128.83 773.4 -128.91 699.04 -128.91 698.97 -128.83 698.97 -128.83 622.01 -128.83 470.86 25.55 471.05 25.75 548.01 25.75 548.01 25.75 622.01 -49.82 622.01 -49.82 622.01 -49.82 622.01 25.8 622.01 25.8 622.01 25.8 696.84 25.8 622.45 101.78 622.45 180.39"/><polygon class="cls-5" points="849.85 177.53 773.83 103.1 773.83 177.53 849.85 177.53"/><polygon class="cls-5" points="773.37 26.58 927.75 177.73 927.95 177.53 1006.56 177.53 1006.56 177.53 1006.58 177.55 1082.59 177.55 1082.59 177.53 1082.66 177.53 1082.66 103.17 1082.59 103.09 1082.59 103.1 1082.59 26.14 928.2 -125.02 928 -124.82 928 -47.86 928 -47.86 1003.58 26.14 1003.58 26.14 1003.58 26.14 927.95 26.14 927.95 26.14 927.95 26.14 927.95 100.97 851.97 26.58 773.37 26.58"/><polygon class="cls-5" points="467.19 180.46 467.19 104.44 392.76 180.46 467.19 180.46"/><polygon class="cls-5" points="315.8 -129.46 164.65 24.92 164.84 25.12 164.84 103.72 164.84 103.72 164.82 103.75 164.82 179.75 164.84 179.75 164.84 179.83 239.21 179.83 239.28 179.75 239.28 179.75 316.24 179.75 467.39 25.37 467.19 25.17 390.23 25.17 390.23 25.17 316.24 100.75 316.24 100.75 316.24 100.75 316.24 25.12 316.24 25.12 316.24 25.12 241.41 25.12 315.8 -50.86 315.8 -129.46"/><polygon class="cls-5" points="161.34 105.76 86.9 181.78 161.34 181.78 161.34 105.76"/><polygon class="cls-5" points="10.38 182.24 161.53 27.86 161.34 27.66 161.34 -50.95 161.34 -50.95 161.36 -50.97 161.36 -126.98 161.34 -126.98 161.34 -127.05 86.97 -127.05 86.9 -126.98 86.9 -126.98 9.94 -126.98 -141.21 27.41 -141.01 27.61 -64.05 27.61 -64.06 27.61 9.94 -47.97 9.94 -47.97 9.94 -47.97 9.94 27.66 9.94 27.66 9.94 27.66 84.77 27.66 10.38 103.64 10.38 182.24"/></g></g></svg>