<svg id="Capa_1" data-name="Capa 1" xmlns="http://www.w3.org/2000/svg" xmlns:xlink="http://www.w3.org/1999/xlink" viewBox="0 0 1086 175"><defs><style>.cls-1{fill:none;}.cls-2{fill:#402020;}.cls-3{opacity:0.6;}.cls-4{clip-path:url(#clip-path);}.cls-5{fill:#8e5928;}.cls-6{clip-path:url(#clip-path-2);}.cls-7{fill:#c9961a;}.cls-8{fill:#c9971b;}.cls-9{fill:#ca971c;}.cls-10{fill:#ca981d;}.cls-11{fill:#ca981e;}.cls-12{fill:#cb991f;}.cls-13{fill:#cb9920;}.cls-14{fill:#cb9a21;}.cls-15{fill:#cc9b22;}.cls-16{fill:#cc9b23;}.cls-17{fill:#cd9c24;}.cls-18{fill:#cd9c25;}.cls-19{fill:#cd9d26;}.cls-20{fill:#ce9e27;}.cls-21{fill:#ce9e28;}.cls-22{fill:#ce9f29;}.cls-23{fill:#cf9f2a;}.cls-24{fill:#cfa02b;}.cls-25{fill:#cfa12c;}.cls-26{fill:#d0a12d;}.cls-27{fill:#d0a22e;}.cls-28{fill:#d1a22f;}.cls-29{fill:#d1a330;}.cls-30{fill:#d1a431;}.cls-31{fill:#d2a432;}.cls-32{fill:#d2a533;}.cls-33{fill:#d2a534;}.cls-34{fill:#d3a635;}.cls-35{fill:#d3a736;}.cls-36{fill:#d4a737;}.cls-37{fill:#d4a838;}.cls-38{fill:#d4a839;}.cls-39{fill:#d5a93a;}.cls-40{fill:#d5aa3b;}.cls-41{fill:#d5aa3c;}.cls-42{fill:#d6ab3d;}.cls-43{fill:#d6ab3e;}.cls-44{fill:#d6ac3f;}.cls-45{fill:#d7ad40;}.cls-46{fill:#d7ad41;}.cls-47{fill:#d7ae42;}.cls-48{fill:#d8ae43;}.cls-49{fill:#d8af44;}.cls-50{fill:#d9b045;}.cls-51{fill:#d9b046;}.cls-52{fill:#d9b147;}.cls-53{fill:#dab148;}.cls-54{fill:#dab249;}.cls-55{fill:#dab34a;}.cls-56{fill:#dbb34b;}.cls-57{fill:#dbb44c;}.cls-58{fill:#dbb54d;}.cls-59{fill:#dcb54e;}.cls-60{fill:#dcb64f;}.cls-61{fill:#dcb650;}.cls-62{fill:#ddb751;}.cls-63{fill:#ddb852;}.cls-64{fill:#ddb853;}.cls-65{fill:#deb954;}.cls-66{fill:#deb955;}.cls-67{fill:#dfba56;}.cls-68{fill:#dfbb57;}.cls-69{fill:#dfbb58;}.cls-70{fill:#e0bc59;}.cls-71{fill:#e0bc5a;}.cls-72{fill:#e0bd5b;}.cls-73{fill:#e1be5c;}.cls-74{fill:#e1be5d;}.cls-75{fill:#e1bf5e;}.cls-76{fill:#e2c05f;}.cls-77{fill:#e2c060;}.cls-78{fill:#e2c161;}.cls-79{fill:#e3c162;}.cls-80{fill:#e3c263;}.cls-81{fill:#e4c364;}.cls-82{fill:#e4c365;}.cls-83{fill:#e4c466;}.cls-84{fill:#e5c567;}.cls-85{fill:#e5c568;}.cls-86{fill:#e5c669;}.cls-87{fill:#e6c66a;}.cls-88{fill:#e6c76b;}.cls-89{fill:#e6c86c;}.cls-90{fill:#e7c86d;}.cls-91{fill:#e6c86d;}.cls-92{fill:#e6c76c;}.cls-93{fill:#e6c66b;}.cls-94{fill:#e5c66a;}.cls-95{fill:#e5c569;}.cls-96{fill:#e4c467;}.cls-97{fill:#e4c366;}.cls-98{fill:#e3c365;}.cls-99{fill:#e3c264;}.cls-100{fill:#e3c163;}.cls-101{fill:#e2c162;}.cls-102{fill:#e2c061;}.cls-103{fill:#e2bf60;}.cls-104{fill:#e1be5f;}.cls-105{fill:#e1be5e;}.cls-106{fill:#e0bd5d;}.cls-107{fill:#e0bc5c;}.cls-108{fill:#e0bc5b;}.cls-109{fill:#dfbb5a;}.cls-110{fill:#dfba59;}.cls-111{fill:#deba58;}.cls-112{fill:#deb957;}.cls-113{fill:#deb856;}.cls-114{fill:#ddb855;}.cls-115{fill:#ddb754;}.cls-116{fill:#dcb653;}.cls-117{fill:#dcb652;}.cls-118{fill:#dcb551;}.cls-119{fill:#dbb450;}.cls-120{fill:#dbb44f;}.cls-121{fill:#dab34e;}.cls-122{fill:#dab24d;}.cls-123{fill:#dab14c;}.cls-124{fill:#d9b14b;}.cls-125{fill:#d9b04a;}.cls-126{fill:#d8af49;}.cls-127{fill:#d8af48;}.cls-128{fill:#d8ae47;}.cls-129{fill:#d7ad46;}.cls-130{fill:#d7ad45;}.cls-131{fill:#d6ac44;}.cls-132{fill:#d6ab43;}.cls-133{fill:#d5aa42;}.cls-134{fill:#d5aa41;}.cls-135{fill:#d5a940;}.cls-136{fill:#d6ab42;}.cls-137{fill:#d7ac44;}.cls-138{fill:#d7ae46;}.cls-139{fill:#dbb34f;}.cls-140{fill:#dbb550;}.cls-141{fill:#ddb755;}.cls-142{fill:#ddb856;}.cls-143{fill:#deb958;}.cls-144{fill:#dfbc5b;}.cls-145{fill:#e3c265;}.cls-146{fill:#e7c86e;}.cls-147{fill:#e7c96f;}.cls-148{fill:#e8ca70;}.cls-149{fill:#e8cb71;}.cls-150{fill:#e9cb72;}.cls-151{fill:#e9cc73;}.cls-152{fill:#e9cd75;}.cls-153{fill:#eace76;}.cls-154{fill:#eace75;}.cls-155{fill:#eace74;}.cls-156{fill:#ebce73;}.cls-157{fill:#ebce72;}.cls-158{fill:#ebce71;}.cls-159{fill:#ecce70;}.cls-160{fill:#ecce6f;}.cls-161{fill:#ecce6e;}.cls-162{fill:#ecce6d;}.cls-163{fill:#edce6d;}.cls-164{fill:#edce6c;}.cls-165{fill:#edce6b;}.cls-166{fill:#edce6a;}.cls-167{fill:#eece69;}.cls-168{fill:#eece68;}.cls-169{fill:#eece67;}.cls-170{fill:#eece66;}.cls-171{fill:#efce65;}.cls-172{fill:#efce64;}.cls-173{fill:#efce63;}.cls-174{fill:#efce62;}.cls-175{fill:#f0ce61;}.cls-176{fill:#f0ce60;}.cls-177{fill:#f0ce5f;}.cls-178{fill:#f1ce5e;}.cls-179{fill:#f1ce5d;}.cls-180{fill:#f1ce5c;}.cls-181{fill:#f1ce5b;}.cls-182{fill:#f2ce5a;}.cls-183{fill:#f2ce59;}.cls-184{fill:#f2ce58;}.cls-185{fill:#f2ce57;}.cls-186{fill:#f3ce56;}.cls-187{fill:#f3ce55;}.cls-188{fill:#f3ce54;}.cls-189{fill:#f3ce53;}.cls-190{fill:#f4ce52;}.cls-191{fill:#f4ce51;}.cls-192{fill:#f4ce4f;}.cls-193{fill:#f4ce4e;}.cls-194{fill:#f5ce4d;}.cls-195{fill:#f5ce4c;}.cls-196{fill:#f5ce4b;}.cls-197{fill:#f5ce4a;}.cls-198{fill:#f6ce48;}.cls-199{fill:#f6ce47;}.cls-200{fill:#f6ce46;}.cls-201{fill:#f6ce45;}.cls-202{fill:#f7ce43;}.cls-203{fill:#f7ce42;}.cls-204{fill:#f7ce41;}.cls-205{fill:#f7ce3f;}.cls-206{fill:#f8ce3e;}.cls-207{fill:#f8ce3d;}.cls-208{fill:#f8ce3c;}.cls-209{fill:#f9ce3a;}.cls-210{fill:#f9ce39;}.cls-211{fill:#f9ce37;}.cls-212{fill:#f9ce36;}.cls-213{fill:#face35;}.cls-214{fill:#face33;}.cls-215{fill:#face32;}.cls-216{fill:#face30;}.cls-217{fill:#fbce2e;}.cls-218{fill:#fbce2d;}.cls-219{fill:#fbce2b;}.cls-220{fill:#fbce2a;}.cls-221{fill:#fbce28;}.cls-222{fill:#fcce26;}.cls-223{fill:#fcce24;}.cls-224{fill:#fcce22;}.cls-225{fill:#fcce20;}.cls-226{fill:#fdce1e;}.cls-227{fill:#fdce20;}.cls-228{fill:#fdce22;}.cls-229{fill:#fdce24;}.cls-230{fill:#fdcf26;}.cls-231{fill:#fdcf27;}.cls-232{fill:#fdcf29;}.cls-233{fill:#fdcf2b;}.cls-234{fill:#fdcf2c;}.cls-235{fill:#fdd02e;}.cls-236{fill:#fcd02f;}.cls-237{fill:#fcd031;}.cls-238{fill:#fcd032;}.cls-239{fill:#fcd034;}.cls-240{fill:#fcd135;}.cls-241{fill:#fcd137;}.cls-242{fill:#fcd138;}.cls-243{fill:#fcd139;}.cls-244{fill:#fcd13b;}.cls-245{fill:#fcd23c;}.cls-246{fill:#fcd23d;}.cls-247{fill:#fcd23f;}.cls-248{fill:#fcd240;}.cls-249{fill:#fcd241;}.cls-250{fill:#fcd343;}.cls-251{fill:#fcd344;}.cls-252{fill:#fcd345;}.cls-253{fill:#fcd346;}.cls-254{fill:#fcd348;}.cls-255{fill:#fcd449;}.cls-256{fill:#fcd44a;}.cls-257{fill:#fcd44b;}.cls-258{fill:#fcd44d;}.cls-259{fill:#fcd44e;}.cls-260{fill:#fcd54f;}.cls-261{fill:#fcd550;}.cls-262{fill:#fcd551;}.cls-263{fill:#fcd553;}.cls-264{fill:#fcd654;}.cls-265{fill:#fcd655;}.cls-266{fill:#fcd656;}.cls-267{fill:#fcd657;}.cls-268{fill:#fbd658;}.cls-269{fill:#fbd75a;}.cls-270{fill:#fbd75b;}.cls-271{fill:#fbd75c;}.cls-272{fill:#fbd75d;}.cls-273{fill:#fbd75e;}.cls-274{fill:#fbd85f;}.cls-275{fill:#fbd860;}.cls-276{fill:#fbd861;}.cls-277{fill:#fbd862;}.cls-278{fill:#fbd863;}.cls-279{fill:#fbd964;}.cls-280{fill:#fbd966;}.cls-281{fill:#fbd967;}.cls-282{fill:#fbd968;}.cls-283{fill:#fbd969;}.cls-284{fill:#fbda6a;}.cls-285{fill:#fbda6b;}.cls-286{fill:#fbda6c;}.cls-287{fill:#fbda6d;}.cls-288{fill:#fbda6e;}.cls-289{fill:#fadb6f;}.cls-290{fill:#fadb70;}.cls-291{fill:#fadb71;}.cls-292{fill:#fadb72;}.cls-293{fill:#fadb73;}.cls-294{fill:#fadc74;}.cls-295{fill:#fadc75;}.cls-296{fill:#fadc76;}.cls-297{fill:#fadc77;}.cls-298{fill:#fadc78;}.cls-299{fill:#fadd79;}.cls-300{fill:#fadd7a;}.cls-301{fill:#fadd7b;}.cls-302{fill:#fadd7c;}.cls-303{fill:#fade7d;}.cls-304{fill:#fade7e;}.cls-305{fill:#fade7f;}.cls-306{fill:#fade80;}.cls-307{fill:#f9de81;}.cls-308{fill:#f9df82;}.cls-309{fill:#f9df83;}.cls-310{fill:#f9df84;}.cls-311{fill:#f9df85;}.cls-312{fill:#f9df86;}.cls-313{fill:#f9e087;}.cls-314{fill:#f9e088;}.cls-315{fill:#f9e089;}.cls-316{fill:#f9e08a;}.cls-317{fill:#f9e08b;}.cls-318{fill:#f9e18b;}.cls-319{fill:#f9e18c;}.cls-320{fill:#f9e18d;}.cls-321{fill:#f9e18e;}.cls-322{fill:#f9e18f;}.cls-323{fill:#f9e290;}.cls-324{fill:#f9e291;}.cls-325{fill:#f8e292;}.cls-326{fill:#f8e293;}.cls-327{fill:#f8e294;}.cls-328{fill:#f8e395;}.cls-329{fill:#f8e396;}.cls-330{fill:#f8e397;}.cls-331{fill:#f8e398;}.cls-332{fill:#f8e499;}.cls-333{fill:#f8e49a;}.cls-334{fill:#f8e49b;}.cls-335{fill:#f8e49c;}.cls-336{fill:#f8e59d;}.cls-337{fill:#f8e59e;}.cls-338{fill:#f7e59f;}.cls-339{fill:#f7e5a0;}.cls-340{fill:#f7e5a1;}.cls-341{fill:#f7e6a2;}.cls-342{fill:#f7e6a3;}.cls-343{fill:#f7e6a4;}.cls-344{clip-path:url(#clip-path-3);}.cls-345{fill:#672f25;}</style><clipPath id="clip-path"><rect class="cls-1" x="2.25" y="5.19" width="1081.5" height="165.5"/></clipPath><clipPath id="clip-path-2"><path class="cls-1" d="M705.07,281.8a102.46,102.46,0,0,1-60.92-20.24C619.46,243,541.79,176.39,579.26,98.24,591.85,72,615.78,56.76,642.87,57.55c22.45.64,42.07,12.09,48.81,28.51,5.92,14.4,1.22,30.68-13.25,45.84a1.93,1.93,0,0,1-2.79-2.67h0c13.35-14,17.78-28.8,12.47-41.7-6.17-15-24.4-25.52-45.35-26.12H640.9c-24.89,0-46.54,14.29-58.16,38.53-36.2,75.5,39.63,140.45,63.74,158.56a98.15,98.15,0,0,0,66,19.18c32-2.55,61.2-24.41,72.66-54.39,6.93-18.16,6.53-36.89-1.1-51.4-6.38-12.11-22.24-31-56.72-21.87a1.93,1.93,0,1,1-1.24-3.66l.24-.06c38.48-10.26,55.57,13.23,61.13,23.8,8.16,15.49,8.63,35.38,1.29,54.56-12,31.36-42.49,54.21-76,56.86Q708.95,281.8,705.07,281.8Z"/></clipPath><clipPath id="clip-path-3"><path class="cls-1" d="M389.18,283.31q-3.85,0-7.69-.3c-33.45-2.66-64-25.51-75.95-56.87-7.33-19.19-6.86-39.08,1.29-54.56,5.56-10.58,22.64-34.06,61.13-23.8a1.93,1.93,0,0,1-.76,3.78l-.24-.06c-34.47-9.19-50.34,9.75-56.72,21.87-7.63,14.51-8,33.24-1.1,51.4,11.46,30,40.66,51.84,72.66,54.39a98.15,98.15,0,0,0,66-19.18c24.11-18.11,99.93-83.07,63.74-158.56-11.62-24.24-33.27-38.53-58.16-38.53h-1.86C430.57,63.51,412.34,74,406.17,89c-5.31,12.9-.88,27.71,12.47,41.69a1.93,1.93,0,1,1-2.79,2.67C401.38,118.25,396.68,102,402.6,87.57c6.74-16.42,26.4-27.87,48.81-28.51h2c26.41,0,49.34,15.1,61.63,40.72,37.46,78.14-40.2,144.76-64.89,163.32A102.47,102.47,0,0,1,389.18,283.31Z"/></clipPath></defs><rect class="cls-2" width="1086" height="175"/><g class="cls-3"><g class="cls-4"><path class="cls-5" d="M387.2,310.78c-44.62,0-88.5-28.07-107-69.68-7.92-17.78-10.94-36-8.73-52.6,5-37.39,26.74-63.51,58.26-69.86,24.83-5,49.5,4.15,60.08,22.22,5.84,10,7.6,19.23,5.21,27.48a25.21,25.21,0,0,1-11.78,14.89c-.77.44-9.59,5.09-17.57.68-5.47-3-8.47-9-8.92-17.64a7.73,7.73,0,0,1,7.3-8.11,7.62,7.62,0,0,1,8.11,7.1c0,.07,0,.14,0,.21.21,3.94,1.12,5,1.13,5a12.2,12.2,0,0,0,2.71-.92,9.91,9.91,0,0,0,4.23-5.73c1.05-3.94-.25-9.2-3.76-15.19-7.19-12.28-25.56-18.54-43.7-14.88-11.88,2.39-40.15,12.71-46,56.76-1.83,13.8.77,29.11,7.53,44.27,17.33,38.9,60.13,64.15,101.66,60.11,17.21-1.69,35.09-8,53.13-18.83,24.83-14.86,46.31-36.34,62.12-62.12A192.19,192.19,0,0,0,530,173.44a187.43,187.43,0,0,0,5.68-21.63c.46-2.37,1.75-12.55,2.44-18.41a7.71,7.71,0,0,1,7.67-6.81h.11a7.7,7.7,0,0,1,7.58,7c.57,6.25,1.57,16,2,18.2a183.45,183.45,0,0,0,5.68,21.63A191.9,191.9,0,0,0,579.87,214c15.81,25.78,37.28,47.26,62.11,62.12,18,10.8,35.92,17.14,53.13,18.83,41.64,4,84.33-21.22,101.67-60.11,6.75-15.17,9.35-30.48,7.52-44.27-5.84-44-34.11-54.37-46-56.76-18.14-3.67-36.51,2.6-43.7,14.88-3.51,6-4.81,11.25-3.75,15.19a9.89,9.89,0,0,0,4.22,5.73,6,6,0,0,0,2.95.77,15.36,15.36,0,0,0,.89-4.88,7.59,7.59,0,0,1,7.83-7.33l.29,0a7.72,7.72,0,0,1,7.31,8.11c-.46,8.68-3.46,14.62-8.93,17.64-8,4.41-16.8-.25-17.78-.8a25.08,25.08,0,0,1-11.56-14.77c-2.39-8.25-.64-17.49,5.21-27.48,10.58-18.07,35.28-27.22,60.08-22.22,31.51,6.35,53.29,32.47,58.25,69.86,2.21,16.63-.81,34.81-8.72,52.6-20,44.8-69.28,73.83-117.29,69.18-19.49-1.9-39.53-9-59.55-20.94-27-16.14-50.24-39.41-67.35-67.3a207.75,207.75,0,0,1-20.28-43.76c-.31-.94-.61-1.89-.91-2.84-.29.95-.59,1.9-.9,2.84A207.21,207.21,0,0,1,524.33,222c-17.1,27.89-40.39,51.16-67.34,67.3-20,12-40.06,19-59.56,20.94A92.51,92.51,0,0,1,387.2,310.78Z"/><path class="cls-5" d="M144.65,169.92a129.61,129.61,0,0,1-25.39-2.54C60.09,155.45,19.16,106.06,9.77,35.27,5.57,3.66,11.35-31,26.48-64.93c38.29-85.95,132.85-141.82,224.9-132.75,37.55,3.68,76.23,17.31,115,40.49,52.4,31.37,97.69,76.65,131,130.93a403.89,403.89,0,0,1,39.47,85.17c3.46,10.55,6.48,21.25,9,32,2.53-10.71,5.55-21.41,9-32a403.89,403.89,0,0,1,39.47-85.17c33.28-54.28,78.57-99.56,131-130.93,38.73-23.18,77.41-36.81,115-40.49,92.1-9,186.61,46.81,224.91,132.75,15.12,34,20.9,68.59,16.71,100.2-9.4,70.79-50.33,120.18-109.5,132.11-46,9.29-91.72-7.36-111.1-40.46-10.49-17.93-13.72-34.26-9.59-48.54A42.79,42.79,0,0,1,871.2,53.47c1.37-.76,15.45-8.22,27.68-1.45,8.4,4.65,13,14.31,13.79,28.72a7.72,7.72,0,1,1-15.42.8h0c-.44-8.48-2.52-14.17-5.84-16-4.2-2.3-11.35.67-12.9,1.54a27,27,0,0,0-12.09,15.84c-2.8,10-.06,22.19,8.15,36.21,15.84,27.06,55.67,41,94.71,33.11,52.41-10.55,88.76-55,97.25-119C1070.34,4.47,1065-27.3,1051-58.64c-35.67-80-123.66-132-209.29-123.67-35.27,3.46-71.78,16.37-108.54,38.37-50.28,30.1-93.76,73.58-125.74,125.75a388.23,388.23,0,0,0-38,81.91A373.67,373.67,0,0,0,558,107.51c-1.1,5.53-3.94,28.65-5,37.09a7.72,7.72,0,0,1-15.36-.21c-.76-8.42-3-31.45-4.07-36.88a373.92,373.92,0,0,0-11.49-43.79,388.73,388.73,0,0,0-38-81.91c-32-52.17-75.47-95.65-125.74-125.75-36.76-22-73.28-34.91-108.54-38.37-85.5-8.4-173.55,43.62-209.22,123.67-14,31.33-19.33,63.1-15.51,91.87,8.49,64,44.84,108.44,97.24,119,39.08,7.89,78.88-6.06,94.73-33.11,8.2-14,10.94-26.2,8.15-36.21a27,27,0,0,0-12-15.76c-2.17-1.19-9-3.86-13.07-1.6-3.31,1.86-5.37,7.53-5.81,16a7.82,7.82,0,0,1-8.11,7.31,7.71,7.71,0,0,1-7.31-8.09v0c.75-14.41,5.39-24.07,13.79-28.72,12.23-6.76,26.32.68,27.89,1.56A42.81,42.81,0,0,1,240,78.38c4.12,14.28.9,30.61-9.6,48.54C214.57,153.88,181.32,169.92,144.65,169.92Z"/><path class="cls-5" d="M231.79,61.27c-85.57,0-169.73-53.85-205.31-133.7C11.35-106.39,5.57-141,9.77-172.64c9.39-70.79,50.32-120.18,109.49-132.11,46.06-9.29,91.72,7.36,111.1,40.47,10.5,17.92,13.72,34.26,9.6,48.54a42.85,42.85,0,0,1-19.56,24.91c-1.36.77-15.43,8.23-27.68,1.44-8.4-4.65-13-14.31-13.79-28.72a7.71,7.71,0,0,1,7.29-8.11h0a7.71,7.71,0,0,1,8.11,7.29v0c.44,8.45,2.51,14.13,5.81,16,4.06,2.27,10.9-.41,13-1.53a27,27,0,0,0,12.06-15.82c2.79-10,.05-22.2-8.15-36.22-15.85-27-55.65-41-94.73-33.12C69.94-279,33.59-234.55,25.1-170.6c-3.82,28.76,1.55,60.54,15.51,91.88C76.25,1.32,164.26,53.36,249.87,44.94c35.26-3.45,71.78-16.36,108.54-38.37C408.68-23.53,452.17-67,484.15-119.17a389.46,389.46,0,0,0,38-81.91,377.91,377.91,0,0,0,11.49-43.79c1.1-5.53,3.94-28.65,4.94-37.1a7.58,7.58,0,0,1,7.78-6.81,7.75,7.75,0,0,1,7.59,7c.76,8.42,3,31.44,4.07,36.89a375.42,375.42,0,0,0,11.5,43.79,388.23,388.23,0,0,0,38,81.91C639.43-67,682.91-23.53,733.19,6.57c36.76,22,73.28,34.92,108.53,38.37C927.38,53.37,1015.34,1.32,1051-78.72c14-31.34,19.32-63.12,15.51-91.88-8.49-64-44.84-108.45-97.25-119-39-7.88-78.87,6.08-94.71,33.12-8.21,14-11,26.21-8.15,36.22a27,27,0,0,0,12,15.76c2.18,1.18,9,3.88,13.07,1.59,3.3-1.86,5.37-7.54,5.81-16a7.68,7.68,0,0,1,8.05-7.31h.06a7.72,7.72,0,0,1,7.31,8.11h0c-.75,14.41-5.39,24.07-13.79,28.72-12.23,6.78-26.32-.67-27.88-1.55a42.79,42.79,0,0,1-19.35-24.8c-4.13-14.28-.9-30.62,9.59-48.54,19.37-33.11,65-49.75,111.1-40.47,59.17,11.93,100.1,61.32,109.5,132.11,4.19,31.6-1.59,66.25-16.71,100.21C1026.83,13.5,932.25,69.34,840.22,60.31,802.67,56.64,764,43,725.26,19.83c-52.41-31.39-97.7-76.66-131-130.93a403.89,403.89,0,0,1-39.47-85.17c-3.46-10.57-6.48-21.27-9-32-2.53,10.7-5.55,21.4-9,32a404.39,404.39,0,0,1-39.47,85.17C464-56.83,418.74-11.56,366.34,19.83,327.6,43,288.93,56.64,251.38,60.31A186.19,186.19,0,0,1,231.79,61.27Z"/><path class="cls-5" d="M419.42,156.53a45.34,45.34,0,0,1-9-.9c-20.93-4.21-35.37-21.42-38.64-46-1.44-10.91.52-22.78,5.67-34.35,12.94-29,44.91-48,76.07-44.86,12.59,1.23,25.49,5.76,38.35,13.46a128.16,128.16,0,0,1,43,42.94,133.38,133.38,0,0,1,10.74,21.73,132.93,132.93,0,0,1,10.73-21.73,128.16,128.16,0,0,1,43-42.94c12.86-7.7,25.76-12.23,38.35-13.46,31.16-3.09,63.12,15.82,76.07,44.86,5.15,11.57,7.11,23.44,5.66,34.35-3.26,24.61-17.71,41.82-38.63,46-16.65,3.35-33.32-2.91-40.54-15.24-4.07-6.93-5.25-13.46-3.54-19.4a18.46,18.46,0,0,1,8.8-11.06c1-.58,7.49-3.83,13.71-.39,3,1.66,6.63,5.32,7,13.39a7.72,7.72,0,0,1-14.76,3.54,13.93,13.93,0,0,0,2.06,6.13c3.88,6.62,14,9.94,24.17,7.89,6.8-1.37,23-7.32,26.38-32.92,1.06-8.07-.48-17.07-4.47-26-10.32-23.15-35.72-38.28-60.45-35.78-10.31,1-21,4.82-31.92,11.34a112.58,112.58,0,0,0-37.75,37.76,117.8,117.8,0,0,0-11.42,24.64,114.51,114.51,0,0,0-3.45,13.15c-.42,2.1-1.49,11.24-1.49,11.26a7.59,7.59,0,0,1-7.77,6.81,7.72,7.72,0,0,1-7.59-7c-.4-4.45-1-10-1.2-11a114.51,114.51,0,0,0-3.45-13.15A117.07,117.07,0,0,0,521.69,95,112.7,112.7,0,0,0,484,57.1c-10.88-6.52-21.61-10.33-31.91-11.34-24.69-2.43-50.15,12.63-60.46,35.78-4,9-5.53,18-4.47,26,3.4,25.59,19.58,31.54,26.38,32.91,10.13,2,20.29-1.28,24.17-7.89,1.47-2.52,2.22-4.73,2.16-6.37a7.72,7.72,0,0,1-14.86-3.3c.42-8.07,4.07-11.73,7-13.39,6.22-3.45,12.67-.19,13.91.49a18.47,18.47,0,0,1,8.6,11c1.71,5.94.52,12.47-3.54,19.4C445.09,150.5,432.82,156.53,419.42,156.53Z"/><g class="cls-6"><rect class="cls-7" x="792.66" y="56.76" width="3.41" height="225.04"/><rect class="cls-7" x="792.06" y="56.76" width="0.61" height="225.04"/><rect class="cls-8" x="791.45" y="56.76" width="0.61" height="225.04"/><rect class="cls-9" x="790.85" y="56.76" width="0.61" height="225.04"/><rect class="cls-10" x="790.24" y="56.76" width="0.61" height="225.04"/><rect class="cls-11" x="789.64" y="56.76" width="0.61" height="225.04"/><rect class="cls-12" x="789.03" y="56.76" width="0.61" height="225.04"/><rect class="cls-13" x="788.43" y="56.76" width="0.61" height="225.04"/><rect class="cls-14" x="787.82" y="56.76" width="0.61" height="225.04"/><rect class="cls-15" x="787.22" y="56.76" width="0.61" height="225.04"/><rect class="cls-16" x="786.61" y="56.76" width="0.61" height="225.04"/><rect class="cls-17" x="786.01" y="56.76" width="0.61" height="225.04"/><rect class="cls-18" x="785.4" y="56.76" width="0.61" height="225.04"/><rect class="cls-19" x="784.8" y="56.76" width="0.61" height="225.04"/><rect class="cls-20" x="784.19" y="56.76" width="0.61" height="225.04"/><rect class="cls-21" x="783.58" y="56.76" width="0.61" height="225.04"/><rect class="cls-22" x="782.98" y="56.76" width="0.61" height="225.04"/><rect class="cls-23" x="782.37" y="56.76" width="0.61" height="225.04"/><rect class="cls-24" x="781.77" y="56.76" width="0.61" height="225.04"/><rect class="cls-25" x="781.16" y="56.76" width="0.61" height="225.04"/><rect class="cls-26" x="780.56" y="56.76" width="0.61" height="225.04"/><rect class="cls-27" x="779.95" y="56.76" width="0.61" height="225.04"/><rect class="cls-28" x="779.35" y="56.76" width="0.61" height="225.04"/><rect class="cls-29" x="778.74" y="56.76" width="0.61" height="225.04"/><rect class="cls-30" x="778.14" y="56.76" width="0.61" height="225.04"/><rect class="cls-31" x="777.53" y="56.76" width="0.61" height="225.04"/><rect class="cls-32" x="776.93" y="56.76" width="0.61" height="225.04"/><rect class="cls-33" x="776.32" y="56.76" width="0.61" height="225.04"/><rect class="cls-34" x="775.72" y="56.76" width="0.61" height="225.04"/><rect class="cls-35" x="775.11" y="56.76" width="0.61" height="225.04"/><rect class="cls-36" x="774.51" y="56.76" width="0.61" height="225.04"/><rect class="cls-37" x="773.9" y="56.76" width="0.61" height="225.04"/><rect class="cls-38" x="773.3" y="56.76" width="0.61" height="225.04"/><rect class="cls-39" x="772.69" y="56.76" width="0.61" height="225.04"/><rect class="cls-40" x="772.09" y="56.76" width="0.61" height="225.04"/><rect class="cls-41" x="771.48" y="56.76" width="0.61" height="225.04"/><rect class="cls-42" x="770.88" y="56.76" width="0.61" height="225.04"/><rect class="cls-43" x="770.27" y="56.76" width="0.61" height="225.04"/><rect class="cls-44" x="769.67" y="56.76" width="0.61" height="225.04"/><rect class="cls-45" x="769.06" y="56.76" width="0.61" height="225.04"/><rect class="cls-46" x="768.46" y="56.76" width="0.61" height="225.04"/><rect class="cls-47" x="767.85" y="56.76" width="0.61" height="225.04"/><rect class="cls-48" x="767.25" y="56.76" width="0.61" height="225.04"/><rect class="cls-49" x="766.64" y="56.76" width="0.61" height="225.04"/><rect class="cls-50" x="766.03" y="56.76" width="0.61" height="225.04"/><rect class="cls-51" x="765.43" y="56.76" width="0.61" height="225.04"/><rect class="cls-52" x="764.82" y="56.76" width="0.61" height="225.04"/><rect class="cls-53" x="764.22" y="56.76" width="0.61" height="225.04"/><rect class="cls-54" x="763.61" y="56.76" width="0.61" height="225.04"/><rect class="cls-55" x="763.01" y="56.76" width="0.61" height="225.04"/><rect class="cls-56" x="762.4" y="56.76" width="0.61" height="225.04"/><rect class="cls-57" x="761.8" y="56.76" width="0.61" height="225.04"/><rect class="cls-58" x="761.19" y="56.76" width="0.61" height="225.04"/><rect class="cls-59" x="760.59" y="56.76" width="0.61" height="225.04"/><rect class="cls-60" x="759.98" y="56.76" width="0.61" height="225.04"/><rect class="cls-61" x="759.38" y="56.76" width="0.61" height="225.04"/><rect class="cls-62" x="758.77" y="56.76" width="0.61" height="225.04"/><rect class="cls-63" x="758.17" y="56.76" width="0.61" height="225.04"/><rect class="cls-64" x="757.56" y="56.76" width="0.61" height="225.04"/><rect class="cls-65" x="756.96" y="56.76" width="0.61" height="225.04"/><rect class="cls-66" x="756.35" y="56.76" width="0.61" height="225.04"/><rect class="cls-67" x="755.75" y="56.76" width="0.61" height="225.04"/><rect class="cls-68" x="755.14" y="56.76" width="0.61" height="225.04"/><rect class="cls-69" x="754.54" y="56.76" width="0.61" height="225.04"/><rect class="cls-70" x="753.93" y="56.76" width="0.61" height="225.04"/><rect class="cls-71" x="753.33" y="56.76" width="0.61" height="225.04"/><rect class="cls-72" x="752.72" y="56.76" width="0.61" height="225.04"/><rect class="cls-73" x="752.12" y="56.76" width="0.61" height="225.04"/><rect class="cls-74" x="751.51" y="56.76" width="0.61" height="225.04"/><rect class="cls-75" x="750.91" y="56.76" width="0.61" height="225.04"/><rect class="cls-76" x="750.3" y="56.76" width="0.61" height="225.04"/><rect class="cls-77" x="749.7" y="56.76" width="0.61" height="225.04"/><rect class="cls-78" x="749.09" y="56.76" width="0.61" height="225.04"/><rect class="cls-79" x="748.49" y="56.76" width="0.61" height="225.04"/><rect class="cls-80" x="747.88" y="56.76" width="0.61" height="225.04"/><rect class="cls-81" x="747.27" y="56.76" width="0.61" height="225.04"/><rect class="cls-82" x="746.67" y="56.76" width="0.61" height="225.04"/><rect class="cls-83" x="746.06" y="56.76" width="0.61" height="225.04"/><rect class="cls-84" x="745.46" y="56.76" width="0.61" height="225.04"/><rect class="cls-85" x="744.85" y="56.76" width="0.61" height="225.04"/><rect class="cls-86" x="744.25" y="56.76" width="0.61" height="225.04"/><rect class="cls-87" x="743.64" y="56.76" width="0.61" height="225.04"/><rect class="cls-88" x="743.04" y="56.76" width="0.61" height="225.04"/><rect class="cls-89" x="742.43" y="56.76" width="0.61" height="225.04"/><rect class="cls-90" x="741.83" y="56.76" width="0.61" height="225.04"/><rect class="cls-90" x="740.87" y="56.76" width="0.95" height="225.04"/><rect class="cls-91" x="739.92" y="56.76" width="0.95" height="225.04"/><rect class="cls-92" x="738.96" y="56.76" width="0.95" height="225.04"/><rect class="cls-93" x="738.01" y="56.76" width="0.95" height="225.04"/><rect class="cls-94" x="737.05" y="56.76" width="0.95" height="225.04"/><rect class="cls-95" x="736.1" y="56.76" width="0.95" height="225.04"/><rect class="cls-85" x="735.14" y="56.76" width="0.95" height="225.04"/><rect class="cls-96" x="734.19" y="56.76" width="0.95" height="225.04"/><rect class="cls-97" x="733.23" y="56.76" width="0.95" height="225.04"/><rect class="cls-98" x="732.28" y="56.76" width="0.95" height="225.04"/><rect class="cls-99" x="731.32" y="56.76" width="0.95" height="225.04"/><rect class="cls-100" x="730.37" y="56.76" width="0.95" height="225.04"/><rect class="cls-101" x="729.41" y="56.76" width="0.95" height="225.04"/><rect class="cls-102" x="728.46" y="56.76" width="0.95" height="225.04"/><rect class="cls-103" x="727.5" y="56.76" width="0.95" height="225.04"/><rect class="cls-104" x="726.55" y="56.76" width="0.95" height="225.04"/><rect class="cls-105" x="725.59" y="56.76" width="0.95" height="225.04"/><rect class="cls-106" x="724.64" y="56.76" width="0.95" height="225.04"/><rect class="cls-107" x="723.68" y="56.76" width="0.95" height="225.04"/><rect class="cls-108" x="722.73" y="56.76" width="0.95" height="225.04"/><rect class="cls-109" x="721.77" y="56.76" width="0.95" height="225.04"/><rect class="cls-110" x="720.82" y="56.76" width="0.95" height="225.04"/><rect class="cls-111" x="719.86" y="56.76" width="0.95" height="225.04"/><rect class="cls-112" x="718.91" y="56.76" width="0.95" height="225.04"/><rect class="cls-113" x="717.95" y="56.76" width="0.95" height="225.04"/><rect class="cls-114" x="717" y="56.76" width="0.95" height="225.04"/><rect class="cls-115" x="716.05" y="56.76" width="0.95" height="225.04"/><rect class="cls-116" x="715.09" y="56.76" width="0.95" height="225.04"/><rect class="cls-117" x="714.14" y="56.76" width="0.95" height="225.04"/><rect class="cls-118" x="713.18" y="56.76" width="0.95" height="225.04"/><rect class="cls-119" x="712.23" y="56.76" width="0.95" height="225.04"/><rect class="cls-120" x="711.27" y="56.76" width="0.95" height="225.04"/><rect class="cls-121" x="710.32" y="56.76" width="0.95" height="225.04"/><rect class="cls-122" x="709.36" y="56.76" width="0.95" height="225.04"/><rect class="cls-123" x="708.41" y="56.76" width="0.95" height="225.04"/><rect class="cls-124" x="707.45" y="56.76" width="0.95" height="225.04"/><rect class="cls-125" x="706.5" y="56.76" width="0.95" height="225.04"/><rect class="cls-126" x="705.54" y="56.76" width="0.95" height="225.04"/><rect class="cls-127" x="704.59" y="56.76" width="0.95" height="225.04"/><rect class="cls-128" x="703.63" y="56.76" width="0.95" height="225.04"/><rect class="cls-129" x="702.68" y="56.76" width="0.95" height="225.04"/><rect class="cls-130" x="701.72" y="56.76" width="0.95" height="225.04"/><rect class="cls-131" x="700.77" y="56.76" width="0.95" height="225.04"/><rect class="cls-132" x="699.81" y="56.76" width="0.95" height="225.04"/><rect class="cls-133" x="698.86" y="56.76" width="0.95" height="225.04"/><rect class="cls-134" x="697.9" y="56.76" width="0.95" height="225.04"/><rect class="cls-135" x="696.95" y="56.76" width="0.95" height="225.04"/><rect class="cls-135" x="696.28" y="56.76" width="0.67" height="225.04"/><rect class="cls-135" x="695.61" y="56.76" width="0.67" height="225.04"/><rect class="cls-134" x="694.94" y="56.76" width="0.67" height="225.04"/><rect class="cls-134" x="694.27" y="56.76" width="0.67" height="225.04"/><rect class="cls-136" x="693.6" y="56.76" width="0.67" height="225.04"/><rect class="cls-132" x="692.93" y="56.76" width="0.67" height="225.04"/><rect class="cls-131" x="692.26" y="56.76" width="0.67" height="225.04"/><rect class="cls-137" x="691.59" y="56.76" width="0.67" height="225.04"/><rect class="cls-130" x="690.92" y="56.76" width="0.67" height="225.04"/><rect class="cls-138" x="690.25" y="56.76" width="0.67" height="225.04"/><rect class="cls-128" x="689.58" y="56.76" width="0.67" height="225.04"/><rect class="cls-127" x="688.91" y="56.76" width="0.67" height="225.04"/><rect class="cls-126" x="688.24" y="56.76" width="0.67" height="225.04"/><rect class="cls-125" x="687.57" y="56.76" width="0.67" height="225.04"/><rect class="cls-124" x="686.9" y="56.76" width="0.67" height="225.04"/><rect class="cls-123" x="686.23" y="56.76" width="0.67" height="225.04"/><rect class="cls-122" x="685.56" y="56.76" width="0.67" height="225.04"/><rect class="cls-121" x="684.89" y="56.76" width="0.67" height="225.04"/><rect class="cls-139" x="684.22" y="56.76" width="0.67" height="225.04"/><rect class="cls-119" x="683.55" y="56.76" width="0.67" height="225.04"/><rect class="cls-140" x="682.88" y="56.76" width="0.67" height="225.04"/><rect class="cls-118" x="682.21" y="56.76" width="0.67" height="225.04"/><rect class="cls-116" x="681.54" y="56.76" width="0.67" height="225.04"/><rect class="cls-115" x="680.87" y="56.76" width="0.67" height="225.04"/><rect class="cls-141" x="680.2" y="56.76" width="0.67" height="225.04"/><rect class="cls-142" x="679.53" y="56.76" width="0.67" height="225.04"/><rect class="cls-112" x="678.86" y="56.76" width="0.67" height="225.04"/><rect class="cls-143" x="678.19" y="56.76" width="0.67" height="225.04"/><rect class="cls-110" x="677.52" y="56.76" width="0.67" height="225.04"/><rect class="cls-109" x="676.85" y="56.76" width="0.67" height="225.04"/><rect class="cls-144" x="676.18" y="56.76" width="0.67" height="225.04"/><rect class="cls-107" x="675.52" y="56.76" width="0.67" height="225.04"/><rect class="cls-106" x="674.85" y="56.76" width="0.67" height="225.04"/><rect class="cls-105" x="674.18" y="56.76" width="0.67" height="225.04"/><rect class="cls-104" x="673.51" y="56.76" width="0.67" height="225.04"/><rect class="cls-103" x="672.84" y="56.76" width="0.67" height="225.04"/><rect class="cls-102" x="672.17" y="56.76" width="0.67" height="225.04"/><rect class="cls-101" x="671.5" y="56.76" width="0.67" height="225.04"/><rect class="cls-100" x="670.83" y="56.76" width="0.67" height="225.04"/><rect class="cls-145" x="670.16" y="56.76" width="0.67" height="225.04"/><rect class="cls-97" x="669.49" y="56.76" width="0.67" height="225.04"/><rect class="cls-96" x="668.82" y="56.76" width="0.67" height="225.04"/><rect class="cls-85" x="668.15" y="56.76" width="0.67" height="225.04"/><rect class="cls-95" x="667.48" y="56.76" width="0.67" height="225.04"/><rect class="cls-94" x="666.81" y="56.76" width="0.67" height="225.04"/><rect class="cls-88" x="666.14" y="56.76" width="0.67" height="225.04"/><rect class="cls-89" x="665.47" y="56.76" width="0.67" height="225.04"/><rect class="cls-146" x="664.8" y="56.76" width="0.67" height="225.04"/><rect class="cls-147" x="664.13" y="56.76" width="0.67" height="225.04"/><rect class="cls-148" x="663.46" y="56.76" width="0.67" height="225.04"/><rect class="cls-149" x="662.79" y="56.76" width="0.67" height="225.04"/><rect class="cls-150" x="662.12" y="56.76" width="0.67" height="225.04"/><rect class="cls-151" x="661.45" y="56.76" width="0.67" height="225.04"/><rect class="cls-152" x="660.78" y="56.76" width="0.67" height="225.04"/><rect class="cls-153" x="660.11" y="56.76" width="0.67" height="225.04"/><rect class="cls-153" x="659.29" y="56.76" width="0.82" height="225.04"/><rect class="cls-154" x="658.46" y="56.76" width="0.82" height="225.04"/><rect class="cls-155" x="657.64" y="56.76" width="0.82" height="225.04"/><rect class="cls-156" x="656.81" y="56.76" width="0.82" height="225.04"/><rect class="cls-156" x="655.99" y="56.76" width="0.82" height="225.04"/><rect class="cls-157" x="655.16" y="56.76" width="0.82" height="225.04"/><rect class="cls-158" x="654.34" y="56.76" width="0.82" height="225.04"/><rect class="cls-159" x="653.51" y="56.76" width="0.82" height="225.04"/><rect class="cls-160" x="652.69" y="56.76" width="0.82" height="225.04"/><rect class="cls-161" x="651.86" y="56.76" width="0.82" height="225.04"/><rect class="cls-162" x="651.04" y="56.76" width="0.82" height="225.04"/><rect class="cls-163" x="650.21" y="56.76" width="0.82" height="225.04"/><rect class="cls-164" x="649.39" y="56.76" width="0.82" height="225.04"/><rect class="cls-165" x="648.56" y="56.76" width="0.82" height="225.04"/><rect class="cls-166" x="647.74" y="56.76" width="0.82" height="225.04"/><rect class="cls-167" x="646.92" y="56.76" width="0.82" height="225.04"/><rect class="cls-168" x="646.09" y="56.76" width="0.82" height="225.04"/><rect class="cls-169" x="645.27" y="56.76" width="0.82" height="225.04"/><rect class="cls-170" x="644.44" y="56.76" width="0.82" height="225.04"/><rect class="cls-171" x="643.62" y="56.76" width="0.82" height="225.04"/><rect class="cls-172" x="642.79" y="56.76" width="0.82" height="225.04"/><rect class="cls-173" x="641.97" y="56.76" width="0.82" height="225.04"/><rect class="cls-174" x="641.14" y="56.76" width="0.82" height="225.04"/><rect class="cls-175" x="640.32" y="56.76" width="0.82" height="225.04"/><rect class="cls-176" x="639.49" y="56.76" width="0.82" height="225.04"/><rect class="cls-177" x="638.67" y="56.76" width="0.82" height="225.04"/><rect class="cls-178" x="637.84" y="56.76" width="0.82" height="225.04"/><rect class="cls-179" x="637.02" y="56.76" width="0.82" height="225.04"/><rect class="cls-180" x="636.19" y="56.76" width="0.82" height="225.04"/><rect class="cls-181" x="635.37" y="56.76" width="0.82" height="225.04"/><rect class="cls-182" x="634.54" y="56.76" width="0.82" height="225.04"/><rect class="cls-183" x="633.72" y="56.76" width="0.82" height="225.04"/><rect class="cls-184" x="632.89" y="56.76" width="0.82" height="225.04"/><rect class="cls-185" x="632.07" y="56.76" width="0.82" height="225.04"/><rect class="cls-186" x="631.24" y="56.76" width="0.82" height="225.04"/><rect class="cls-187" x="630.42" y="56.76" width="0.82" height="225.04"/><rect class="cls-188" x="629.6" y="56.76" width="0.82" height="225.04"/><rect class="cls-189" x="628.77" y="56.76" width="0.82" height="225.04"/><rect class="cls-190" x="627.95" y="56.76" width="0.82" height="225.04"/><rect class="cls-191" x="627.12" y="56.76" width="0.82" height="225.04"/><rect class="cls-192" x="626.3" y="56.76" width="0.82" height="225.04"/><rect class="cls-193" x="625.47" y="56.76" width="0.82" height="225.04"/><rect class="cls-194" x="624.65" y="56.76" width="0.82" height="225.04"/><rect class="cls-195" x="623.82" y="56.76" width="0.82" height="225.04"/><rect class="cls-196" x="623" y="56.76" width="0.82" height="225.04"/><rect class="cls-197" x="622.17" y="56.76" width="0.82" height="225.04"/><rect class="cls-198" x="621.35" y="56.76" width="0.82" height="225.04"/><rect class="cls-199" x="620.52" y="56.76" width="0.82" height="225.04"/><rect class="cls-200" x="619.7" y="56.76" width="0.82" height="225.04"/><rect class="cls-201" x="618.87" y="56.76" width="0.82" height="225.04"/><rect class="cls-202" x="618.05" y="56.76" width="0.82" height="225.04"/><rect class="cls-203" x="617.22" y="56.76" width="0.82" height="225.04"/><rect class="cls-204" x="616.4" y="56.76" width="0.82" height="225.04"/><rect class="cls-205" x="615.57" y="56.76" width="0.82" height="225.04"/><rect class="cls-206" x="614.75" y="56.76" width="0.82" height="225.04"/><rect class="cls-207" x="613.93" y="56.76" width="0.82" height="225.04"/><rect class="cls-208" x="613.1" y="56.76" width="0.82" height="225.04"/><rect class="cls-209" x="612.28" y="56.76" width="0.82" height="225.04"/><rect class="cls-210" x="611.45" y="56.76" width="0.82" height="225.04"/><rect class="cls-211" x="610.63" y="56.76" width="0.82" height="225.04"/><rect class="cls-212" x="609.8" y="56.76" width="0.82" height="225.04"/><rect class="cls-213" x="608.98" y="56.76" width="0.82" height="225.04"/><rect class="cls-214" x="608.15" y="56.76" width="0.82" height="225.04"/><rect class="cls-215" x="607.33" y="56.76" width="0.82" height="225.04"/><rect class="cls-216" x="606.5" y="56.76" width="0.82" height="225.04"/><rect class="cls-217" x="605.68" y="56.76" width="0.82" height="225.04"/><rect class="cls-218" x="604.85" y="56.76" width="0.82" height="225.04"/><rect class="cls-219" x="604.03" y="56.76" width="0.82" height="225.04"/><rect class="cls-220" x="603.2" y="56.76" width="0.82" height="225.04"/><rect class="cls-221" x="602.38" y="56.76" width="0.82" height="225.04"/><rect class="cls-222" x="601.55" y="56.76" width="0.82" height="225.04"/><rect class="cls-223" x="600.73" y="56.76" width="0.82" height="225.04"/><rect class="cls-224" x="599.9" y="56.76" width="0.82" height="225.04"/><rect class="cls-225" x="599.08" y="56.76" width="0.82" height="225.04"/><rect class="cls-226" x="598.25" y="56.76" width="0.82" height="225.04"/><rect class="cls-226" x="598.01" y="56.76" width="0.24" height="225.04"/><rect class="cls-227" x="597.77" y="56.76" width="0.24" height="225.04"/><rect class="cls-228" x="597.53" y="56.76" width="0.24" height="225.04"/><rect class="cls-229" x="597.29" y="56.76" width="0.24" height="225.04"/><rect class="cls-230" x="597.05" y="56.76" width="0.24" height="225.04"/><rect class="cls-231" x="596.81" y="56.76" width="0.24" height="225.04"/><rect class="cls-232" x="596.57" y="56.76" width="0.24" height="225.04"/><rect class="cls-233" x="596.33" y="56.76" width="0.24" height="225.04"/><rect class="cls-234" x="596.1" y="56.76" width="0.24" height="225.04"/><rect class="cls-235" x="595.86" y="56.76" width="0.24" height="225.04"/><rect class="cls-236" x="595.62" y="56.76" width="0.24" height="225.04"/><rect class="cls-237" x="595.38" y="56.76" width="0.24" height="225.04"/><rect class="cls-238" x="595.14" y="56.76" width="0.24" height="225.04"/><rect class="cls-239" x="594.9" y="56.76" width="0.24" height="225.04"/><rect class="cls-240" x="594.66" y="56.76" width="0.24" height="225.04"/><rect class="cls-241" x="594.42" y="56.76" width="0.24" height="225.04"/><rect class="cls-242" x="594.18" y="56.76" width="0.24" height="225.04"/><rect class="cls-243" x="593.94" y="56.76" width="0.24" height="225.04"/><rect class="cls-244" x="593.7" y="56.76" width="0.24" height="225.04"/><rect class="cls-245" x="593.46" y="56.76" width="0.24" height="225.04"/><rect class="cls-246" x="593.22" y="56.76" width="0.24" height="225.04"/><rect class="cls-247" x="592.98" y="56.76" width="0.24" height="225.04"/><rect class="cls-248" x="592.74" y="56.76" width="0.24" height="225.04"/><rect class="cls-249" x="592.5" y="56.76" width="0.24" height="225.04"/><rect class="cls-250" x="592.26" y="56.76" width="0.24" height="225.04"/><rect class="cls-251" x="592.02" y="56.76" width="0.24" height="225.04"/><rect class="cls-252" x="591.78" y="56.76" width="0.24" height="225.04"/><rect class="cls-253" x="591.54" y="56.76" width="0.24" height="225.04"/><rect class="cls-254" x="591.3" y="56.76" width="0.24" height="225.04"/><rect class="cls-255" x="591.06" y="56.76" width="0.24" height="225.04"/><rect class="cls-256" x="590.82" y="56.76" width="0.24" height="225.04"/><rect class="cls-257" x="590.58" y="56.76" width="0.24" height="225.04"/><rect class="cls-258" x="590.34" y="56.76" width="0.24" height="225.04"/><rect class="cls-259" x="590.1" y="56.76" width="0.24" height="225.04"/><rect class="cls-260" x="589.86" y="56.76" width="0.24" height="225.04"/><rect class="cls-261" x="589.62" y="56.76" width="0.24" height="225.04"/><rect class="cls-262" x="589.38" y="56.76" width="0.24" height="225.04"/><rect class="cls-263" x="589.14" y="56.76" width="0.24" height="225.04"/><rect class="cls-264" x="588.9" y="56.76" width="0.24" height="225.04"/><rect class="cls-265" x="588.66" y="56.76" width="0.24" height="225.04"/><rect class="cls-266" x="588.42" y="56.76" width="0.24" height="225.04"/><rect class="cls-267" x="588.18" y="56.76" width="0.24" height="225.04"/><rect class="cls-268" x="587.94" y="56.76" width="0.24" height="225.04"/><rect class="cls-269" x="587.7" y="56.76" width="0.24" height="225.04"/><rect class="cls-270" x="587.46" y="56.76" width="0.24" height="225.04"/><rect class="cls-271" x="587.22" y="56.76" width="0.24" height="225.04"/><rect class="cls-272" x="586.98" y="56.76" width="0.24" height="225.04"/><rect class="cls-273" x="586.74" y="56.76" width="0.24" height="225.04"/><rect class="cls-274" x="586.5" y="56.76" width="0.24" height="225.04"/><rect class="cls-275" x="586.26" y="56.76" width="0.24" height="225.04"/><rect class="cls-276" x="586.02" y="56.76" width="0.24" height="225.04"/><rect class="cls-277" x="585.78" y="56.76" width="0.24" height="225.04"/><rect class="cls-278" x="585.54" y="56.76" width="0.24" height="225.04"/><rect class="cls-279" x="585.3" y="56.76" width="0.24" height="225.04"/><rect class="cls-280" x="585.06" y="56.76" width="0.24" height="225.04"/><rect class="cls-281" x="584.82" y="56.76" width="0.24" height="225.04"/><rect class="cls-282" x="584.58" y="56.76" width="0.24" height="225.04"/><rect class="cls-283" x="584.34" y="56.76" width="0.24" height="225.04"/><rect class="cls-284" x="584.1" y="56.76" width="0.24" height="225.04"/><rect class="cls-285" x="583.86" y="56.76" width="0.24" height="225.04"/><rect class="cls-286" x="583.62" y="56.76" width="0.24" height="225.04"/><rect class="cls-287" x="583.38" y="56.76" width="0.24" height="225.04"/><rect class="cls-288" x="583.14" y="56.76" width="0.24" height="225.04"/><rect class="cls-289" x="582.9" y="56.76" width="0.24" height="225.04"/><rect class="cls-290" x="582.66" y="56.76" width="0.24" height="225.04"/><rect class="cls-291" x="582.42" y="56.76" width="0.24" height="225.04"/><rect class="cls-292" x="582.18" y="56.76" width="0.24" height="225.04"/><rect class="cls-293" x="581.94" y="56.76" width="0.24" height="225.04"/><rect class="cls-294" x="581.7" y="56.76" width="0.24" height="225.04"/><rect class="cls-295" x="581.46" y="56.76" width="0.24" height="225.04"/><rect class="cls-296" x="581.22" y="56.76" width="0.24" height="225.04"/><rect class="cls-297" x="580.98" y="56.76" width="0.24" height="225.04"/><rect class="cls-298" x="580.74" y="56.76" width="0.24" height="225.04"/><rect class="cls-299" x="580.5" y="56.76" width="0.24" height="225.04"/><rect class="cls-300" x="580.26" y="56.76" width="0.24" height="225.04"/><rect class="cls-301" x="580.02" y="56.76" width="0.24" height="225.04"/><rect class="cls-302" x="579.78" y="56.76" width="0.24" height="225.04"/><rect class="cls-303" x="579.54" y="56.76" width="0.24" height="225.04"/><rect class="cls-304" x="579.3" y="56.76" width="0.24" height="225.04"/><rect class="cls-305" x="579.06" y="56.76" width="0.24" height="225.04"/><rect class="cls-306" x="578.82" y="56.76" width="0.24" height="225.04"/><rect class="cls-307" x="578.58" y="56.76" width="0.24" height="225.04"/><rect class="cls-308" x="578.34" y="56.76" width="0.24" height="225.04"/><rect class="cls-309" x="578.1" y="56.76" width="0.24" height="225.04"/><rect class="cls-310" x="577.86" y="56.76" width="0.24" height="225.04"/><rect class="cls-311" x="577.62" y="56.76" width="0.24" height="225.04"/><rect class="cls-312" x="577.38" y="56.76" width="0.24" height="225.04"/><rect class="cls-313" x="577.14" y="56.76" width="0.24" height="225.04"/><rect class="cls-314" x="576.9" y="56.76" width="0.24" height="225.04"/><rect class="cls-315" x="576.66" y="56.76" width="0.24" height="225.04"/><rect class="cls-316" x="576.42" y="56.76" width="0.24" height="225.04"/><rect class="cls-317" x="576.18" y="56.76" width="0.24" height="225.04"/><rect class="cls-318" x="575.94" y="56.76" width="0.24" height="225.04"/><rect class="cls-319" x="575.7" y="56.76" width="0.24" height="225.04"/><rect class="cls-320" x="575.46" y="56.76" width="0.24" height="225.04"/><rect class="cls-321" x="575.22" y="56.76" width="0.24" height="225.04"/><rect class="cls-322" x="574.98" y="56.76" width="0.24" height="225.04"/><rect class="cls-323" x="574.74" y="56.76" width="0.24" height="225.04"/><rect class="cls-324" x="574.5" y="56.76" width="0.24" height="225.04"/><rect class="cls-325" x="574.26" y="56.76" width="0.24" height="225.04"/><rect class="cls-326" x="574.02" y="56.76" width="0.24" height="225.04"/><rect class="cls-327" x="573.78" y="56.76" width="0.24" height="225.04"/><rect class="cls-328" x="573.54" y="56.76" width="0.24" height="225.04"/><rect class="cls-328" x="573.3" y="56.76" width="0.24" height="225.04"/><rect class="cls-329" x="573.06" y="56.76" width="0.24" height="225.04"/><rect class="cls-330" x="572.82" y="56.76" width="0.24" height="225.04"/><rect class="cls-331" x="572.58" y="56.76" width="0.24" height="225.04"/><rect class="cls-332" x="572.34" y="56.76" width="0.24" height="225.04"/><rect class="cls-333" x="572.1" y="56.76" width="0.24" height="225.04"/><rect class="cls-334" x="571.86" y="56.76" width="0.24" height="225.04"/><rect class="cls-335" x="571.62" y="56.76" width="0.24" height="225.04"/><rect class="cls-335" x="571.38" y="56.76" width="0.24" height="225.04"/><rect class="cls-336" x="571.14" y="56.76" width="0.24" height="225.04"/><rect class="cls-337" x="570.9" y="56.76" width="0.24" height="225.04"/><rect class="cls-338" x="570.66" y="56.76" width="0.24" height="225.04"/><rect class="cls-339" x="570.42" y="56.76" width="0.24" height="225.04"/><rect class="cls-340" x="570.18" y="56.76" width="0.24" height="225.04"/><rect class="cls-341" x="569.94" y="56.76" width="0.24" height="225.04"/><rect class="cls-341" x="569.7" y="56.76" width="0.24" height="225.04"/><rect class="cls-342" x="569.46" y="56.76" width="0.24" height="225.04"/><rect class="cls-343" x="569.22" y="56.76" width="0.24" height="225.04"/><rect class="cls-343" x="541.79" y="56.76" width="27.43" height="225.04"/></g><g class="cls-344"><rect class="cls-7" x="298.21" y="59.03" width="3.41" height="224.28"/><rect class="cls-7" x="301.62" y="59.03" width="0.61" height="224.28"/><rect class="cls-8" x="302.23" y="59.03" width="0.61" height="224.28"/><rect class="cls-9" x="302.83" y="59.03" width="0.61" height="224.28"/><rect class="cls-10" x="303.44" y="59.03" width="0.61" height="224.28"/><rect class="cls-11" x="304.04" y="59.03" width="0.61" height="224.28"/><rect class="cls-12" x="304.65" y="59.03" width="0.61" height="224.28"/><rect class="cls-13" x="305.25" y="59.03" width="0.61" height="224.28"/><rect class="cls-14" x="305.86" y="59.03" width="0.61" height="224.28"/><rect class="cls-15" x="306.46" y="59.03" width="0.61" height="224.28"/><rect class="cls-16" x="307.07" y="59.03" width="0.61" height="224.28"/><rect class="cls-17" x="307.67" y="59.03" width="0.61" height="224.28"/><rect class="cls-18" x="308.28" y="59.03" width="0.61" height="224.28"/><rect class="cls-19" x="308.88" y="59.03" width="0.61" height="224.28"/><rect class="cls-20" x="309.49" y="59.03" width="0.61" height="224.28"/><rect class="cls-21" x="310.09" y="59.03" width="0.61" height="224.28"/><rect class="cls-22" x="310.7" y="59.03" width="0.61" height="224.28"/><rect class="cls-23" x="311.3" y="59.03" width="0.61" height="224.28"/><rect class="cls-24" x="311.91" y="59.03" width="0.61" height="224.28"/><rect class="cls-25" x="312.51" y="59.03" width="0.61" height="224.28"/><rect class="cls-26" x="313.12" y="59.03" width="0.61" height="224.28"/><rect class="cls-27" x="313.72" y="59.03" width="0.61" height="224.28"/><rect class="cls-28" x="314.33" y="59.03" width="0.61" height="224.28"/><rect class="cls-29" x="314.93" y="59.03" width="0.61" height="224.28"/><rect class="cls-30" x="315.54" y="59.03" width="0.61" height="224.28"/><rect class="cls-31" x="316.14" y="59.03" width="0.61" height="224.28"/><rect class="cls-32" x="316.75" y="59.03" width="0.61" height="224.28"/><rect class="cls-33" x="317.35" y="59.03" width="0.61" height="224.28"/><rect class="cls-34" x="317.96" y="59.03" width="0.61" height="224.28"/><rect class="cls-35" x="318.56" y="59.03" width="0.61" height="224.28"/><rect class="cls-36" x="319.17" y="59.03" width="0.61" height="224.28"/><rect class="cls-37" x="319.77" y="59.03" width="0.61" height="224.28"/><rect class="cls-38" x="320.38" y="59.03" width="0.61" height="224.28"/><rect class="cls-39" x="320.98" y="59.03" width="0.61" height="224.28"/><rect class="cls-40" x="321.59" y="59.03" width="0.61" height="224.28"/><rect class="cls-41" x="322.2" y="59.03" width="0.61" height="224.28"/><rect class="cls-42" x="322.8" y="59.03" width="0.61" height="224.28"/><rect class="cls-43" x="323.41" y="59.03" width="0.61" height="224.28"/><rect class="cls-44" x="324.01" y="59.03" width="0.61" height="224.28"/><rect class="cls-45" x="324.62" y="59.03" width="0.61" height="224.28"/><rect class="cls-46" x="325.22" y="59.03" width="0.61" height="224.28"/><rect class="cls-47" x="325.83" y="59.03" width="0.61" height="224.28"/><rect class="cls-48" x="326.43" y="59.03" width="0.61" height="224.28"/><rect class="cls-49" x="327.04" y="59.03" width="0.61" height="224.28"/><rect class="cls-50" x="327.64" y="59.03" width="0.61" height="224.28"/><rect class="cls-51" x="328.25" y="59.03" width="0.61" height="224.28"/><rect class="cls-52" x="328.85" y="59.03" width="0.61" height="224.28"/><rect class="cls-53" x="329.46" y="59.03" width="0.61" height="224.28"/><rect class="cls-54" x="330.06" y="59.03" width="0.61" height="224.28"/><rect class="cls-55" x="330.67" y="59.03" width="0.61" height="224.28"/><rect class="cls-56" x="331.27" y="59.03" width="0.61" height="224.28"/><rect class="cls-57" x="331.88" y="59.03" width="0.61" height="224.28"/><rect class="cls-58" x="332.48" y="59.03" width="0.61" height="224.28"/><rect class="cls-59" x="333.09" y="59.03" width="0.61" height="224.28"/><rect class="cls-60" x="333.69" y="59.03" width="0.61" height="224.28"/><rect class="cls-61" x="334.3" y="59.03" width="0.61" height="224.28"/><rect class="cls-62" x="334.9" y="59.03" width="0.61" height="224.28"/><rect class="cls-63" x="335.51" y="59.03" width="0.61" height="224.28"/><rect class="cls-64" x="336.11" y="59.03" width="0.61" height="224.28"/><rect class="cls-65" x="336.72" y="59.03" width="0.61" height="224.28"/><rect class="cls-66" x="337.32" y="59.03" width="0.61" height="224.28"/><rect class="cls-67" x="337.93" y="59.03" width="0.61" height="224.28"/><rect class="cls-68" x="338.53" y="59.03" width="0.61" height="224.28"/><rect class="cls-69" x="339.14" y="59.03" width="0.61" height="224.28"/><rect class="cls-70" x="339.74" y="59.03" width="0.61" height="224.28"/><rect class="cls-71" x="340.35" y="59.03" width="0.61" height="224.28"/><rect class="cls-72" x="340.95" y="59.03" width="0.61" height="224.28"/><rect class="cls-73" x="341.56" y="59.03" width="0.61" height="224.28"/><rect class="cls-74" x="342.17" y="59.03" width="0.61" height="224.28"/><rect class="cls-75" x="342.77" y="59.03" width="0.61" height="224.28"/><rect class="cls-76" x="343.38" y="59.03" width="0.61" height="224.28"/><rect class="cls-77" x="343.98" y="59.03" width="0.61" height="224.28"/><rect class="cls-78" x="344.59" y="59.03" width="0.61" height="224.28"/><rect class="cls-79" x="345.19" y="59.03" width="0.61" height="224.28"/><rect class="cls-80" x="345.8" y="59.03" width="0.61" height="224.28"/><rect class="cls-81" x="346.4" y="59.03" width="0.61" height="224.28"/><rect class="cls-82" x="347.01" y="59.03" width="0.61" height="224.28"/><rect class="cls-83" x="347.61" y="59.03" width="0.61" height="224.28"/><rect class="cls-84" x="348.22" y="59.03" width="0.61" height="224.28"/><rect class="cls-85" x="348.82" y="59.03" width="0.61" height="224.28"/><rect class="cls-86" x="349.43" y="59.03" width="0.61" height="224.28"/><rect class="cls-87" x="350.03" y="59.03" width="0.61" height="224.28"/><rect class="cls-88" x="350.64" y="59.03" width="0.61" height="224.28"/><rect class="cls-89" x="351.24" y="59.03" width="0.61" height="224.28"/><rect class="cls-90" x="351.85" y="59.03" width="0.61" height="224.28"/><rect class="cls-90" x="352.45" y="59.03" width="0.95" height="224.28"/><rect class="cls-91" x="353.41" y="59.03" width="0.95" height="224.28"/><rect class="cls-92" x="354.36" y="59.03" width="0.95" height="224.28"/><rect class="cls-93" x="355.32" y="59.03" width="0.95" height="224.28"/><rect class="cls-94" x="356.27" y="59.03" width="0.95" height="224.28"/><rect class="cls-95" x="357.23" y="59.03" width="0.95" height="224.28"/><rect class="cls-85" x="358.18" y="59.03" width="0.95" height="224.28"/><rect class="cls-96" x="359.14" y="59.03" width="0.95" height="224.28"/><rect class="cls-97" x="360.09" y="59.03" width="0.95" height="224.28"/><rect class="cls-98" x="361.05" y="59.03" width="0.95" height="224.28"/><rect class="cls-99" x="362" y="59.03" width="0.95" height="224.28"/><rect class="cls-100" x="362.96" y="59.03" width="0.95" height="224.28"/><rect class="cls-101" x="363.91" y="59.03" width="0.95" height="224.28"/><rect class="cls-102" x="364.87" y="59.03" width="0.95" height="224.28"/><rect class="cls-103" x="365.82" y="59.03" width="0.95" height="224.28"/><rect class="cls-104" x="366.78" y="59.03" width="0.95" height="224.28"/><rect class="cls-105" x="367.73" y="59.03" width="0.95" height="224.28"/><rect class="cls-106" x="368.69" y="59.03" width="0.95" height="224.28"/><rect class="cls-107" x="369.64" y="59.03" width="0.95" height="224.28"/><rect class="cls-108" x="370.6" y="59.03" width="0.95" height="224.28"/><rect class="cls-109" x="371.55" y="59.03" width="0.95" height="224.28"/><rect class="cls-110" x="372.51" y="59.03" width="0.95" height="224.28"/><rect class="cls-111" x="373.46" y="59.03" width="0.95" height="224.28"/><rect class="cls-112" x="374.42" y="59.03" width="0.95" height="224.28"/><rect class="cls-113" x="375.37" y="59.03" width="0.95" height="224.28"/><rect class="cls-114" x="376.33" y="59.03" width="0.95" height="224.28"/><rect class="cls-115" x="377.28" y="59.03" width="0.95" height="224.28"/><rect class="cls-116" x="378.24" y="59.03" width="0.95" height="224.28"/><rect class="cls-117" x="379.19" y="59.03" width="0.95" height="224.28"/><rect class="cls-118" x="380.15" y="59.03" width="0.95" height="224.28"/><rect class="cls-119" x="381.1" y="59.03" width="0.95" height="224.28"/><rect class="cls-120" x="382.06" y="59.03" width="0.95" height="224.28"/><rect class="cls-121" x="383.01" y="59.03" width="0.95" height="224.28"/><rect class="cls-122" x="383.97" y="59.03" width="0.95" height="224.28"/><rect class="cls-123" x="384.92" y="59.03" width="0.95" height="224.28"/><rect class="cls-124" x="385.87" y="59.03" width="0.95" height="224.28"/><rect class="cls-125" x="386.83" y="59.03" width="0.95" height="224.28"/><rect class="cls-126" x="387.78" y="59.03" width="0.95" height="224.28"/><rect class="cls-127" x="388.74" y="59.03" width="0.95" height="224.28"/><rect class="cls-128" x="389.69" y="59.03" width="0.95" height="224.28"/><rect class="cls-129" x="390.65" y="59.03" width="0.95" height="224.28"/><rect class="cls-130" x="391.6" y="59.03" width="0.95" height="224.28"/><rect class="cls-131" x="392.56" y="59.03" width="0.95" height="224.28"/><rect class="cls-132" x="393.51" y="59.03" width="0.95" height="224.28"/><rect class="cls-133" x="394.47" y="59.03" width="0.95" height="224.28"/><rect class="cls-134" x="395.42" y="59.03" width="0.95" height="224.28"/><rect class="cls-135" x="396.38" y="59.03" width="0.95" height="224.28"/><rect class="cls-135" x="397.33" y="59.03" width="0.67" height="224.28"/><rect class="cls-135" x="398" y="59.03" width="0.67" height="224.28"/><rect class="cls-134" x="398.67" y="59.03" width="0.67" height="224.28"/><rect class="cls-134" x="399.34" y="59.03" width="0.67" height="224.28"/><rect class="cls-136" x="400.01" y="59.03" width="0.67" height="224.28"/><rect class="cls-132" x="400.68" y="59.03" width="0.67" height="224.28"/><rect class="cls-131" x="401.35" y="59.03" width="0.67" height="224.28"/><rect class="cls-137" x="402.02" y="59.03" width="0.67" height="224.28"/><rect class="cls-130" x="402.69" y="59.03" width="0.67" height="224.28"/><rect class="cls-138" x="403.36" y="59.03" width="0.67" height="224.28"/><rect class="cls-128" x="404.03" y="59.03" width="0.67" height="224.28"/><rect class="cls-127" x="404.7" y="59.03" width="0.67" height="224.28"/><rect class="cls-126" x="405.37" y="59.03" width="0.67" height="224.28"/><rect class="cls-125" x="406.04" y="59.03" width="0.67" height="224.28"/><rect class="cls-124" x="406.71" y="59.03" width="0.67" height="224.28"/><rect class="cls-123" x="407.38" y="59.03" width="0.67" height="224.28"/><rect class="cls-122" x="408.05" y="59.03" width="0.67" height="224.28"/><rect class="cls-121" x="408.72" y="59.03" width="0.67" height="224.28"/><rect class="cls-139" x="409.39" y="59.03" width="0.67" height="224.28"/><rect class="cls-119" x="410.06" y="59.03" width="0.67" height="224.28"/><rect class="cls-140" x="410.73" y="59.03" width="0.67" height="224.28"/><rect class="cls-118" x="411.4" y="59.03" width="0.67" height="224.28"/><rect class="cls-116" x="412.07" y="59.03" width="0.67" height="224.28"/><rect class="cls-115" x="412.74" y="59.03" width="0.67" height="224.28"/><rect class="cls-141" x="413.41" y="59.03" width="0.67" height="224.28"/><rect class="cls-142" x="414.08" y="59.03" width="0.67" height="224.28"/><rect class="cls-112" x="414.75" y="59.03" width="0.67" height="224.28"/><rect class="cls-143" x="415.42" y="59.03" width="0.67" height="224.28"/><rect class="cls-110" x="416.09" y="59.03" width="0.67" height="224.28"/><rect class="cls-109" x="416.76" y="59.03" width="0.67" height="224.28"/><rect class="cls-144" x="417.43" y="59.03" width="0.67" height="224.28"/><rect class="cls-107" x="418.09" y="59.03" width="0.67" height="224.28"/><rect class="cls-106" x="418.76" y="59.03" width="0.67" height="224.28"/><rect class="cls-105" x="419.43" y="59.03" width="0.67" height="224.28"/><rect class="cls-104" x="420.1" y="59.03" width="0.67" height="224.28"/><rect class="cls-103" x="420.77" y="59.03" width="0.67" height="224.28"/><rect class="cls-102" x="421.44" y="59.03" width="0.67" height="224.28"/><rect class="cls-101" x="422.11" y="59.03" width="0.67" height="224.28"/><rect class="cls-100" x="422.78" y="59.03" width="0.67" height="224.28"/><rect class="cls-145" x="423.45" y="59.03" width="0.67" height="224.28"/><rect class="cls-97" x="424.12" y="59.03" width="0.67" height="224.28"/><rect class="cls-96" x="424.79" y="59.03" width="0.67" height="224.28"/><rect class="cls-85" x="425.46" y="59.03" width="0.67" height="224.28"/><rect class="cls-95" x="426.13" y="59.03" width="0.67" height="224.28"/><rect class="cls-94" x="426.8" y="59.03" width="0.67" height="224.28"/><rect class="cls-88" x="427.47" y="59.03" width="0.67" height="224.28"/><rect class="cls-89" x="428.14" y="59.03" width="0.67" height="224.28"/><rect class="cls-146" x="428.81" y="59.03" width="0.67" height="224.28"/><rect class="cls-147" x="429.48" y="59.03" width="0.67" height="224.28"/><rect class="cls-148" x="430.15" y="59.03" width="0.67" height="224.28"/><rect class="cls-149" x="430.82" y="59.03" width="0.67" height="224.28"/><rect class="cls-150" x="431.49" y="59.03" width="0.67" height="224.28"/><rect class="cls-151" x="432.16" y="59.03" width="0.67" height="224.28"/><rect class="cls-152" x="432.83" y="59.03" width="0.67" height="224.28"/><rect class="cls-153" x="433.5" y="59.03" width="0.67" height="224.28"/><rect class="cls-153" x="434.17" y="59.03" width="0.82" height="224.28"/><rect class="cls-154" x="434.99" y="59.03" width="0.82" height="224.28"/><rect class="cls-155" x="435.82" y="59.03" width="0.82" height="224.28"/><rect class="cls-156" x="436.64" y="59.03" width="0.82" height="224.28"/><rect class="cls-156" x="437.47" y="59.03" width="0.82" height="224.28"/><rect class="cls-157" x="438.29" y="59.03" width="0.82" height="224.28"/><rect class="cls-158" x="439.12" y="59.03" width="0.82" height="224.28"/><rect class="cls-159" x="439.94" y="59.03" width="0.82" height="224.28"/><rect class="cls-160" x="440.77" y="59.03" width="0.82" height="224.28"/><rect class="cls-161" x="441.59" y="59.03" width="0.82" height="224.28"/><rect class="cls-162" x="442.42" y="59.03" width="0.82" height="224.28"/><rect class="cls-163" x="443.24" y="59.03" width="0.82" height="224.28"/><rect class="cls-164" x="444.07" y="59.03" width="0.82" height="224.28"/><rect class="cls-165" x="444.89" y="59.03" width="0.82" height="224.28"/><rect class="cls-166" x="445.71" y="59.03" width="0.82" height="224.28"/><rect class="cls-167" x="446.54" y="59.03" width="0.82" height="224.28"/><rect class="cls-168" x="447.36" y="59.03" width="0.82" height="224.28"/><rect class="cls-169" x="448.19" y="59.03" width="0.82" height="224.28"/><rect class="cls-170" x="449.01" y="59.03" width="0.82" height="224.28"/><rect class="cls-171" x="449.84" y="59.03" width="0.82" height="224.28"/><rect class="cls-172" x="450.66" y="59.03" width="0.82" height="224.28"/><rect class="cls-173" x="451.49" y="59.03" width="0.82" height="224.28"/><rect class="cls-174" x="452.31" y="59.03" width="0.82" height="224.28"/><rect class="cls-175" x="453.14" y="59.03" width="0.82" height="224.28"/><rect class="cls-176" x="453.96" y="59.03" width="0.82" height="224.28"/><rect class="cls-177" x="454.79" y="59.03" width="0.82" height="224.28"/><rect class="cls-178" x="455.61" y="59.03" width="0.82" height="224.28"/><rect class="cls-179" x="456.44" y="59.03" width="0.82" height="224.28"/><rect class="cls-180" x="457.26" y="59.03" width="0.82" height="224.28"/><rect class="cls-181" x="458.09" y="59.03" width="0.82" height="224.28"/><rect class="cls-182" x="458.91" y="59.03" width="0.82" height="224.28"/><rect class="cls-183" x="459.74" y="59.03" width="0.82" height="224.28"/><rect class="cls-184" x="460.56" y="59.03" width="0.82" height="224.28"/><rect class="cls-185" x="461.38" y="59.03" width="0.82" height="224.28"/><rect class="cls-186" x="462.21" y="59.03" width="0.82" height="224.28"/><rect class="cls-187" x="463.03" y="59.03" width="0.82" height="224.28"/><rect class="cls-188" x="463.86" y="59.03" width="0.82" height="224.28"/><rect class="cls-189" x="464.68" y="59.03" width="0.82" height="224.28"/><rect class="cls-190" x="465.51" y="59.03" width="0.82" height="224.28"/><rect class="cls-191" x="466.33" y="59.03" width="0.82" height="224.28"/><rect class="cls-192" x="467.16" y="59.03" width="0.82" height="224.28"/><rect class="cls-193" x="467.98" y="59.03" width="0.82" height="224.28"/><rect class="cls-194" x="468.81" y="59.03" width="0.82" height="224.28"/><rect class="cls-195" x="469.63" y="59.03" width="0.82" height="224.28"/><rect class="cls-196" x="470.46" y="59.03" width="0.82" height="224.28"/><rect class="cls-197" x="471.28" y="59.03" width="0.82" height="224.28"/><rect class="cls-198" x="472.11" y="59.03" width="0.82" height="224.28"/><rect class="cls-199" x="472.93" y="59.03" width="0.82" height="224.28"/><rect class="cls-200" x="473.76" y="59.03" width="0.82" height="224.28"/><rect class="cls-201" x="474.58" y="59.03" width="0.82" height="224.28"/><rect class="cls-202" x="475.41" y="59.03" width="0.82" height="224.28"/><rect class="cls-203" x="476.23" y="59.03" width="0.82" height="224.28"/><rect class="cls-204" x="477.05" y="59.03" width="0.82" height="224.28"/><rect class="cls-205" x="477.88" y="59.03" width="0.82" height="224.28"/><rect class="cls-206" x="478.7" y="59.03" width="0.82" height="224.28"/><rect class="cls-207" x="479.53" y="59.03" width="0.82" height="224.28"/><rect class="cls-208" x="480.35" y="59.03" width="0.82" height="224.28"/><rect class="cls-209" x="481.18" y="59.03" width="0.82" height="224.28"/><rect class="cls-210" x="482" y="59.03" width="0.82" height="224.28"/><rect class="cls-211" x="482.83" y="59.03" width="0.82" height="224.28"/><rect class="cls-212" x="483.65" y="59.03" width="0.82" height="224.28"/><rect class="cls-213" x="484.48" y="59.03" width="0.82" height="224.28"/><rect class="cls-214" x="485.3" y="59.03" width="0.82" height="224.28"/><rect class="cls-215" x="486.13" y="59.03" width="0.82" height="224.28"/><rect class="cls-216" x="486.95" y="59.03" width="0.82" height="224.28"/><rect class="cls-217" x="487.78" y="59.03" width="0.82" height="224.28"/><rect class="cls-218" x="488.6" y="59.03" width="0.82" height="224.28"/><rect class="cls-219" x="489.43" y="59.03" width="0.82" height="224.28"/><rect class="cls-220" x="490.25" y="59.03" width="0.82" height="224.28"/><rect class="cls-221" x="491.08" y="59.03" width="0.82" height="224.28"/><rect class="cls-222" x="491.9" y="59.03" width="0.82" height="224.28"/><rect class="cls-223" x="492.72" y="59.03" width="0.82" height="224.28"/><rect class="cls-224" x="493.55" y="59.03" width="0.82" height="224.28"/><rect class="cls-225" x="494.37" y="59.03" width="0.82" height="224.28"/><rect class="cls-226" x="495.2" y="59.03" width="0.82" height="224.28"/><rect class="cls-226" x="496.02" y="59.03" width="0.24" height="224.28"/><rect class="cls-227" x="496.26" y="59.03" width="0.24" height="224.28"/><rect class="cls-228" x="496.5" y="59.03" width="0.24" height="224.28"/><rect class="cls-229" x="496.74" y="59.03" width="0.24" height="224.28"/><rect class="cls-230" x="496.98" y="59.03" width="0.24" height="224.28"/><rect class="cls-231" x="497.22" y="59.03" width="0.24" height="224.28"/><rect class="cls-232" x="497.46" y="59.03" width="0.24" height="224.28"/><rect class="cls-233" x="497.7" y="59.03" width="0.24" height="224.28"/><rect class="cls-234" x="497.94" y="59.03" width="0.24" height="224.28"/><rect class="cls-235" x="498.18" y="59.03" width="0.24" height="224.28"/><rect class="cls-236" x="498.42" y="59.03" width="0.24" height="224.28"/><rect class="cls-237" x="498.66" y="59.03" width="0.24" height="224.28"/><rect class="cls-238" x="498.9" y="59.03" width="0.24" height="224.28"/><rect class="cls-239" x="499.14" y="59.03" width="0.24" height="224.28"/><rect class="cls-240" x="499.38" y="59.03" width="0.24" height="224.28"/><rect class="cls-241" x="499.62" y="59.03" width="0.24" height="224.28"/><rect class="cls-242" x="499.86" y="59.03" width="0.24" height="224.28"/><rect class="cls-243" x="500.1" y="59.03" width="0.24" height="224.28"/><rect class="cls-244" x="500.34" y="59.03" width="0.24" height="224.28"/><rect class="cls-245" x="500.58" y="59.03" width="0.24" height="224.28"/><rect class="cls-246" x="500.82" y="59.03" width="0.24" height="224.28"/><rect class="cls-247" x="501.06" y="59.03" width="0.24" height="224.28"/><rect class="cls-248" x="501.3" y="59.03" width="0.24" height="224.28"/><rect class="cls-249" x="501.54" y="59.03" width="0.24" height="224.28"/><rect class="cls-250" x="501.78" y="59.03" width="0.24" height="224.28"/><rect class="cls-251" x="502.02" y="59.03" width="0.24" height="224.28"/><rect class="cls-252" x="502.26" y="59.03" width="0.24" height="224.28"/><rect class="cls-253" x="502.5" y="59.03" width="0.24" height="224.28"/><rect class="cls-254" x="502.74" y="59.03" width="0.24" height="224.28"/><rect class="cls-255" x="502.98" y="59.03" width="0.24" height="224.28"/><rect class="cls-256" x="503.22" y="59.03" width="0.24" height="224.28"/><rect class="cls-257" x="503.46" y="59.03" width="0.24" height="224.28"/><rect class="cls-258" x="503.7" y="59.03" width="0.24" height="224.28"/><rect class="cls-259" x="503.94" y="59.03" width="0.24" height="224.28"/><rect class="cls-260" x="504.18" y="59.03" width="0.24" height="224.28"/><rect class="cls-261" x="504.42" y="59.03" width="0.24" height="224.28"/><rect class="cls-262" x="504.66" y="59.03" width="0.24" height="224.28"/><rect class="cls-263" x="504.9" y="59.03" width="0.24" height="224.28"/><rect class="cls-264" x="505.14" y="59.03" width="0.24" height="224.28"/><rect class="cls-265" x="505.38" y="59.03" width="0.24" height="224.28"/><rect class="cls-266" x="505.62" y="59.03" width="0.24" height="224.28"/><rect class="cls-267" x="505.86" y="59.03" width="0.24" height="224.28"/><rect class="cls-268" x="506.1" y="59.03" width="0.24" height="224.28"/><rect class="cls-269" x="506.34" y="59.03" width="0.24" height="224.28"/><rect class="cls-270" x="506.58" y="59.03" width="0.24" height="224.28"/><rect class="cls-271" x="506.82" y="59.03" width="0.24" height="224.28"/><rect class="cls-272" x="507.06" y="59.03" width="0.24" height="224.28"/><rect class="cls-273" x="507.3" y="59.03" width="0.24" height="224.28"/><rect class="cls-274" x="507.54" y="59.03" width="0.24" height="224.28"/><rect class="cls-275" x="507.78" y="59.03" width="0.24" height="224.28"/><rect class="cls-276" x="508.02" y="59.03" width="0.24" height="224.28"/><rect class="cls-277" x="508.26" y="59.03" width="0.24" height="224.28"/><rect class="cls-278" x="508.5" y="59.03" width="0.24" height="224.28"/><rect class="cls-279" x="508.74" y="59.03" width="0.24" height="224.28"/><rect class="cls-280" x="508.98" y="59.03" width="0.24" height="224.28"/><rect class="cls-281" x="509.22" y="59.03" width="0.24" height="224.28"/><rect class="cls-282" x="509.46" y="59.03" width="0.24" height="224.28"/><rect class="cls-283" x="509.7" y="59.03" width="0.24" height="224.28"/><rect class="cls-284" x="509.94" y="59.03" width="0.24" height="224.28"/><rect class="cls-285" x="510.18" y="59.03" width="0.24" height="224.28"/><rect class="cls-286" x="510.42" y="59.03" width="0.24" height="224.28"/><rect class="cls-287" x="510.66" y="59.03" width="0.24" height="224.28"/><rect class="cls-288" x="510.9" y="59.03" width="0.24" height="224.28"/><rect class="cls-289" x="511.14" y="59.03" width="0.24" height="224.28"/><rect class="cls-290" x="511.38" y="59.03" width="0.24" height="224.28"/><rect class="cls-291" x="511.62" y="59.03" width="0.24" height="224.28"/><rect class="cls-292" x="511.86" y="59.03" width="0.24" height="224.28"/><rect class="cls-293" x="512.1" y="59.03" width="0.24" height="224.28"/><rect class="cls-294" x="512.34" y="59.03" width="0.24" height="224.28"/><rect class="cls-295" x="512.58" y="59.03" width="0.24" height="224.28"/><rect class="cls-296" x="512.82" y="59.03" width="0.24" height="224.28"/><rect class="cls-297" x="513.06" y="59.03" width="0.24" height="224.28"/><rect class="cls-298" x="513.3" y="59.03" width="0.24" height="224.28"/><rect class="cls-299" x="513.54" y="59.03" width="0.24" height="224.28"/><rect class="cls-300" x="513.78" y="59.03" width="0.24" height="224.28"/><rect class="cls-301" x="514.02" y="59.03" width="0.24" height="224.28"/><rect class="cls-302" x="514.26" y="59.03" width="0.24" height="224.28"/><rect class="cls-303" x="514.5" y="59.03" width="0.24" height="224.28"/><rect class="cls-304" x="514.74" y="59.03" width="0.24" height="224.28"/><rect class="cls-305" x="514.98" y="59.03" width="0.24" height="224.28"/><rect class="cls-306" x="515.22" y="59.03" width="0.24" height="224.28"/><rect class="cls-307" x="515.46" y="59.03" width="0.24" height="224.28"/><rect class="cls-308" x="515.7" y="59.03" width="0.24" height="224.28"/><rect class="cls-309" x="515.94" y="59.03" width="0.24" height="224.28"/><rect class="cls-310" x="516.18" y="59.03" width="0.24" height="224.28"/><rect class="cls-311" x="516.42" y="59.03" width="0.24" height="224.28"/><rect class="cls-312" x="516.66" y="59.03" width="0.24" height="224.28"/><rect class="cls-313" x="516.9" y="59.03" width="0.24" height="224.28"/><rect class="cls-314" x="517.14" y="59.03" width="0.24" height="224.28"/><rect class="cls-315" x="517.38" y="59.03" width="0.24" height="224.28"/><rect class="cls-316" x="517.62" y="59.03" width="0.24" height="224.28"/><rect class="cls-317" x="517.86" y="59.03" width="0.24" height="224.28"/><rect class="cls-318" x="518.1" y="59.03" width="0.24" height="224.28"/><rect class="cls-319" x="518.34" y="59.03" width="0.24" height="224.28"/><rect class="cls-320" x="518.58" y="59.03" width="0.24" height="224.28"/><rect class="cls-321" x="518.82" y="59.03" width="0.24" height="224.28"/><rect class="cls-322" x="519.06" y="59.03" width="0.24" height="224.28"/><rect class="cls-323" x="519.3" y="59.03" width="0.24" height="224.28"/><rect class="cls-324" x="519.54" y="59.03" width="0.24" height="224.28"/><rect class="cls-325" x="519.78" y="59.03" width="0.24" height="224.28"/><rect class="cls-326" x="520.02" y="59.03" width="0.24" height="224.28"/><rect class="cls-327" x="520.26" y="59.03" width="0.24" height="224.28"/><rect class="cls-328" x="520.5" y="59.03" width="0.24" height="224.28"/><rect class="cls-328" x="520.74" y="59.03" width="0.24" height="224.28"/><rect class="cls-329" x="520.98" y="59.03" width="0.24" height="224.28"/><rect class="cls-330" x="521.22" y="59.03" width="0.24" height="224.28"/><rect class="cls-331" x="521.46" y="59.03" width="0.24" height="224.28"/><rect class="cls-332" x="521.7" y="59.03" width="0.24" height="224.28"/><rect class="cls-333" x="521.94" y="59.03" width="0.24" height="224.28"/><rect class="cls-334" x="522.18" y="59.03" width="0.24" height="224.28"/><rect class="cls-335" x="522.42" y="59.03" width="0.24" height="224.28"/><rect class="cls-335" x="522.66" y="59.03" width="0.24" height="224.28"/><rect class="cls-336" x="522.9" y="59.03" width="0.24" height="224.28"/><rect class="cls-337" x="523.14" y="59.03" width="0.24" height="224.28"/><rect class="cls-338" x="523.38" y="59.03" width="0.24" height="224.28"/><rect class="cls-339" x="523.62" y="59.03" width="0.24" height="224.28"/><rect class="cls-340" x="523.86" y="59.03" width="0.24" height="224.28"/><rect class="cls-341" x="524.1" y="59.03" width="0.24" height="224.28"/><rect class="cls-341" x="524.34" y="59.03" width="0.24" height="224.28"/><rect class="cls-342" x="524.58" y="59.03" width="0.24" height="224.28"/><rect class="cls-343" x="524.82" y="59.03" width="0.24" height="224.28"/><rect class="cls-343" x="525.06" y="59.03" width="27.42" height="224.28"/></g><path class="cls-345" d="M604.54-68.67s-18.67,23.73-26.18,36.25c-15.8,26.34-33.27,62.78-33.27,62.78S528.7-4,517.28-25.28C509.42-39.88,487.73-68,487.73-68s18.71-25,29.07-43.62c14.08-25.34,31.07-60.7,28.66-58.42,0,0,13.76,32.88,29.54,59.08C583-97.71,604.54-68.67,604.54-68.67Z"/><path class="cls-345" d="M703.57,270.29a93,93,0,0,1-55.1-18.21c-46.7-34.89-87-92.2-59.87-148.37,8.29-17.2,22-29.07,38.65-33.41,14.89-3.91,31-1.16,43.12,7.31A3.86,3.86,0,0,1,666,83.93c-10.27-7.18-24-9.47-36.75-6.16-14.4,3.77-26.35,14.17-33.64,29.29-25,51.95,13.29,105.78,57.53,138.84A85.16,85.16,0,0,0,710,262.32c27.45-2.18,52.49-20.81,62.31-46.38,4.7-12.23,2.67-28.17-5.57-43.72a3.87,3.87,0,0,1,6.83-3.62c9.28,17.53,11.45,35.79,6,50.11C768.68,247,741,267.61,710.63,270,708.22,270.2,705.89,270.29,703.57,270.29Z"/><path class="cls-345" d="M390.71,271.79q-3.48,0-7-.27c-30.35-2.4-58-23-68.91-51.3-5.5-14.31-3.33-32.57,6-50.11a3.87,3.87,0,0,1,6.83,3.62c-8.12,15.33-10.2,31.67-5.57,43.72,9.82,25.57,34.86,44.2,62.31,46.37a85.22,85.22,0,0,0,56.83-16.41c44.23-33,82.58-86.89,57.53-138.85-7.29-15.12-19.24-25.51-33.64-29.28-12.76-3.32-26.49-1-36.75,6.16a3.86,3.86,0,1,1-4.7-6.12,2.83,2.83,0,0,1,.28-.2A52,52,0,0,1,467,71.81c16.64,4.34,30.36,16.2,38.66,33.41,27.09,56.18-13.17,113.48-59.87,148.37A93,93,0,0,1,390.71,271.79Z"/><path class="cls-345" d="M224.16,27.27a163.14,163.14,0,0,1-61.52-11.51C131.05,3,83.43-37.54,66.5-66a3.84,3.84,0,0,1,.36-4.46C87.59-95,96.8-105.15,118.74-122.07c22.87-17.61,40.26-25.36,60.9-32.15,39.42-12.95,85.46-10.51,129.62,6.88,36.63,14.41,71.88,38.45,107.77,73.47a3.86,3.86,0,0,1,.61,4.75c-19,31.56-68.32,61.8-96.85,74.43C299,14.94,263.47,27.27,224.16,27.27ZM74.57-67.64c17.17,26.76,62,64.51,91,76.23C224.05,32.29,286,12.28,317.67-1.75c26.84-11.88,72.58-39.67,91.73-68.76-34.37-33.12-68.08-55.91-103-69.65-42.49-16.72-86.66-19.12-124.37-6.73-19.88,6.54-36.61,14-58.61,30.94C102.75-100,93.65-90.2,74.57-67.64Z"/><path class="cls-345" d="M227,13a138.07,138.07,0,0,1-52.1-9.8c-26.71-10.81-67-45.07-81.31-69.2A3.86,3.86,0,0,1,94-70.43c17.5-20.74,25.28-29.26,43.81-43.55,19.34-14.91,34.05-21.46,51.51-27.19,33.36-11,72.31-8.91,109.65,5.81,30.93,12.17,60.7,32.46,91,62a3.86,3.86,0,0,1,.61,4.75c-16.06,26.71-57.77,52.29-81.89,63C290.27,2.54,260.22,13,227,13ZM101.67-67.59c14.58,22.44,52,53.85,76.13,63.63,49.11,19.89,101.1,3.08,127.73-8.7C328-22.6,366.08-45.72,382.29-70c-28.78-27.67-57-46.72-86.2-58.21-35.68-14-72.76-16-104.4-5.66-16.7,5.48-30.75,11.74-49.21,26C125.19-94.54,117.52-86.32,101.67-67.59Z"/><path class="cls-345" d="M864.87,27.27c-39.32,0-74.87-12.33-96.63-22-35.11-15.54-74.07-36.53-96.86-74.43a3.86,3.86,0,0,1,.62-4.75c35.89-35,71.14-59.06,107.77-73.47,44.16-17.39,90.19-19.82,129.61-6.88,20.65,6.79,38,14.54,60.91,32.15,21.93,16.91,31.14,27,51.88,51.59a3.86,3.86,0,0,1,.36,4.46C1005.6-37.54,958,3,926.39,15.76A163.14,163.14,0,0,1,864.87,27.27ZM679.61-70.5c17.36,27.39,45,48.07,91.75,68.75,31.7,14,93.6,34,152.13,10.34,29-11.72,73.8-49.47,91-76.23C995.4-90.21,986.29-100,965.6-115.95c-22-17-38.72-24.4-58.6-30.94-37.72-12.39-81.89-10-124.38,6.73C747.69-126.42,714-103.62,679.61-70.5Z"/><path class="cls-345" d="M862,13c-33.2,0-63.24-10.46-81.63-18.61-36-15.94-63.73-32.75-81.9-63a3.86,3.86,0,0,1,.62-4.75c30.31-29.58,60.09-49.87,91-62,37.34-14.72,76.28-16.77,109.64-5.81,17.46,5.73,32.17,12.28,51.51,27.19,18.53,14.28,26.3,22.81,43.81,43.55a3.87,3.87,0,0,1,.37,4.47c-14.3,24.09-54.58,58.35-81.3,69.16A138,138,0,0,1,862,13ZM706.71-69.95c17.15,27,42.22,42,76.79,57.29C810.13-.88,862.11,15.93,911.23-4c24.18-9.78,61.55-41.19,76.13-63.63-15.86-18.74-23.53-27-40.81-40.27-18.47-14.24-32.52-20.5-49.21-26-31.64-10.38-68.73-8.39-104.4,5.66C763.73-116.69,735.5-97.62,706.71-69.95Z"/><path class="cls-345" d="M144.79,146.87c-16.89,0-30.93-3-47.81-12.84C66.63,116.26,44.69,86.57,35.21,50.45,28.35,24.29,29.57-4,38.48-25.24a3.87,3.87,0,0,1,5.06-2.07,3.84,3.84,0,0,1,2.06,5c-8.15,19.43-9.27,46.54-2.92,70.74,9,34.14,29.63,62.15,58.2,78.88,19.41,11.37,34.92,12.75,56.77,11.31,8-.54,25-7.23,35.89-19.93C200.69,110.35,203.87,101,203,91a3.87,3.87,0,0,1,3.51-4.18,3.93,3.93,0,0,1,4.18,3.5c1.06,12-2.83,23.56-11.27,33.4-12.44,14.53-31.61,22-41.24,22.6Q151.11,146.86,144.79,146.87Z"/><path class="cls-345" d="M945.5,146.87c-4.25,0-8.67-.19-13.37-.5-9.63-.64-28.8-8.07-41.25-22.6-8.43-9.84-12.32-21.39-11.26-33.4a3.92,3.92,0,0,1,4.18-3.5,3.87,3.87,0,0,1,3.51,4.18c-.89,10,2.29,19.35,9.44,27.69,10.87,12.7,27.84,19.39,35.89,19.93,21.83,1.45,37.37.06,56.77-11.31,28.57-16.73,49.24-44.74,58.2-78.88,6.35-24.21,5.23-51.31-2.92-70.74a3.84,3.84,0,0,1,2.06-5,3.89,3.89,0,0,1,5.06,2.07c8.91,21.22,10.13,49.52,3.26,75.69-9.47,36.12-31.41,65.81-61.76,83.58C976.43,143.92,962.39,146.87,945.5,146.87Z"/></g></g></svg>