<svg id="Capa_1" data-name="Capa 1" xmlns="http://www.w3.org/2000/svg" xmlns:xlink="http://www.w3.org/1999/xlink" viewBox="0 0 541.4 466"><defs><style>.cls-1{fill:none;}.cls-2{fill:#6e4644;}.cls-3{opacity:0.6;}.cls-4{clip-path:url(#clip-path);}.cls-5{fill:#8e5928;}.cls-6{fill:url(#Degradado_sin_nombre);}.cls-7{fill:url(#Degradado_sin_nombre_2);}.cls-8{fill:url(#Degradado_sin_nombre_3);}.cls-9{fill:url(#Degradado_sin_nombre_4);}.cls-10{fill:#633510;}.cls-11{fill:#672f25;}</style><clipPath id="clip-path"><rect class="cls-1" width="539.5" height="466"/></clipPath><linearGradient id="Degradado_sin_nombre" x1="13.48" y1="406.79" x2="164.13" y2="406.79" gradientTransform="matrix(1, 0, 0, -1, 90.66, 471.57)" gradientUnits="userSpaceOnUse"><stop offset="0.01" stop-color="#c8951c"/><stop offset="0.23" stop-color="#e6c86e"/><stop offset="0.43" stop-color="#d5aa41"/><stop offset="0.49" stop-color="#dcb552"/><stop offset="0.6" stop-color="#eacd76"/><stop offset="0.87" stop-color="#fdce1e"/><stop offset="1" stop-color="#f8e7a5"/></linearGradient><linearGradient id="Degradado_sin_nombre_2" x1="5142.14" y1="407.8" x2="5292.78" y2="407.8" gradientTransform="translate(5577.22 471.57) rotate(180)" xlink:href="#Degradado_sin_nombre"/><linearGradient id="Degradado_sin_nombre_3" x1="5133.64" y1="2434" x2="5284.37" y2="2434" gradientTransform="matrix(-1, 0, 0, 1, 5569.69, -2056.49)" xlink:href="#Degradado_sin_nombre"/><linearGradient id="Degradado_sin_nombre_4" x1="21.92" y1="2435.02" x2="172.61" y2="2435.02" gradientTransform="translate(83.13 -2056.49)" xlink:href="#Degradado_sin_nombre"/></defs><rect class="cls-2" x="1.9" y="-0.9" width="539.5" height="467.64"/><g class="cls-3"><g class="cls-4"><path class="cls-5" d="M375.56,471.8a68.15,68.15,0,0,1-6.85-.34c-13.08-1.28-26.51-6-39.93-14a134.3,134.3,0,0,1-45.15-45A138.06,138.06,0,0,1,270,383.27c-.2-.63-.41-1.26-.6-1.89-.2.63-.4,1.26-.61,1.89a137.77,137.77,0,0,1-13.6,29.23,134,134,0,0,1-45.15,45c-13.41,8-26.85,12.71-39.93,14-32.12,3.16-65.25-16.3-78.63-46.23-5.31-11.86-7.33-24-5.85-35.13,3.33-25,17.93-42.43,39.06-46.68,16.6-3.33,33.18,2.77,40.28,14.85,3.92,6.67,5.09,12.84,3.49,18.36a17,17,0,0,1-7.9,9.95c-.51.29-6.41,3.41-11.78.45-3.66-2-5.67-6-6-11.78a5.17,5.17,0,0,1,4.91-5.42h0a5.27,5.27,0,0,1,5.44,4.89c.13,2.63.74,3.35.75,3.36a8.28,8.28,0,0,0,1.76-.59,6.64,6.64,0,0,0,2.89-3.86c.7-2.64-.17-6.14-2.52-10.14-4.82-8.21-17.15-12.4-29.3-9.95-8,1.6-26.92,8.5-30.84,37.92-1.23,9.23.52,19.46,5,29.57,11.63,26,40.34,42.85,68.17,40.17,11.55-1.14,23.53-5.37,35.63-12.58a124,124,0,0,0,41.64-41.51A128.42,128.42,0,0,0,259,380.06a124.53,124.53,0,0,0,3.81-14.46c.32-1.58,1.18-8.38,1.64-12.3a5.26,5.26,0,0,1,5.21-4.54,5.17,5.17,0,0,1,5.09,4.69c.38,4.17,1,10.7,1.33,12.14a124.16,124.16,0,0,0,3.81,14.47,128.71,128.71,0,0,0,12.59,27.05,123.93,123.93,0,0,0,41.64,41.51c12.09,7.21,24.08,11.44,35.62,12.58,27.92,2.67,56.54-14.17,68.17-40.17,4.52-10.12,6.27-20.35,5-29.57C439,362,420.06,355.14,412.1,353.54c-12.16-2.44-24.48,1.74-29.31,9.94-2.39,4.08-3.25,7.63-2.48,10.28a6.73,6.73,0,0,0,2.71,3.66,4.62,4.62,0,0,0,2.06.55,10,10,0,0,0,.6-3.25,5.22,5.22,0,0,1,5.44-4.89,5.16,5.16,0,0,1,4.9,5.41h0c-.3,5.79-2.31,9.76-6,11.78-5.35,3-11.26-.17-11.92-.52a17,17,0,0,1-7.76-9.88c-1.6-5.52-.42-11.69,3.49-18.36,7.1-12.07,23.67-18.18,40.29-14.85,21.13,4.25,35.73,21.7,39.06,46.68,1.48,11.12-.55,23.26-5.86,35.13C434.91,453,405.48,471.8,375.56,471.8Z"/><path class="cls-5" d="M.66,377.69a87.44,87.44,0,0,1-17-1.7c-39.67-8-67.11-41-73.41-88.27-2.81-21.12,1.06-44.26,11.21-66.94,25.66-57.42,89-94.73,150.78-88.69,25.18,2.45,51.11,11.55,77.07,27,35.14,21,65.51,51.22,87.82,87.48a269.62,269.62,0,0,1,26.47,56.9c2.32,7.07,4.34,14.22,6,21.36,1.7-7.15,3.72-14.3,6-21.36a270.08,270.08,0,0,1,26.46-56.9c22.31-36.26,52.68-66.51,87.82-87.48,26-15.49,51.9-24.59,77.07-27,61.75-6,125.11,31.27,150.79,88.69,10.14,22.68,14,45.83,11.2,66.94C622.7,335,595.26,368,555.59,376c-30.85,6.16-61.49-4.92-74.49-27-7-12-9.2-22.89-6.43-32.43a28.62,28.62,0,0,1,13.11-16.64c.92-.51,10.37-5.5,18.56-1,5.64,3.1,8.75,9.55,9.25,19.18a5.18,5.18,0,0,1-10.34.54c-.3-5.65-1.68-9.44-3.9-10.68-2.74-1.53-7.3.27-8.69,1a18,18,0,0,0-8.09,10.57c-1.87,6.68,0,14.83,5.47,24.19,10.63,18.08,37.37,27.39,63.51,22.13,35.13-7.06,59.5-36.78,65.19-79.51,2.56-19.22-1-40.44-10.39-61.38C584.43,171.5,525.41,136.76,468,142.36c-23.65,2.3-48.13,10.92-72.77,25.63-33.72,20.11-62.87,49.16-84.31,84a258.89,258.89,0,0,0-25.45,54.73A250.62,250.62,0,0,0,277.78,336c-.72,3.7-2.63,19.14-3.3,24.79a5.19,5.19,0,0,1-5.15,4.55h-.07a5.18,5.18,0,0,1-5.08-4.7c-.52-5.61-2-21-2.73-24.64a250.22,250.22,0,0,0-7.71-29.25A259.08,259.08,0,0,0,228.28,252c-21.44-34.85-50.59-63.9-84.31-84-24.63-14.71-49.11-23.33-72.76-25.63C13.94,136.73-45.2,171.49-69.11,225c-9.36,20.93-13,42.16-10.4,61.38,5.69,42.73,30.07,72.46,65.2,79.51,26.15,5.26,52.87-4.05,63.5-22.13,5.5-9.36,7.34-17.5,5.47-24.19a18,18,0,0,0-8-10.53c-1.46-.79-6-2.58-8.76-1.06-2.21,1.24-3.6,5-3.89,10.68a5.23,5.23,0,0,1-5.44,4.88,5.17,5.17,0,0,1-4.91-5.42h0c.51-9.63,3.62-16.08,9.25-19.18,8.2-4.53,17.64.45,18.69,1a28.61,28.61,0,0,1,13,16.57c2.77,9.54.61,20.46-6.43,32.43C47.54,367,25.25,377.68.66,377.69Z"/><path class="cls-5" d="M480.15,305.09q-6.57,0-13.14-.64c-25.17-2.45-51.11-11.56-77.07-27.05-35.14-21-65.51-51.21-87.82-87.47A269.32,269.32,0,0,1,275.66,133c-2.32-7-4.34-14.21-6-21.37-1.7,7.16-3.72,14.31-6,21.37a269.62,269.62,0,0,1-26.47,56.9c-22.31,36.26-52.68,66.51-87.82,87.47-26,15.49-51.89,24.6-77.07,27.05C10.5,310.5-52.89,273.18-78.56,215.76c-10.15-22.67-14-45.82-11.21-66.94,6.3-47.3,33.74-80.29,73.41-88.26,30.86-6.19,61.5,4.91,74.49,27,7,12,9.2,22.89,6.43,32.43a28.59,28.59,0,0,1-13.11,16.64c-.92.51-10.36,5.49-18.56,1-5.63-3.11-8.74-9.56-9.25-19.19A5.19,5.19,0,0,1,34,117.91c.29,5.64,1.67,9.44,3.89,10.68,2.72,1.52,7.3-.28,8.69-1A18,18,0,0,0,54.66,117c1.87-6.69,0-14.83-5.47-24.19C38.57,74.72,11.85,65.4-14.31,70.67c-35.13,7.06-59.51,36.78-65.2,79.51-2.56,19.23,1,40.45,10.4,61.38,23.91,53.49,83,88.26,140.32,82.63,23.65-2.32,48.13-10.94,72.76-25.64,33.72-20.11,62.87-49.16,84.31-84a259.42,259.42,0,0,0,25.46-54.73,248.22,248.22,0,0,0,7.7-29.25c.74-3.7,2.65-19.14,3.32-24.79A5.23,5.23,0,0,1,270,71.22a5.18,5.18,0,0,1,5.09,4.69c.51,5.63,2,21,2.73,24.65a247.75,247.75,0,0,0,7.71,29.25A259.46,259.46,0,0,0,311,184.54c21.44,34.85,50.59,63.9,84.31,84,24.64,14.7,49.12,23.32,72.77,25.64,57.31,5.6,116.4-29.14,140.32-82.63,9.36-20.93,13-42.16,10.39-61.38-5.69-42.73-30.06-72.45-65.19-79.51-26.16-5.27-52.89,4-63.51,22.13-5.5,9.36-7.34,17.5-5.47,24.19a18,18,0,0,0,8,10.53c1.46.79,6,2.58,8.76,1.07,2.22-1.24,3.6-5,3.9-10.68a5.1,5.1,0,0,1,5.29-4.9h.15a5.17,5.17,0,0,1,4.9,5.42c-.5,9.62-3.61,16.08-9.25,19.19-8.21,4.51-17.65-.46-18.69-1a28.64,28.64,0,0,1-13-16.57c-2.77-9.54-.6-20.46,6.43-32.43,13-22.13,43.67-33.23,74.49-27,39.67,8,67.11,41,73.41,88.26,2.82,21.12-1.06,44.27-11.2,66.94C594,269.11,537.51,305.09,480.15,305.09Z"/><path class="cls-5" d="M354.1,368.74c-9,0-17.21-4-21.18-10.78-2.72-4.64-3.52-9-2.36-13a12.3,12.3,0,0,1,5.9-7.39c.68-.39,5-2.56,9.18-.27,2,1.11,4.45,3.56,4.74,9a5.17,5.17,0,0,1-4.91,5.42h0a5.29,5.29,0,0,1-5-3,8.79,8.79,0,0,0,1.38,4.09c2.59,4.42,9.41,6.66,16.21,5.28,4.56-.92,15.4-4.9,17.68-22a32.5,32.5,0,0,0-3-17.4c-6.92-15.47-24-25.49-40.53-23.9-6.9.68-14.11,3.23-21.4,7.58A75.31,75.31,0,0,0,285.5,327.6a77.45,77.45,0,0,0-7.64,16.4,74.16,74.16,0,0,0-2.32,8.78c-.27,1.41-1,7.52-1,7.52a5.18,5.18,0,0,1-5.14,4.56h-.07a5.17,5.17,0,0,1-5.09-4.69c-.27-3-.66-6.66-.81-7.39a74.12,74.12,0,0,0-2.31-8.78,78.72,78.72,0,0,0-7.66-16.46,75.22,75.22,0,0,0-25.31-25.23c-7.29-4.35-14.49-6.9-21.4-7.58-16.59-1.64-33.61,8.44-40.53,23.9a32.6,32.6,0,0,0-3,17.4c2.28,17.11,13.13,21.08,17.68,22,6.82,1.38,13.61-.86,16.2-5.28a9.26,9.26,0,0,0,1.45-4.23,5.18,5.18,0,0,1-10-2.23c.28-5.39,2.73-7.84,4.73-9,4.17-2.28,8.5-.12,9.33.34a12.33,12.33,0,0,1,5.76,7.32c1.15,4,.35,8.32-2.37,13-4.83,8.24-16,12.41-27.18,10.18-14-2.81-23.72-14.31-25.91-30.75a42.78,42.78,0,0,1,3.81-23c8.67-19.4,30.11-32.05,51-30,8.44.83,17.09,3.85,25.71,9a85.62,85.62,0,0,1,28.82,28.7,89,89,0,0,1,7.19,14.51,88.28,88.28,0,0,1,7.2-14.51,85.68,85.68,0,0,1,28.81-28.7c8.62-5.14,17.27-8.16,25.71-9,20.9-2.06,42.33,10.57,51,30a42.77,42.77,0,0,1,3.8,23c-2.19,16.43-11.87,27.93-25.9,30.75A30.59,30.59,0,0,1,354.1,368.74Z"/><path class="cls-5" d="M405,101c-13.3,0-25.42-5.88-31.22-15.75-3.92-6.67-5.09-12.85-3.49-18.36a16.82,16.82,0,0,1,7.89-10c.52-.3,6.42-3.41,11.79-.45,3.66,2,5.67,6,6,11.78a5.18,5.18,0,0,1-10.35.53c-.13-2.63-.74-3.35-.75-3.36A8.19,8.19,0,0,0,383,66a6.58,6.58,0,0,0-2.83,3.84c-.71,2.63.17,6.14,2.52,10.15,4.82,8.2,17.16,12.39,29.3,9.94,8-1.6,26.92-8.5,30.84-37.92,1.22-9.22-.52-19.44-5.05-29.58-11.62-26-40.31-42.85-68.16-40.16C358.06-16.6,346.07-12.37,334-5.15a124,124,0,0,0-41.64,41.5,128.52,128.52,0,0,0-12.58,27.06A121.89,121.89,0,0,0,276,77.86c-.32,1.59-1.18,8.39-1.64,12.31a5.12,5.12,0,0,1-5.21,4.55A5.18,5.18,0,0,1,264,90c-.38-4.18-1.05-10.72-1.34-12.17a121.89,121.89,0,0,0-3.81-14.45,128.52,128.52,0,0,0-12.58-27.06,124,124,0,0,0-41.64-41.5C192.54-12.37,180.55-16.6,169-17.73c-27.86-2.72-56.54,14.17-68.17,40.16-4.52,10.13-6.27,20.36-5,29.58,3.92,29.42,22.87,36.32,30.84,37.92C138.8,92.38,151.15,88.19,156,80c2.35-4,3.22-7.52,2.52-10.15A6.64,6.64,0,0,0,155.62,66a4.78,4.78,0,0,0-2-.51,10.11,10.11,0,0,0-.6,3.26,5.18,5.18,0,0,1-10.34-.53c.3-5.8,2.31-9.76,6-11.78,5.35-3,11.26.16,11.92.52a16.88,16.88,0,0,1,7.76,9.88c1.6,5.51.42,11.69-3.49,18.36-7.11,12.08-23.68,18.18-40.29,14.85-21.13-4.25-35.73-21.7-39.06-46.68C84,42.25,86.07,30.1,91.38,18.23,104.77-11.69,137.78-31.12,170-28c13.07,1.27,26.51,6,39.93,14A134.45,134.45,0,0,1,255.1,31a138.22,138.22,0,0,1,13.59,29.23c.21.63.41,1.27.61,1.9.2-.63.4-1.27.61-1.9A138.26,138.26,0,0,1,283.51,31a134.39,134.39,0,0,1,45.15-45c13.41-8,26.85-12.71,39.93-14,32.23-3.12,65.25,16.29,78.63,46.22,5.3,11.88,7.33,24,5.85,35.14-3.33,25-17.93,42.43-39.06,46.68A45.42,45.42,0,0,1,405,101Z"/><path class="cls-5" d="M335.41,159.22A43.41,43.41,0,0,1,331,159c-8.44-.82-17.09-3.85-25.71-9a85.59,85.59,0,0,1-28.82-28.69,89,89,0,0,1-7.19-14.51,88.28,88.28,0,0,1-7.2,14.51A85.68,85.68,0,0,1,233.23,150c-8.62,5.14-17.28,8.17-25.71,9-20.9,2.08-42.33-10.56-51-30a42.77,42.77,0,0,1-3.8-23c2.19-16.44,11.87-27.93,25.9-30.75C189.79,73,201,77.19,205.8,85.43c2.72,4.64,3.52,9,2.37,13a12.39,12.39,0,0,1-5.9,7.4c-.68.38-5,2.55-9.18.25-2-1.1-4.45-3.55-4.74-8.94a5.17,5.17,0,0,1,4.9-5.42,5.07,5.07,0,0,1,5,3.06,8.84,8.84,0,0,0-1.39-4.1c-2.59-4.42-9.44-6.65-16.2-5.27-4.56.91-15.4,4.88-17.68,22a32.58,32.58,0,0,0,3,17.39c6.91,15.47,24,25.54,40.54,23.91,6.9-.68,14.1-3.23,21.4-7.58a75.31,75.31,0,0,0,25.31-25.23,78,78,0,0,0,7.65-16.46,76.14,76.14,0,0,0,2.32-8.78c.27-1.41,1-7.51,1-7.53a5.18,5.18,0,0,1,5.14-4.55h.08a5.17,5.17,0,0,1,5.08,4.69c.27,3,.66,6.65.81,7.39a74.12,74.12,0,0,0,2.31,8.78,78.72,78.72,0,0,0,7.66,16.46,75.22,75.22,0,0,0,25.31,25.23c7.29,4.35,14.49,6.9,21.4,7.58,16.58,1.62,33.61-8.44,40.53-23.91a32.58,32.58,0,0,0,3-17.39c-2.28-17.11-13.12-21.08-17.68-22-6.77-1.37-13.6.85-16.2,5.27A9.26,9.26,0,0,0,340.16,95a5.18,5.18,0,0,1,10,2.23c-.28,5.39-2.73,7.84-4.73,8.94-4.16,2.3-8.5.13-9.33-.33a12.26,12.26,0,0,1-5.76-7.32c-1.15-4-.35-8.32,2.37-13,4.84-8.23,16-12.42,27.19-10.18,14,2.82,23.71,14.31,25.9,30.75A42.73,42.73,0,0,1,382,129C373.9,147.06,354.81,159.22,335.41,159.22Z"/><path class="cls-6" d="M206.78,139.7h-1.33c-15-.43-28.2-8.08-32.73-19-4-9.63-.81-20.5,8.89-30.62a1.31,1.31,0,0,1,1.83,0,1.28,1.28,0,0,1,0,1.82h0c-8.95,9.34-11.92,19.23-8.36,27.85,4.14,10,16.36,17.06,30.4,17.46h1.25c16.69,0,31.2-9.55,39-25.75C270,60.94,219.2,17.54,203,5.44A66.14,66.14,0,0,0,158.78-7.37,58,58,0,0,0,110.07,29c-4.65,12.13-4.38,24.65.74,34.34,4.27,8.1,14.9,20.75,38,14.61a1.3,1.3,0,0,1,1.58.92,1.26,1.26,0,0,1-.88,1.56h0c-25.8,6.85-37.27-8.83-41-15.9-5.46-10.34-5.78-23.63-.86-36.45,8-21,28.49-36.22,50.93-38a68.73,68.73,0,0,1,46,13.31c16.56,12.4,68.63,56.91,43.51,109.12C239.86,129.61,224.49,139.7,206.78,139.7Z"/><path class="cls-7" d="M332.49,138.69c-17.71,0-33.08-10.09-41.32-27.21C266.05,59.27,318.12,14.77,334.68,2.37a68.59,68.59,0,0,1,46-13.32c22.42,1.77,42.89,17,50.92,38,4.92,12.83,4.6,26.11-.86,36.45-3.73,7.07-15.2,22.76-41,15.9a1.27,1.27,0,0,1-.92-1.54v0a1.29,1.29,0,0,1,1.58-.91c23.1,6.13,33.75-6.52,38-14.61,5.12-9.69,5.39-22.21.75-34.34A58,58,0,0,0,380.49-8.38,66,66,0,0,0,336.24,4.43c-16.16,12.1-67,55.49-42.73,105.93,8,16.61,22.94,26.32,40.24,25.73,14-.4,26.26-7.41,30.4-17.45,3.56-8.62.59-18.52-8.36-27.86a1.28,1.28,0,0,1,0-1.8l0,0a1.3,1.3,0,0,1,1.83,0c9.7,10.12,12.86,21,8.89,30.62-4.53,11-17.68,18.62-32.73,19Z"/><path class="cls-8" d="M376.42,452.43a68.78,68.78,0,0,1-40.86-13.52C319,426.51,266.93,382,292.05,329.79c8.24-17.11,23.61-27.2,41.32-27.2h1.33c15.05.42,28.2,8.08,32.73,19,4,9.63.81,20.51-8.89,30.63a1.28,1.28,0,0,1-1.82,0h0a1.28,1.28,0,0,1,0-1.8l0,0c9-9.34,11.92-19.24,8.36-27.86-4.14-10-16.36-17.06-30.4-17.45-17.11-.54-32.26,9.12-40.24,25.72-24.27,50.43,26.57,93.84,42.72,105.94a66,66,0,0,0,44.26,12.81,58,58,0,0,0,48.72-36.34c4.64-12.13,4.37-24.65-.75-34.34-4.27-8.1-14.89-20.74-38-14.61a1.29,1.29,0,1,1-.8-2.45l.14,0c25.82-6.87,37.25,8.84,41,15.9,5.46,10.34,5.78,23.63.86,36.46-8,20.94-28.49,36.22-50.92,38A42.69,42.69,0,0,1,376.42,452.43Z"/><path class="cls-9" d="M164.63,453.44c-1.73,0-3.46-.07-5.17-.2-22.44-1.78-42.9-17-50.93-38-4.92-12.83-4.6-26.11.86-36.46,3.73-7.06,15.21-22.74,41-15.9a1.29,1.29,0,0,1-.59,2.51l-.08,0c-23.14-6.15-33.76,6.52-38,14.61-5.12,9.69-5.39,22.2-.75,34.34,7.69,20,27.27,34.63,48.72,36.34A65.9,65.9,0,0,0,204,437.84c16.16-12.09,67-55.49,42.72-105.93-7.79-16.2-22.3-25.74-39-25.74h-1.25c-14,.4-26.26,7.41-30.4,17.45-3.56,8.62-.59,18.52,8.36,27.86a1.28,1.28,0,0,1,0,1.8l0,0a1.3,1.3,0,0,1-1.83,0c-9.7-10.13-12.86-21-8.89-30.62,4.53-11,17.68-18.62,32.73-19.05h1.33c17.71,0,33.08,10.09,41.32,27.2,25.06,52.17-27,96.69-43.57,109.09A68.81,68.81,0,0,1,164.63,453.44Z"/><path class="cls-10" d="M309,218.28s-12.52,15.85-17.56,24.22c-10.58,17.6-22.3,41.94-22.3,41.94s-11-23-18.65-37.17c-5.26-9.76-19.81-28.54-19.81-28.54s12.55-16.7,19.49-29.14c9.44-16.93,20.84-40.56,19.22-39,0,0,9.22,22,19.8,39.47C294.55,198.88,309,218.28,309,218.28Z"/><path class="cls-11" d="M269.14,290.42l-2.33-4.87c-.11-.23-11.06-23.08-18.6-37.05-5.1-9.47-19.43-28-19.58-28.19l-1.2-1.55,1.18-1.58c.13-.16,12.52-16.7,19.29-28.84,8.29-14.85,17.15-33.08,18.84-37.42l-.43-1,2.91-2.74,1.89,1.29a1.4,1.4,0,0,1,.59,1.14h.08c.09.22,9.27,22,19.63,39.13,5.23,8.65,19.52,27.86,19.67,28.06l1.17,1.58-1.25,1.5c-.12.16-12.47,15.81-17.37,24-10.4,17.29-22.07,41.48-22.18,41.73Zm-35.22-71.71c3.62,4.74,14.38,19,18.85,27.34,5.49,10.16,12.74,24.95,16.39,32.48,4-8,12.35-24.54,20.06-37.35,4.19-7,13.23-18.72,16.53-22.94-3.58-4.84-14.25-19.41-18.78-26.89a341.34,341.34,0,0,1-17.43-34c-2.44,6-7.41,16.12-17.11,33.5-5.78,10.36-15.21,23.38-18.51,27.86Z"/><path class="cls-11" d="M206.81,132.32a34.75,34.75,0,0,1-19.8-6,2.59,2.59,0,0,1,3-4.22,30.23,30.23,0,0,0,24.65,4.11c9.65-2.51,17.66-9.46,22.54-19.56C254,71.94,228.29,36,198.63,13.89a57.12,57.12,0,0,0-38.1-11c-18.41,1.45-35.19,13.9-41.77,31-3.15,8.17-1.79,18.81,3.73,29.2a2.59,2.59,0,0,1-4.58,2.42c-6.22-11.71-7.67-23.91-4-33.48,7.28-18.9,25.85-32.67,46.2-34.27a62.13,62.13,0,0,1,41.61,12C233,33,260,71.3,241.84,108.84c-5.56,11.49-14.76,19.41-25.91,22.32A36.43,36.43,0,0,1,206.81,132.32Z"/><path class="cls-11" d="M332.62,131.34a36.71,36.71,0,0,1-9.27-1.19c-11.15-2.9-20.35-10.83-25.91-22.32C279.27,70.3,306.26,32,337.58,8.7a62.21,62.21,0,0,1,41.6-12c20.35,1.63,38.92,15.4,46.2,34.3,3.69,9.57,2.23,21.77-4,33.48a2.59,2.59,0,0,1-4.59-2.42c5.44-10.23,6.84-21.15,3.74-29.21-6.59-17.08-23.37-29.53-41.77-31a57.12,57.12,0,0,0-38.1,11c-29.66,22.07-55.36,58-38.56,92.74,4.89,10.1,12.9,17,22.56,19.57a30.3,30.3,0,0,0,24.63-4.11,2.59,2.59,0,0,1,3,4.22A34.29,34.29,0,0,1,332.62,131.34Z"/><path class="cls-11" d="M375.4,444.74a62.5,62.5,0,0,1-36.95-12.16c-31.31-23.32-58.3-61.6-40.13-99.13,5.56-11.49,14.76-19.42,25.91-22.32A35,35,0,0,1,353.14,316a2.59,2.59,0,0,1-3,4.22h0a30.22,30.22,0,0,0-24.63-4.11c-9.66,2.51-17.67,9.46-22.56,19.57-16.8,34.71,8.91,70.67,38.57,92.76a57.37,57.37,0,0,0,38.1,11c18.41-1.46,35.19-13.91,41.78-31,3.1-8.05,1.7-19-3.74-29.21a2.59,2.59,0,1,1,4.58-2.42c6.22,11.72,7.67,23.92,4,33.48C419,429.18,400.39,443,380,444.57,378.51,444.68,377,444.74,375.4,444.74Z"/><path class="cls-11" d="M165.64,445.75c-1.56,0-3.12-.06-4.67-.19-20.35-1.6-38.91-15.37-46.2-34.27-3.68-9.56-2.23-21.76,4-33.47a2.59,2.59,0,0,1,4.58,2.4c-5.52,10.4-6.88,21-3.73,29.22,6.58,17.08,23.36,29.53,41.77,31a57.21,57.21,0,0,0,38.09-11c29.67-22.09,55.38-58,38.58-92.77-4.88-10.1-12.9-17.05-22.56-19.56a30.18,30.18,0,0,0-24.63,4.11,2.59,2.59,0,1,1-3-4.22h0a35.54,35.54,0,0,1,28.91-4.88C228,315,237.15,323,242.72,334.46c18.16,37.53-8.83,75.81-40.15,99.13A62.44,62.44,0,0,1,165.64,445.75Z"/><path class="cls-11" d="M54,282.38a109.48,109.48,0,0,1-41.25-7.7c-21.17-8.54-53.1-35.6-64.46-54.63a2.58,2.58,0,0,1,.25-3c13.9-16.42,20.07-23.17,34.78-34.46,15.34-11.78,27-17,40.84-21.48,26.41-8.67,57.27-7,86.9,4.59,24.55,9.63,48.18,25.69,72.25,49.08a2.58,2.58,0,0,1,.41,3.18C171,239,137.92,259.24,118.79,267.69,104.17,274.14,80.33,282.38,54,282.38ZM-46.32,219c11.51,17.88,41.58,43.1,61,50.93,39.22,15.82,80.74,2.47,102-6.91,18-7.94,48.68-26.52,61.51-45.94-23-22.13-45.65-37.36-69-46.53C80.64,159.35,51,157.75,25.74,166a119.75,119.75,0,0,0-39.29,20.7C-27.42,197.35-33.53,203.89-46.32,219Z"/><path class="cls-11" d="M55.86,272.81a92.74,92.74,0,0,1-34.92-6.51C3,259.08-24,236.19-33.57,220.09a2.54,2.54,0,0,1,.25-3c11.73-13.87,17-19.57,29.37-29.11a105.36,105.36,0,0,1,34.53-18.16c22.35-7.33,48.47-6,73.51,3.88,20.76,8.14,40.72,21.7,61,41.45a2.59,2.59,0,0,1,.41,3.18c-10.77,17.84-38.74,34.93-54.91,42.07C98.29,265.85,78.14,272.81,55.86,272.81Zm-84-53.81c9.78,15,34.83,36,51,42.51,32.94,13.29,67.79,2.05,85.64-5.81,15-6.64,40.59-22.09,51.46-38.29-19.28-18.47-38.21-31.21-57.8-38.89-23.92-9.39-48.78-10.73-70-3.78a100.56,100.56,0,0,0-33,17.35C-12.38,201-17.52,206.48-28.15,219Z"/><path class="cls-11" d="M483.53,282.38c-26.35,0-50.19-8.24-64.77-14.67-19.14-8.44-52.22-28.65-64.95-49.73a2.59,2.59,0,0,1,.41-3.18c24.08-23.39,47.71-39.45,72.26-49.08,29.62-11.62,60.48-13.26,86.9-4.59,13.83,4.52,25.49,9.69,40.84,21.48,14.71,11.29,20.88,18,34.78,34.46a2.56,2.56,0,0,1,.24,3c-11.36,19-43.28,46.09-64.45,54.63A109.71,109.71,0,0,1,483.53,282.38ZM359.34,217.05c12.84,19.43,43.51,38,61.51,45.94,21.25,9.38,62.76,22.74,102,6.91,19.41-7.83,49.46-33,61-50.93-12.8-15.08-18.9-21.62-32.77-32.27A119.79,119.79,0,0,0,511.78,166c-25.28-8.29-54.9-6.68-83.38,4.49C405,179.69,382.39,194.92,359.34,217.05Z"/><path class="cls-11" d="M481.65,272.81c-22.29,0-42.43-7-54.76-12.39-16.17-7.14-44.14-24.23-54.91-42.07a2.57,2.57,0,0,1,.41-3.18c20.32-19.75,40.28-33.31,61-41.45,25.06-9.82,51.16-11.21,73.52-3.88A105.35,105.35,0,0,1,541.46,188c12.44,9.55,17.65,15.25,29.37,29.11a2.56,2.56,0,0,1,.25,3c-9.61,16.1-36.61,39-54.52,46.21A92.67,92.67,0,0,1,481.65,272.81Zm-104.13-55.4C388.39,233.61,414,249.06,429,255.7c17.86,7.87,52.72,19.09,85.64,5.81C530.85,255,555.9,234,565.64,219,555,206.49,549.9,201,538.3,192.09a100.56,100.56,0,0,0-33-17.35c-21.21-6.94-46.06-5.61-70,3.78C415.73,186.2,396.8,198.93,377.52,217.41Z"/><path class="cls-11" d="M606.49,190.77a2.59,2.59,0,0,1-2.59-2.57,2.66,2.66,0,0,1,.2-1c5.46-13,6.21-31.09,2-47.27-6-22.79-19.86-41.51-39-52.7-13-7.59-23.41-8.53-38-7.55C523.7,80,512.32,84.51,505,93c-4.79,5.58-6.92,11.8-6.33,18.5a2.58,2.58,0,0,1-2.34,2.8h0a2.65,2.65,0,0,1-2.8-2.34c-.72-8,1.9-15.74,7.55-22.31,8.34-9.71,21.19-14.68,27.66-15.11,15.64-1,26.84,0,41,8.25,20.35,11.88,35.06,31.72,41.41,55.84C615.78,156.1,615,175,609,189.19A2.57,2.57,0,0,1,606.49,190.77Z"/><path class="cls-11" d="M-66.71,192.19a2.6,2.6,0,0,1-2.39-1.58c-6-14.19-6.79-33.09-2.19-50.57,6.36-24.13,21.07-44,41.41-55.84,14.17-8.26,25.34-9.27,41-8.25,6.45.43,19.3,5.39,27.65,15.09,5.65,6.58,8.27,14.3,7.56,22.32a2.59,2.59,0,0,1-5.16-.45c.6-6.71-1.53-12.93-6.33-18.51-7.27-8.47-18.65-12.94-24-13.3-14.63-1-25,0-38.06,7.56-19.15,11.17-33,29.89-39,52.69-4.26,16.18-3.51,34.28,2,47.26a2.58,2.58,0,0,1-1.4,3.37l0,0A2.65,2.65,0,0,1-66.71,192.19Z"/><path class="cls-11" d="M.76,362.28c-11.33,0-20.74-2-32.06-8.58-20.35-11.87-35-31.7-41.41-55.84-4.61-17.47-3.79-36.38,2.19-50.56a2.59,2.59,0,0,1,3.39-1.38,2.58,2.58,0,0,1,1.4,3.36h0c-5.47,13-6.22,31.09-2,47.26,6,22.81,19.86,41.52,39,52.7,13,7.6,23.41,8.52,38.06,7.55,5.39-.35,16.77-4.83,24.06-13.3,4.79-5.58,6.92-11.8,6.33-18.5A2.58,2.58,0,0,1,42,322.2h0a2.63,2.63,0,0,1,2.8,2.34c.72,8-1.9,15.74-7.55,22.32C29,356.56,16.18,361.53,9.72,362,6.57,362.16,3.6,362.28.76,362.28Z"/><path class="cls-11" d="M537.6,362.28c-2.85,0-5.82-.12-9-.33-6.46-.42-19.31-5.39-27.66-15.09-5.65-6.58-8.27-14.3-7.55-22.32a2.63,2.63,0,0,1,2.8-2.34,2.57,2.57,0,0,1,2.35,2.77v0c-.59,6.7,1.54,12.92,6.33,18.5,7.29,8.47,18.67,12.95,24.07,13.3,14.63,1,25,.05,38-7.55,19.16-11.18,33-29.89,39-52.7,4.25-16.17,3.5-34.27-2-47.26a2.57,2.57,0,0,1,1.35-3.36h0a2.6,2.6,0,0,1,3.39,1.38c6,14.18,6.8,33.09,2.19,50.56-6.35,24.14-21.06,44-41.41,55.84C558.33,360.31,548.92,362.28,537.6,362.28Z"/></g></g></svg>