<svg id="Capa_1" data-name="Capa 1" xmlns="http://www.w3.org/2000/svg" xmlns:xlink="http://www.w3.org/1999/xlink" viewBox="0 0 539.37 467.87"><defs><style>.cls-1{fill:none;}.cls-2{fill:#5eb3e4;}.cls-3{opacity:0.6;}.cls-4{clip-path:url(#clip-path);}.cls-5{fill:#fef8d0;}.cls-6{fill:#0075a9;}.cls-7{fill:#ffad5f;}.cls-8{font-size:81px;fill:#fff;font-family:PTSans-NarrowBold, PT Sans Narrow;font-weight:700;letter-spacing:0.05em;}.cls-9{letter-spacing:-0.02em;}</style><clipPath id="clip-path"><rect class="cls-1" x="1.51" width="539.5" height="467.64"/></clipPath></defs><rect class="cls-2" x="-0.13" y="0.23" width="539.5" height="467.64"/><g class="cls-3"><g class="cls-4"><path class="cls-5" d="M51.88,348.63A93.48,93.48,0,0,1,3.26,335.18a1.35,1.35,0,0,1-.47-1.87,1.37,1.37,0,0,1,1.87-.47c42.49,25.34,85.93,8.15,108.05-4.35,29.89-16.89,50-28.53,77-47.53,20.7-14.58,41.38-25.8,61.45-33.35l.07.15c42.42-19.15,155.38-25,227.11,80.36a1.36,1.36,0,1,1-2.25,1.53c-71.59-105.18-184.59-98.11-225.16-78.74l-.13-.25c-19.44,7.47-39.46,18.4-59.52,32.53-27.1,19.08-47.25,30.74-77.21,47.68C100,338.83,77.43,348.63,51.88,348.63Z"/><path class="cls-5" d="M312.5,480.68c-50.29,0-103.1-31-136.93-61.36a1.36,1.36,0,1,1,1.82-2c35.41,31.76,91.77,64.29,143.8,60.34,50.89-3.86,104.69-19.23,153.42-104.87,2.8-4.92,5.49-10,8.33-15.42,12.67-24.1,25.79-49,50.28-60.33a37.27,37.27,0,0,1,30.9-.31,1.36,1.36,0,0,1,.69,1.8,1.35,1.35,0,0,1-1.79.69,35.17,35.17,0,0,0-28.59.26c-23.72,11-36.62,35.46-49.08,59.16-2.85,5.42-5.54,10.54-8.37,15.5-49.36,86.74-104,102.32-155.59,106.24C318.44,480.57,315.47,480.68,312.5,480.68Z"/><path class="cls-5" d="M373.28,485.23a1.36,1.36,0,0,1-.21-2.71c45.87-7,82.4-38.88,101.28-66.42a1.37,1.37,0,0,1,2.25,1.55c-19.21,28-56.38,60.46-103.11,67.56Z"/><path class="cls-5" d="M52.88,326.52C31.35,326.52,8.44,319-15.77,299L-28,288.93c-7.23-2.69-13.19-2.77-19.5-2.86-9.37-.13-19.07-.26-32.53-9.74-27-19-47.1-30.64-77-47.53-24.8-14-52.4-19.28-77.69-14.8a1.36,1.36,0,0,1-1.58-1.1,1.36,1.36,0,0,1,1.1-1.58c25.91-4.6,54.15.77,79.51,15.11,30,16.93,50.11,28.59,77.22,47.67,12.77,9,21.63,9.12,31,9.25,6.32.09,12.86.18,20.64,3.1l.38.23L-14,296.89C50.31,350.06,105.6,312.66,150,282.62c9.8-6.62,19.05-12.88,27.86-17.83a1.36,1.36,0,1,1,1.33,2.37c-8.71,4.9-17.91,11.13-27.66,17.72C123,304.21,90,326.52,52.88,326.52Z"/><g class="cls-3"><path class="cls-6" d="M342.56,499.29a302,302,0,0,1-43.46-3.52l-2.2-.3c-45.59-6.29-96.82-33.79-142-58.05-11.64-6.25-22.62-12.15-32.87-17.32a1.82,1.82,0,0,1,1.64-3.25c10.28,5.2,21.29,11.11,32.94,17.36,44.93,24.12,95.85,51.46,140.8,57.66l2.2.3c34.15,4.76,124.87,17.39,199.58-71.09a1.81,1.81,0,1,1,2.77,2.34C448.23,487.05,386.43,499.29,342.56,499.29Z"/></g><g class="cls-3"><path class="cls-6" d="M315.66,427.59a47.56,47.56,0,0,1-22.36-5.42c-1.27-.67-2.5-1.4-3.7-2.19a44.57,44.57,0,0,1-19.24-29,40.21,40.21,0,0,1,6.69-31.09c7.14-10,19.61-17.3,31-18.22,15.76-1.29,31,9.62,33.95,24.28a1.82,1.82,0,1,1-3.56.72c-2.94-14.47-17.87-22.36-30.1-21.38C298,346.13,286.56,352.84,280,362a36.62,36.62,0,0,0-6.06,28.31A41,41,0,0,0,291.6,417c1.1.72,2.23,1.39,3.4,2,13.54,7.17,30.44,6.61,46.35-1.53,17.88-9.15,31-26.26,33.4-43.58,3.13-22.49-9.59-52.48-33.53-61.3-37.16-13.68-61,.7-111.25,34.54-8.23,5.54-19.05,13.9-30.5,22.75-25.84,20-55.12,42.58-76,50.35a1.82,1.82,0,0,1-1.27-3.41c20.37-7.57,50.68-31,75.05-49.82,11.5-8.89,22.36-17.28,30.69-22.88,51.36-34.56,75.71-49.24,114.53-34.94,25.58,9.42,39.21,41.32,35.88,65.21-2.61,18.74-16.15,36.49-35.34,46.31A60.24,60.24,0,0,1,315.66,427.59Z"/></g><g class="cls-3"><path class="cls-6" d="M54.52,390.44c-21.07,0-50.88-8.13-68.65-24.38-9.66-8.83-14.75-19-15.13-30.29a1.82,1.82,0,0,1,1.75-1.88,1.84,1.84,0,0,1,1.88,1.76c.34,10.25,5,19.58,14,27.73,18.23,16.67,49.8,24.46,70.15,23.32,16-.89,33.27-6.1,52.77-15.93,22.39-11.29,44.7-26.62,66.27-41.45C219,300.84,261.79,271.39,307,269.54c36-1.48,67.63,9.55,86.82,30.27,19.56,21.14,28,51.09,22.46,80.14a1.82,1.82,0,1,1-3.57-.68c5.29-27.91-2.77-56.7-21.56-77-18.46-19.94-49.08-30.55-84-29.11-44.14,1.81-86.54,31-127.54,59.14-21.67,14.9-44.08,30.31-66.69,41.71-20,10.05-37.69,15.39-54.21,16.31C57.34,390.41,56,390.44,54.52,390.44Z"/></g><g class="cls-3"><path class="cls-6" d="M384.72,417.48a1.79,1.79,0,0,1-1-.32,1.82,1.82,0,0,1-.47-2.52c18.21-26.44,19.23-59.78,2.74-89.2-14.23-25.38-41.91-39.71-74-38.33C283.07,288.35,260.89,302,241.33,314l-.85.52c-16.09,9.88-31,20-45.42,29.69-24.32,16.42-47.28,31.93-74.95,46.26-16.38,8.48-41.28,18.85-66.88,20.11-17.44.85-34.11-2.63-48.12-10.07-12.49-6.64-29.17-17.46-29.75-34.7a1.82,1.82,0,0,1,1.75-1.88A1.83,1.83,0,0,1-21,365.69C-20.49,381-4.88,391.08,6.82,397.3c13.43,7.13,29.41,10.47,46.23,9.65,19.47-1,42.69-7.95,65.39-19.71,27.48-14.23,50.36-29.68,74.58-46,14.46-9.76,29.4-19.85,45.56-29.78l.84-.52c20-12.25,42.55-26.14,72.42-27.42,33.43-1.44,62.38,13.58,77.29,40.18,16.93,30.2,15.81,65.85-2.91,93A1.81,1.81,0,0,1,384.72,417.48Z"/></g><path class="cls-6" d="M314.82,446.24a64.63,64.63,0,0,1-46.62-20,57.89,57.89,0,0,1-16.31-43.07c1.53-31,15.27-47.06,26.53-55a1.82,1.82,0,0,1,2.1,3c-10.6,7.52-23.54,22.7-25,52.26a54.31,54.31,0,0,0,15.33,40.38,60.92,60.92,0,0,0,44,18.83,1.82,1.82,0,0,1,0,3.64Z"/><path class="cls-6" d="M286.1,450a2,2,0,0,1-.77-.17,73.37,73.37,0,0,1-42.15-66.21c0-17.3,7-37,17.84-50.31a1.82,1.82,0,1,1,2.81,2.3c-10.34,12.66-17,31.5-17,48a69.7,69.7,0,0,0,40.06,62.91,1.82,1.82,0,0,1-.77,3.47Z"/><path class="cls-6" d="M264.54,448a1.81,1.81,0,0,1-1.18-.43,83.09,83.09,0,0,1-29.07-63.15c0-14.2,5.62-33.83,12.8-44.7a1.82,1.82,0,1,1,3,2c-6.83,10.35-12.19,29.1-12.19,42.69a79.46,79.46,0,0,0,27.79,60.39,1.81,1.81,0,0,1-1.18,3.19Z"/><path class="cls-6" d="M243.6,439.37a1.83,1.83,0,0,1-1.48-.77,92.31,92.31,0,0,1-17.23-53.91,100.09,100.09,0,0,1,6.81-35.29,1.82,1.82,0,1,1,3.38,1.33,96.31,96.31,0,0,0-6.56,34,88.68,88.68,0,0,0,16.56,51.8,1.82,1.82,0,0,1-1.48,2.88Z"/><path class="cls-6" d="M227,430.51a1.81,1.81,0,0,1-1.64-1,102,102,0,0,1-10.22-44.79,103.23,103.23,0,0,1,3.55-26.91,1.82,1.82,0,0,1,3.51,1,99.74,99.74,0,0,0,6.43,69.17,1.82,1.82,0,0,1-.84,2.43A1.89,1.89,0,0,1,227,430.51Z"/><path class="cls-6" d="M212.7,419.1a1.81,1.81,0,0,1-1.73-1.28,112.65,112.65,0,0,1-5.06-33.48,114,114,0,0,1,1.36-17.53,1.82,1.82,0,0,1,3.59.57,110.29,110.29,0,0,0-1.32,17,109.07,109.07,0,0,0,4.9,32.4,1.81,1.81,0,0,1-1.2,2.27A1.7,1.7,0,0,1,212.7,419.1Z"/><path class="cls-6" d="M201.91,408.58a1.81,1.81,0,0,1-1.73-1.27,66.6,66.6,0,0,1-2.18-30,1.82,1.82,0,0,1,3.59.57,63.19,63.19,0,0,0,2.06,28.34,1.82,1.82,0,0,1-1.2,2.27A1.68,1.68,0,0,1,201.91,408.58Z"/><path class="cls-7" d="M315.14,434.82c-19.82,0-37-9.47-47.5-26.74-6.28-10.33-8-22.92-4.75-35.43a51.36,51.36,0,0,1,23.77-31.74c12.68-7.29,27.69-8.66,40.16-3.66,13.42,5.38,23.1,18.62,23.54,32.19.46,14.53-10.23,28.5-23.83,31.12-8,1.56-16.44-.78-21.89-6.1-5.64-5.52-8.59-15.71-3.78-23.21a1.82,1.82,0,0,1,3.05,2c-3.81,5.93-1.33,14.14,3.27,18.64s11.76,6.47,18.66,5.14c11.92-2.31,21.29-14.62,20.88-27.45-.39-12.17-9.13-24.07-21.25-28.93-11.44-4.58-25.27-3.3-37,3.44a47.66,47.66,0,0,0-22.06,29.5c-3,11.55-1.43,23.14,4.34,32.63,12.18,20,33.05,28.66,57.26,23.64,24.45-5.07,51.33-25.63,55.4-55.12,3.5-25.36-10.73-59.19-37.49-69.13-41.49-15.41-68,.77-124.1,38.84-4.44,3-9.6,6.57-15.26,10.48C175.17,376.58,127.74,409.34,99,420.12c-37.25,14-84.42,9.8-129.43-11.46a1.83,1.83,0,0,1-.87-2.42,1.84,1.84,0,0,1,2.43-.87c44.12,20.85,90.26,25,126.59,11.34,28.28-10.62,75.49-43.22,106.73-64.8,5.68-3.92,10.84-7.48,15.28-10.5,57.16-38.8,84.24-55.28,127.41-39.24,28.41,10.55,43.53,46.28,39.83,73-3.8,27.51-28.3,52-58.26,58.19A67.15,67.15,0,0,1,315.14,434.82Z"/><path class="cls-7" d="M80.69,543.92c-12.41,0-25-4.23-34.36-14.34-18.6-20.06-23.89-48.11-13.15-69.79,10.49-21.21,36-36.41,58.22-34.58,22.58,1.86,43.64,12.83,64,23.44,3.51,1.83,7,3.64,10.44,5.38,41.54,21,96.84,45.77,156.32,51.21,36.75,3.36,71.58-1.3,100.71-13.47,32.57-13.6,75.34-42.36,92.3-73.38a1.82,1.82,0,0,1,3.19,1.74c-17.38,31.79-61,61.16-94.09,75-29.67,12.39-65.11,17.14-102.44,13.72-60.09-5.49-115.81-30.44-157.63-51.57-3.46-1.75-7-3.57-10.48-5.41-20-10.44-40.78-21.24-62.63-23-20.81-1.71-44.78,12.6-54.67,32.57S31.69,508.45,49,527.11c15.46,16.67,40.48,16,57.21,6.63,17.57-9.79,24.9-27.11,19.6-46.32-3.58-13-14.6-23.54-27.43-26.3-13.15-2.83-27.76,4.25-32.52,15.79-3.19,7.74-1.76,16.9,3.49,22.29,6.89,7.06,17.26,5.31,23.32-.47a1.8,1.8,0,0,1,2.56.06,1.82,1.82,0,0,1,0,2.57c-8.36,8-20.85,8.15-28.43.38-6.23-6.4-8-17.18-4.25-26.22,5.49-13.31,21.58-21.2,36.64-18,14.12,3,26.25,14.65,30.18,28.89,6.8,24.65-6.57,42.23-21.34,50.47A56.89,56.89,0,0,1,80.69,543.92Z"/><path class="cls-7" d="M488,310.34a1.82,1.82,0,0,1-1.6-1c-16.59-30.78-60.79-62.36-94-76.45-29.06-12.35-63.85-17.21-100.63-14.08-59.51,5.08-115,29.52-156.63,50.25-3.45,1.72-6.94,3.51-10.47,5.32-20.43,10.48-41.56,21.32-64.16,23-22.2,1.69-47.64-13.66-58-34.93-10.6-21.75-5.14-49.77,13.59-69.71,16.83-17.94,43.77-17.08,61.68-7,14.72,8.32,28,26,21,50.6-4,14.22-16.21,25.75-30.34,28.7C53.4,268.31,37.32,260.32,31.92,247c-3.68-9.06-1.87-19.83,4.4-26.19,7.63-7.73,20.11-7.48,28.43.56A1.82,1.82,0,0,1,62.22,224c-6-5.82-16.37-7.64-23.31-.62-5.28,5.36-6.77,14.52-3.63,22.27,4.69,11.57,19.26,18.75,32.42,16,12.85-2.68,23.94-13.18,27.59-26.13,5.42-19.18-1.8-36.54-19.31-46.44-16.67-9.43-41.69-10.3-57.25,6.28C1.31,213.86-4,240.85,5.77,260.94s33.72,34.5,54.46,32.9C82.1,292.17,102.9,281.5,123,271.18c3.54-1.81,7-3.61,10.51-5.34,41.95-20.87,97.81-45.48,157.94-50.61,37.37-3.18,72.76,1.78,102.36,14.36,33.73,14.33,78.74,46.56,95.73,78.07a1.83,1.83,0,0,1-.74,2.46A1.78,1.78,0,0,1,488,310.34Z"/><path class="cls-7" d="M55,367.64A106.74,106.74,0,0,1,36.43,366c-22.4-4-67.83-32-68.73-58.47a1.82,1.82,0,0,1,1.76-1.88,1.81,1.81,0,0,1,1.88,1.75c.8,23.88,44,51.17,65.72,55,25.2,4.47,52.68-.77,77.4-14.74,29.87-16.89,50-28.51,76.94-47.51,114.07-80.32,189.07-32.61,209.34-16.07,16.93,13.81,28.48,37.66,29.4,60.75a1.82,1.82,0,1,1-3.63.14c-.89-22.09-11.91-44.89-28.07-58.08-19.77-16.12-93-62.61-204.94,16.23-27.13,19.1-47.29,30.76-77.26,47.7C96.74,361.9,75.52,367.64,55,367.64Z"/><path class="cls-7" d="M788.1,460.31a156.34,156.34,0,0,1-77.74-20.6C685.29,425.3,662.6,402.86,641,371.12a271.23,271.23,0,0,1-20.35-36.23c-17.49-36.51-41.8-57.77-68.46-59.84-22.07-1.73-43.72,10.41-59.43,33.28a1.81,1.81,0,0,1-3-2.05c16.46-24,39.31-36.68,62.7-34.85,28,2.18,53.39,24.16,71.46,61.89A268.2,268.2,0,0,0,644,369.08c21.29,31.27,43.59,53.35,68.17,67.48a151.33,151.33,0,0,0,183.77-25.35,1.81,1.81,0,1,1,2.58,2.55,156.16,156.16,0,0,1-72.79,41.91A153.89,153.89,0,0,1,788.1,460.31Z"/><path class="cls-7" d="M309.26,460.61A153.83,153.83,0,0,1,271.63,456a156.14,156.14,0,0,1-72.8-41.91,1.82,1.82,0,0,1,2.59-2.55,151.33,151.33,0,0,0,183.77,25.35c24.58-14.14,46.88-36.21,68.17-67.49a269.63,269.63,0,0,0,20.07-35.75c18.07-37.74,43.45-59.72,71.46-61.9,23.41-1.82,46.24,10.89,62.69,34.86a1.81,1.81,0,1,1-3,2.05c-15.71-22.87-37.4-35-59.42-33.28-26.66,2.07-51,23.32-68.46,59.84a272.34,272.34,0,0,1-20.35,36.23C434.76,403.16,412.07,425.59,387,440A156.45,156.45,0,0,1,309.26,460.61Z"/><path class="cls-5" d="M473.46,89.48a93.56,93.56,0,0,1,48.64,13.38,1.37,1.37,0,0,1-1.39,2.35c-42.53-25.28-86-8-108,4.49-29.87,16.94-50,28.6-76.92,47.64-20.68,14.6-41.34,25.85-61.4,33.43l-.07-.16c-42.4,19.22-155.35,25.24-227.22-80.05A1.36,1.36,0,0,1,49.3,109C121,214.11,234,206.89,274.57,187.47l.13.24c19.43-7.49,39.43-18.45,59.47-32.6,27.07-19.11,47.21-30.8,77.15-47.78C425.39,99.35,447.92,89.51,473.46,89.48Z"/><path class="cls-5" d="M212.92-42.31c50.29,0,103.1,31,136.93,61.35a1.36,1.36,0,0,1-1.82,2c-35.41-31.75-91.77-64.29-143.8-60.33C153.34-35.41,99.54-20,50.81,65.61c-2.8,4.92-5.49,10-8.33,15.41C29.8,105.12,16.69,130-7.8,141.36a37.24,37.24,0,0,1-30.9.3,1.34,1.34,0,0,1-.69-1.79,1.36,1.36,0,0,1,1.79-.7A35.19,35.19,0,0,0-9,138.92c23.72-11,36.61-35.47,49.08-59.17,2.85-5.41,5.54-10.53,8.37-15.49C97.8-22.49,152.39-38.07,204-42,207-42.21,209.94-42.31,212.92-42.31Z"/><path class="cls-5" d="M152.14-46.87a1.37,1.37,0,0,1,1.35,1.16,1.36,1.36,0,0,1-1.14,1.55C106.47-37.18,70-5.28,51.07,22.26a1.36,1.36,0,0,1-2.25-1.54C68-7.29,105.2-39.75,151.93-46.85Z"/><path class="cls-5" d="M472.54,111.84c21.53,0,44.43,7.52,68.64,27.53l12.21,10.07c7.24,2.68,13.2,2.76,19.5,2.85,9.38.13,19.08.26,32.54,9.74,27,19,47.1,30.64,77,47.53,24.8,14,52.39,19.28,77.69,14.8a1.36,1.36,0,0,1,.48,2.68c-25.91,4.6-54.16-.77-79.52-15.1-30-16.94-50.1-28.59-77.21-47.68-12.77-9-21.63-9.12-31-9.25-6.33-.08-12.86-.17-20.64-3.1l-.38-.22-12.39-10.22c-64.34-53.16-119.63-15.77-164.07,14.27-9.8,6.62-19.05,12.88-27.86,17.84a1.37,1.37,0,0,1-1.34-2.38c8.71-4.9,17.92-11.13,27.67-17.72C402.44,134.16,435.45,111.84,472.54,111.84Z"/><g class="cls-3"><path class="cls-6" d="M182.86-60.93a303.43,303.43,0,0,1,43.46,3.52l2.2.31c45.59,6.29,96.82,33.79,142,58.05,11.64,6.24,22.62,12.14,32.87,17.32a1.82,1.82,0,1,1-1.64,3.24c-10.29-5.2-21.29-11.11-32.94-17.36C323.89-20,273-47.3,228-53.5l-2.2-.31C191.66-58.56,101-71.2,26.24,17.29a1.82,1.82,0,1,1-2.77-2.35C77.18-48.69,139-60.93,182.86-60.93Z"/></g><g class="cls-3"><path class="cls-6" d="M209.76,10.77a47.57,47.57,0,0,1,22.36,5.43c1.27.67,2.5,1.39,3.7,2.18a44.66,44.66,0,0,1,19.24,29,40.23,40.23,0,0,1-6.69,31.1c-7.14,10-19.61,17.29-31,18.21-15.76,1.29-31-9.61-34-24.28A1.82,1.82,0,0,1,187,71.7c2.94,14.47,17.87,22.37,30.1,21.38,10.41-.84,21.81-7.56,28.37-16.71a36.63,36.63,0,0,0,6.06-28.31,40.91,40.91,0,0,0-17.66-26.64,38.88,38.88,0,0,0-3.4-2C216.88,12.25,200,12.8,184.07,21c-17.88,9.15-31,26.25-33.4,43.58C147.54,87,160.26,117,184.2,125.82c37.16,13.69,61-.7,111.25-34.54,8.23-5.54,19.05-13.89,30.5-22.74,25.84-20,55.12-42.59,76-50.35a1.8,1.8,0,0,1,2.34,1.06,1.82,1.82,0,0,1-1.06,2.34c-20.37,7.58-50.69,31-75.05,49.82-11.5,8.89-22.37,17.28-30.69,22.89-51.36,34.55-75.71,49.23-114.54,34.93-25.58-9.42-39.2-41.32-35.87-65.21,2.61-18.74,16.15-36.49,35.34-46.31A60.24,60.24,0,0,1,209.76,10.77Z"/></g><g class="cls-3"><path class="cls-6" d="M470.9,47.92c21.07,0,50.88,8.14,68.65,24.38,9.66,8.84,14.75,19,15.13,30.29a1.81,1.81,0,0,1-1.75,1.88,1.84,1.84,0,0,1-1.88-1.75c-.35-10.25-5-19.58-14-27.74-18.23-16.67-49.8-24.46-70.15-23.32-16,.89-33.27,6.11-52.77,15.93C391.78,78.88,369.47,94.21,347.9,109c-41.43,28.48-84.27,57.93-129.46,59.79-36,1.48-67.62-9.56-86.81-30.28-19.57-21.13-28-51.09-22.46-80.14a1.82,1.82,0,0,1,3.57.68c-5.29,27.92,2.77,56.7,21.56,77,18.46,19.94,49.08,30.55,84,29.12,44.13-1.82,86.54-31,127.54-59.15,21.67-14.9,44.08-30.31,66.69-41.7,20-10.06,37.69-15.4,54.2-16.32C468.08,48,469.47,47.92,470.9,47.92Z"/></g><g class="cls-3"><path class="cls-6" d="M140.7,20.88a1.79,1.79,0,0,1,1,.32,1.82,1.82,0,0,1,.46,2.53C124,50.16,123,83.51,139.46,112.92c14.23,25.38,41.91,39.71,74,38.34,28.93-1.24,51.11-14.87,70.67-26.89l.85-.52c16.09-9.89,31-20,45.42-29.7,24.31-16.42,47.28-31.93,74.95-46.25,16.38-8.49,41.28-18.86,66.88-20.11,17.44-.86,34.1,2.62,48.11,10.07,12.5,6.63,29.18,17.45,29.76,34.7a1.82,1.82,0,0,1-3.63.12c-.52-15.36-16.13-25.4-27.83-31.61-13.43-7.14-29.41-10.48-46.23-9.65-19.47.95-42.69,7.95-65.4,19.7-27.47,14.23-50.35,29.68-74.57,46-14.46,9.76-29.4,19.86-45.56,29.78l-.84.52c-19.95,12.26-42.55,26.15-72.42,27.43-33.43,1.44-62.38-13.59-77.29-40.19-16.93-30.2-15.81-65.84,2.91-93A1.82,1.82,0,0,1,140.7,20.88Z"/></g><path class="cls-6" d="M210.6-7.87a64.59,64.59,0,0,1,46.62,20,57.86,57.86,0,0,1,16.31,43.07c-1.53,31-15.27,47.05-26.53,55a1.81,1.81,0,0,1-2.1-3c10.6-7.53,23.54-22.7,25-52.26a54.36,54.36,0,0,0-15.33-40.39,60.92,60.92,0,0,0-44-18.83,1.82,1.82,0,0,1-1.82-1.82A1.82,1.82,0,0,1,210.6-7.87Z"/><path class="cls-6" d="M239.31-11.66a1.73,1.73,0,0,1,.77.17,73.34,73.34,0,0,1,42.16,66.21c0,17.29-7,37-17.84,50.3a1.82,1.82,0,1,1-2.81-2.3c10.34-12.65,17-31.5,17-48A69.71,69.71,0,0,0,238.54-8.2a1.82,1.82,0,0,1-.87-2.42A1.81,1.81,0,0,1,239.31-11.66Z"/><path class="cls-6" d="M260.88-9.62a1.77,1.77,0,0,1,1.18.44A83.09,83.09,0,0,1,291.13,54c0,14.2-5.62,33.83-12.8,44.69a1.82,1.82,0,0,1-3-2c6.84-10.36,12.2-29.11,12.2-42.69A79.46,79.46,0,0,0,259.7-6.42,1.83,1.83,0,0,1,259.5-9,1.81,1.81,0,0,1,260.88-9.62Z"/><path class="cls-6" d="M281.81-1a1.79,1.79,0,0,1,1.48.76,92.25,92.25,0,0,1,17.24,53.91A100.19,100.19,0,0,1,293.72,89a1.82,1.82,0,0,1-3.38-1.33,96.41,96.41,0,0,0,6.56-34,88.62,88.62,0,0,0-16.57-51.8,1.81,1.81,0,0,1,.43-2.53A1.8,1.8,0,0,1,281.81-1Z"/><path class="cls-6" d="M298.42,7.86a1.8,1.8,0,0,1,1.64,1,102.08,102.08,0,0,1,10.22,44.79,103.17,103.17,0,0,1-3.55,26.91,1.82,1.82,0,0,1-3.51-1,99.74,99.74,0,0,0-6.43-69.17A1.81,1.81,0,0,1,297.63,8,1.75,1.75,0,0,1,298.42,7.86Z"/><path class="cls-6" d="M312.71,19.27a1.82,1.82,0,0,1,1.74,1.28A112.58,112.58,0,0,1,319.51,54a113.94,113.94,0,0,1-1.36,17.53,1.82,1.82,0,0,1-3.59-.56,110.52,110.52,0,0,0,1.32-17A109,109,0,0,0,311,21.63a1.82,1.82,0,0,1,1.2-2.28A2,2,0,0,1,312.71,19.27Z"/><path class="cls-6" d="M323.51,29.78a1.81,1.81,0,0,1,1.73,1.28,66.55,66.55,0,0,1,2.18,30,1.82,1.82,0,0,1-3.59-.56,63.13,63.13,0,0,0,.75-9.74,62.35,62.35,0,0,0-2.81-18.6,1.82,1.82,0,0,1,1.2-2.28A2,2,0,0,1,323.51,29.78Z"/><path class="cls-7" d="M210.28,3.54c19.82,0,37,9.47,47.5,26.74,6.28,10.34,8,22.92,4.75,35.43a51.38,51.38,0,0,1-23.77,31.75c-12.68,7.29-27.69,8.65-40.16,3.66-13.42-5.39-23.1-18.62-23.54-32.19-.46-14.54,10.23-28.5,23.83-31.13,8.05-1.56,16.44.78,21.89,6.11,5.64,5.52,8.59,15.7,3.78,23.2a1.82,1.82,0,1,1-3.06-2c3.82-5.94,1.34-14.14-3.26-18.65S206.48,40,199.58,41.37c-11.93,2.3-21.3,14.61-20.88,27.44C179.09,81,187.83,92.88,200,97.74c11.44,4.59,25.27,3.3,37-3.43A47.75,47.75,0,0,0,259,64.81c3-11.56,1.43-23.15-4.34-32.64-12.18-20-33.06-28.66-57.27-23.64C173,13.6,146.08,34.17,142,63.66c-3.5,25.36,10.73,59.19,37.49,69.13C221,148.2,247.52,132,303.6,94c4.44-3,9.6-6.58,15.26-10.49C350.25,61.78,397.68,29,426.38,18.25c37.24-14,84.42-9.81,129.43,11.46A1.82,1.82,0,0,1,554.25,33C510.13,12.14,464,8,427.66,21.65c-28.28,10.62-75.49,43.23-106.74,64.8-5.67,3.92-10.83,7.48-15.27,10.5-57.16,38.8-84.24,55.28-127.42,39.25-28.4-10.55-43.52-46.28-39.82-73,3.8-27.5,28.3-52,58.26-58.19A67.08,67.08,0,0,1,210.28,3.54Z"/><path class="cls-7" d="M444.72-105.56c12.42,0,25,4.23,34.37,14.34,18.6,20.06,23.89,48.11,13.15,69.79C481.75-.22,456.22,15,434,13.15,411.44,11.29,390.38.32,370-10.28c-3.52-1.84-7-3.65-10.44-5.39-41.54-21-96.84-45.77-156.32-51.2-36.75-3.36-71.58,1.29-100.72,13.46C70-39.81,27.2-11,10.24,20a1.82,1.82,0,1,1-3.19-1.74c17.38-31.79,61-61.16,94.09-75,29.67-12.4,65.11-17.15,102.44-13.73C263.67-65,319.38-40,361.21-18.91c3.46,1.74,7,3.56,10.48,5.4,20.05,10.44,40.78,21.24,62.63,23C455.13,11.24,479.1-3.07,489-23s4.75-47-12.55-65.71c-15.46-16.67-40.48-16-57.21-6.63-17.57,9.8-24.9,27.11-19.6,46.33,3.58,13,14.6,23.54,27.43,26.3C440.2-19.93,454.8-27,459.57-38.54c3.19-7.74,1.76-16.91-3.49-22.29-6.89-7.07-17.26-5.31-23.32.47a1.83,1.83,0,0,1-2.57-.06,1.83,1.83,0,0,1,.06-2.57c8.36-8,20.85-8.16,28.43-.38,6.23,6.39,8,17.17,4.25,26.21-5.49,13.31-21.58,21.2-36.64,18-14.12-3-26.25-14.65-30.18-28.89-6.8-24.65,6.57-42.23,21.34-50.46A56.89,56.89,0,0,1,444.72-105.56Z"/><path class="cls-7" d="M37.47,128a1.81,1.81,0,0,1,1.6.95c16.59,30.78,60.79,62.36,94,76.45,29.06,12.35,63.85,17.21,100.63,14.08,59.51-5.07,115-29.52,156.63-50.25,3.45-1.71,6.94-3.5,10.47-5.31,20.43-10.49,41.56-21.33,64.16-23,22.2-1.68,47.64,13.66,58,34.94,10.59,21.74,5.14,49.76-13.59,69.71-16.83,17.94-43.77,17.07-61.68,6.95-14.72-8.32-28-26-21-50.59,4-14.22,16.21-25.76,30.34-28.71,15-3.14,31.12,4.84,36.53,18.18,3.68,9.07,1.87,19.84-4.41,26.19-7.62,7.73-20.11,7.49-28.42-.55a1.82,1.82,0,0,1,2.53-2.61c6,5.81,16.37,7.64,23.31.61,5.28-5.35,6.77-14.51,3.63-22.27-4.69-11.57-19.26-18.74-32.42-16-12.85,2.68-23.94,13.18-27.59,26.13-5.42,19.18,1.8,36.55,19.31,46.45,16.67,9.42,41.69,10.29,57.25-6.28,17.42-18.56,22.75-45.55,13-65.63s-33.72-34.51-54.46-32.91c-21.87,1.67-42.67,12.34-62.78,22.66-3.54,1.82-7.05,3.61-10.51,5.34C350,193.39,294.08,218,234,223.13c-37.37,3.19-72.76-1.78-102.36-14.35-33.73-14.33-78.75-46.57-95.73-78.07a1.84,1.84,0,0,1,.74-2.47A1.88,1.88,0,0,1,37.47,128Z"/><path class="cls-7" d="M470.46,70.73A105.77,105.77,0,0,1,489,72.34c22.39,4,67.83,32,68.72,58.47a1.82,1.82,0,0,1-3.63.12c-.81-23.88-44-51.17-65.72-55-25.2-4.46-52.68.78-77.4,14.75-29.87,16.88-50,28.51-76.94,47.51C220,218.48,145,170.77,124.68,154.24c-16.94-13.82-28.48-37.66-29.4-60.76a1.82,1.82,0,0,1,3.63-.14c.88,22.1,11.9,44.89,28.07,58.08,19.76,16.13,93,62.62,204.94-16.23,27.13-19.09,47.28-30.76,77.25-47.7C428.68,76.47,449.9,70.73,470.46,70.73Z"/><path class="cls-7" d="M216.16-22.24a153.83,153.83,0,0,1,37.63,4.64,156,156,0,0,1,72.8,41.9A1.82,1.82,0,0,1,324,26.86,151.31,151.31,0,0,0,140.23,1.5C115.65,15.64,93.35,37.72,72.06,69A269.79,269.79,0,0,0,52,104.74c-18.07,37.74-43.45,59.72-71.46,61.9-23.41,1.82-46.24-10.89-62.7-34.85a1.84,1.84,0,0,1,.47-2.53,1.83,1.83,0,0,1,2.53.47c15.71,22.87,37.4,35,59.42,33.29,26.66-2.08,51-23.33,68.46-59.85A273,273,0,0,1,69.06,66.94c21.6-31.73,44.29-54.17,69.36-68.59A156.44,156.44,0,0,1,216.16-22.24Z"/></g></g><text class="cls-8" transform="translate(101.4 256.89)">FRU<tspan class="cls-9" x="128.55" y="0">T</tspan><tspan x="165.64" y="0">ALES</tspan></text></svg>