<svg id="Capa_1" data-name="Capa 1" xmlns="http://www.w3.org/2000/svg" xmlns:xlink="http://www.w3.org/1999/xlink" viewBox="0 0 1086 175"><defs><style>.cls-1{fill:none;}.cls-2{fill:#e53112;}.cls-3{opacity:0.4;}.cls-4{clip-path:url(#clip-path);}.cls-5{clip-path:url(#clip-path-2);}.cls-6{fill:#f5ea61;}.cls-7{clip-path:url(#clip-path-3);}.cls-8{fill:#c9961a;}.cls-9{fill:#c9971b;}.cls-10{fill:#ca971c;}.cls-11{fill:#ca981d;}.cls-12{fill:#ca981e;}.cls-13{fill:#cb991f;}.cls-14{fill:#cb9920;}.cls-15{fill:#cb9a21;}.cls-16{fill:#cc9b22;}.cls-17{fill:#cc9b23;}.cls-18{fill:#cd9c24;}.cls-19{fill:#cd9c25;}.cls-20{fill:#cd9d26;}.cls-21{fill:#ce9e27;}.cls-22{fill:#ce9e28;}.cls-23{fill:#ce9f29;}.cls-24{fill:#cf9f2a;}.cls-25{fill:#cfa02b;}.cls-26{fill:#cfa12c;}.cls-27{fill:#d0a12d;}.cls-28{fill:#d0a22e;}.cls-29{fill:#d1a22f;}.cls-30{fill:#d1a330;}.cls-31{fill:#d1a431;}.cls-32{fill:#d2a432;}.cls-33{fill:#d2a533;}.cls-34{fill:#d2a534;}.cls-35{fill:#d3a635;}.cls-36{fill:#d3a736;}.cls-37{fill:#d4a737;}.cls-38{fill:#d4a838;}.cls-39{fill:#d4a839;}.cls-40{fill:#d5a93a;}.cls-41{fill:#d5aa3b;}.cls-42{fill:#d5aa3c;}.cls-43{fill:#d6ab3d;}.cls-44{fill:#d6ab3e;}.cls-45{fill:#d6ac3f;}.cls-46{fill:#d7ad40;}.cls-47{fill:#d7ad41;}.cls-48{fill:#d7ae42;}.cls-49{fill:#d8ae43;}.cls-50{fill:#d8af44;}.cls-51{fill:#d9b045;}.cls-52{fill:#d9b046;}.cls-53{fill:#d9b147;}.cls-54{fill:#dab148;}.cls-55{fill:#dab249;}.cls-56{fill:#dab34a;}.cls-57{fill:#dbb34b;}.cls-58{fill:#dbb44c;}.cls-59{fill:#dbb54d;}.cls-60{fill:#dcb54e;}.cls-61{fill:#dcb64f;}.cls-62{fill:#dcb650;}.cls-63{fill:#ddb751;}.cls-64{fill:#ddb852;}.cls-65{fill:#ddb853;}.cls-66{fill:#deb954;}.cls-67{fill:#deb955;}.cls-68{fill:#dfba56;}.cls-69{fill:#dfbb57;}.cls-70{fill:#dfbb58;}.cls-71{fill:#e0bc59;}.cls-72{fill:#e0bc5a;}.cls-73{fill:#e0bd5b;}.cls-74{fill:#e1be5c;}.cls-75{fill:#e1be5d;}.cls-76{fill:#e1bf5e;}.cls-77{fill:#e2c05f;}.cls-78{fill:#e2c060;}.cls-79{fill:#e2c161;}.cls-80{fill:#e3c162;}.cls-81{fill:#e3c263;}.cls-82{fill:#e4c364;}.cls-83{fill:#e4c365;}.cls-84{fill:#e4c466;}.cls-85{fill:#e5c567;}.cls-86{fill:#e5c568;}.cls-87{fill:#e5c669;}.cls-88{fill:#e6c66a;}.cls-89{fill:#e6c76b;}.cls-90{fill:#e6c86c;}.cls-91{fill:#e7c86d;}.cls-92{fill:#e6c86d;}.cls-93{fill:#e6c76c;}.cls-94{fill:#e6c66b;}.cls-95{fill:#e5c66a;}.cls-96{fill:#e5c569;}.cls-97{fill:#e4c467;}.cls-98{fill:#e4c366;}.cls-99{fill:#e3c365;}.cls-100{fill:#e3c264;}.cls-101{fill:#e3c163;}.cls-102{fill:#e2c162;}.cls-103{fill:#e2c061;}.cls-104{fill:#e2bf60;}.cls-105{fill:#e1be5f;}.cls-106{fill:#e1be5e;}.cls-107{fill:#e0bd5d;}.cls-108{fill:#e0bc5c;}.cls-109{fill:#e0bc5b;}.cls-110{fill:#dfbb5a;}.cls-111{fill:#dfba59;}.cls-112{fill:#deba58;}.cls-113{fill:#deb957;}.cls-114{fill:#deb856;}.cls-115{fill:#ddb855;}.cls-116{fill:#ddb754;}.cls-117{fill:#dcb653;}.cls-118{fill:#dcb652;}.cls-119{fill:#dcb551;}.cls-120{fill:#dbb450;}.cls-121{fill:#dbb44f;}.cls-122{fill:#dab34e;}.cls-123{fill:#dab24d;}.cls-124{fill:#dab14c;}.cls-125{fill:#d9b14b;}.cls-126{fill:#d9b04a;}.cls-127{fill:#d8af49;}.cls-128{fill:#d8af48;}.cls-129{fill:#d8ae47;}.cls-130{fill:#d7ad46;}.cls-131{fill:#d7ad45;}.cls-132{fill:#d6ac44;}.cls-133{fill:#d6ab43;}.cls-134{fill:#d5aa42;}.cls-135{fill:#d5aa41;}.cls-136{fill:#d5a940;}.cls-137{fill:#d6ab42;}.cls-138{fill:#d7ac44;}.cls-139{fill:#d7ae46;}.cls-140{fill:#dbb34f;}.cls-141{fill:#dbb550;}.cls-142{fill:#ddb755;}.cls-143{fill:#ddb856;}.cls-144{fill:#deb958;}.cls-145{fill:#dfbc5b;}.cls-146{fill:#e3c265;}.cls-147{fill:#e7c86e;}.cls-148{fill:#e7c96f;}.cls-149{fill:#e8ca70;}.cls-150{fill:#e8cb71;}.cls-151{fill:#e9cb72;}.cls-152{fill:#e9cc73;}.cls-153{fill:#e9cd75;}.cls-154{fill:#eace76;}.cls-155{fill:#eace75;}.cls-156{fill:#eace74;}.cls-157{fill:#ebce73;}.cls-158{fill:#ebce72;}.cls-159{fill:#ebce71;}.cls-160{fill:#ecce70;}.cls-161{fill:#ecce6f;}.cls-162{fill:#ecce6e;}.cls-163{fill:#ecce6d;}.cls-164{fill:#edce6d;}.cls-165{fill:#edce6c;}.cls-166{fill:#edce6b;}.cls-167{fill:#edce6a;}.cls-168{fill:#eece69;}.cls-169{fill:#eece68;}.cls-170{fill:#eece67;}.cls-171{fill:#eece66;}.cls-172{fill:#efce65;}.cls-173{fill:#efce64;}.cls-174{fill:#efce63;}.cls-175{fill:#efce62;}.cls-176{fill:#f0ce61;}.cls-177{fill:#f0ce60;}.cls-178{fill:#f0ce5f;}.cls-179{fill:#f1ce5e;}.cls-180{fill:#f1ce5d;}.cls-181{fill:#f1ce5c;}.cls-182{fill:#f1ce5b;}.cls-183{fill:#f2ce5a;}.cls-184{fill:#f2ce59;}.cls-185{fill:#f2ce58;}.cls-186{fill:#f2ce57;}.cls-187{fill:#f3ce56;}.cls-188{fill:#f3ce55;}.cls-189{fill:#f3ce54;}.cls-190{clip-path:url(#clip-path-4);}.cls-191{fill:#f3ce53;}.cls-192{fill:#f4ce52;}.cls-193{fill:#f4ce51;}.cls-194{fill:#f4ce4f;}.cls-195{fill:#f4ce4e;}.cls-196{fill:#f5ce4d;}.cls-197{fill:#f5ce4c;}.cls-198{fill:#f5ce4b;}.cls-199{fill:#f5ce4a;}.cls-200{fill:#f6ce48;}.cls-201{fill:#f6ce47;}.cls-202{fill:#f6ce46;}.cls-203{fill:#f6ce45;}.cls-204{fill:#f7ce43;}.cls-205{fill:#f7ce42;}.cls-206{fill:#f7ce41;}.cls-207{fill:#f7ce3f;}.cls-208{fill:#f8ce3e;}.cls-209{fill:#f8ce3d;}.cls-210{fill:#f8ce3c;}.cls-211{fill:#f9ce3a;}.cls-212{fill:#f9ce39;}.cls-213{fill:#f9ce37;}.cls-214{fill:#f9ce36;}.cls-215{fill:#face35;}.cls-216{fill:#face33;}.cls-217{fill:#face32;}.cls-218{fill:#face30;}.cls-219{fill:#fbce2e;}.cls-220{fill:#fbce2d;}.cls-221{fill:#fbce2b;}.cls-222{fill:#fbce2a;}.cls-223{fill:#fbce28;}.cls-224{fill:#fcce26;}.cls-225{fill:#fcce24;}.cls-226{fill:#fcce22;}.cls-227{fill:#fcce20;}.cls-228{fill:#fdce1e;}.cls-229{fill:#fdce20;}.cls-230{fill:#fdce22;}.cls-231{fill:#fdce24;}.cls-232{fill:#fdcf26;}.cls-233{fill:#fdcf27;}.cls-234{fill:#fdcf29;}.cls-235{fill:#fdcf2b;}.cls-236{fill:#fdcf2c;}.cls-237{fill:#fdd02e;}.cls-238{fill:#fcd02f;}.cls-239{fill:#fcd031;}.cls-240{fill:#fcd032;}.cls-241{fill:#fcd034;}.cls-242{fill:#fcd135;}.cls-243{fill:#fcd137;}.cls-244{fill:#fcd138;}.cls-245{fill:#fcd139;}.cls-246{fill:#fcd13b;}.cls-247{fill:#fcd23c;}.cls-248{fill:#fcd23d;}.cls-249{fill:#fcd23f;}.cls-250{fill:#fcd240;}.cls-251{fill:#fcd241;}.cls-252{fill:#fcd343;}.cls-253{fill:#fcd344;}.cls-254{fill:#fcd345;}.cls-255{fill:#fcd346;}.cls-256{fill:#fcd348;}.cls-257{fill:#fcd449;}.cls-258{fill:#fcd44a;}.cls-259{fill:#fcd44b;}.cls-260{fill:#fcd44d;}.cls-261{fill:#fcd44e;}.cls-262{fill:#fcd54f;}.cls-263{fill:#fcd550;}.cls-264{fill:#fcd551;}.cls-265{fill:#fcd553;}.cls-266{fill:#fcd654;}.cls-267{fill:#fcd655;}.cls-268{fill:#fcd656;}.cls-269{fill:#fcd657;}.cls-270{fill:#fbd658;}.cls-271{fill:#fbd75a;}.cls-272{fill:#fbd75b;}.cls-273{fill:#fbd75c;}.cls-274{fill:#fbd75d;}.cls-275{fill:#fbd75e;}.cls-276{fill:#fbd85f;}.cls-277{fill:#fbd860;}.cls-278{fill:#fbd861;}.cls-279{fill:#fbd862;}.cls-280{fill:#fbd863;}.cls-281{fill:#fbd964;}.cls-282{fill:#fbd966;}.cls-283{fill:#fbd967;}.cls-284{fill:#fbd968;}.cls-285{fill:#fbd969;}.cls-286{fill:#fbda6a;}.cls-287{fill:#fbda6b;}.cls-288{fill:#fbda6c;}.cls-289{fill:#fbda6d;}.cls-290{fill:#fbda6e;}.cls-291{fill:#fadb6f;}.cls-292{fill:#fadb70;}.cls-293{fill:#fadb71;}.cls-294{fill:#fadb72;}.cls-295{fill:#fadb73;}.cls-296{fill:#fadc74;}.cls-297{fill:#fadc75;}.cls-298{fill:#fadc76;}.cls-299{fill:#fadc77;}.cls-300{fill:#fadc78;}.cls-301{fill:#fadd79;}.cls-302{fill:#fadd7a;}.cls-303{fill:#fadd7b;}.cls-304{fill:#fadd7c;}.cls-305{fill:#fade7d;}.cls-306{fill:#fade7e;}.cls-307{fill:#fade7f;}.cls-308{fill:#fade80;}.cls-309{fill:#f9de81;}.cls-310{fill:#f9df82;}.cls-311{fill:#f9df83;}.cls-312{fill:#f9df84;}.cls-313{fill:#f9df85;}.cls-314{fill:#f9df86;}.cls-315{fill:#f9e087;}.cls-316{fill:#f9e088;}.cls-317{fill:#f9e089;}.cls-318{fill:#f9e08a;}.cls-319{fill:#f9e08b;}.cls-320{fill:#f9e18b;}.cls-321{fill:#f9e18c;}.cls-322{fill:#f9e18d;}.cls-323{fill:#f9e18e;}.cls-324{fill:#f9e18f;}.cls-325{fill:#f9e290;}.cls-326{fill:#f9e291;}.cls-327{fill:#f8e292;}.cls-328{fill:#f8e293;}.cls-329{fill:#f8e294;}.cls-330{fill:#f8e395;}.cls-331{fill:#f8e396;}.cls-332{fill:#f8e397;}.cls-333{fill:#f8e398;}.cls-334{fill:#f8e499;}.cls-335{fill:#f8e49a;}.cls-336{fill:#f8e49b;}.cls-337{fill:#f8e49c;}.cls-338{fill:#f8e59d;}.cls-339{fill:#f8e59e;}.cls-340{fill:#f7e59f;}.cls-341{fill:#f7e5a0;}.cls-342{fill:#f7e5a1;}.cls-343{fill:#f7e6a2;}.cls-344{fill:#f7e6a3;}.cls-345{fill:#f7e6a4;}.cls-346{clip-path:url(#clip-path-5);}.cls-347{clip-path:url(#clip-path-6);}.cls-348{fill:#b49a00;}</style><clipPath id="clip-path"><rect id="SVGID" class="cls-1" x="6.41" y="-0.75" width="1073.17" height="176.49"/></clipPath><clipPath id="clip-path-2"><rect id="SVGID-2" data-name="SVGID" class="cls-1" x="-212.59" y="-383.83" width="1496.65" height="735.86"/></clipPath><clipPath id="clip-path-3"><path id="SVGID-3" data-name="SVGID" class="cls-1" d="M1191.23,261.8c-33.74,0-63.5-13-82.1-23.46-39.58-22.37-66.19-37.78-102-63-26.51-18.66-52.94-33.1-78.6-43l-.18.33c-53.56-25.59-202.8-34.92-297.35,104a1.81,1.81,0,0,1-2.5.47,1.79,1.79,0,0,1-.47-2.5C722.77,95.53,872,103.28,928,128.59l.09-.2c26.49,10,53.79,24.78,81.15,44,35.65,25.09,62.19,40.46,101.67,62.78,29.2,16.51,86.58,39.19,142.7,5.74a1.8,1.8,0,1,1,1.84,3.09A123.53,123.53,0,0,1,1191.23,261.8Z"/></clipPath><clipPath id="clip-path-4"><path id="SVGID-4" data-name="SVGID" class="cls-1" d="M-120.94,262.2a123.46,123.46,0,0,1-64.22-17.77,1.8,1.8,0,0,1-.62-2.47,1.8,1.8,0,0,1,2.47-.62c56.12,33.46,113.49,10.77,142.69-5.74,39.48-22.32,66-37.68,101.67-62.78,27.36-19.26,54.66-34.07,81.15-44l.1.2c56-25.31,205.19-33.07,299.93,106.12a1.8,1.8,0,0,1-3,2c-94.56-138.91-243.8-129.58-297.36-104l-.17-.33c-25.66,9.85-52.1,24.29-78.61,43-35.77,25.19-62.39,40.59-102,63C-57.44,249.24-87.21,262.19-120.94,262.2Z"/></clipPath><clipPath id="clip-path-5"><path id="SVGID-5" data-name="SVGID" class="cls-1" d="M1190,232.64c-49,0-92.59-29.49-130.37-55-12.87-8.7-25-16.93-36.54-23.4a1.8,1.8,0,1,1,1.76-3.14c11.64,6.55,23.86,14.81,36.8,23.55,58.69,39.68,131.72,89.05,216.67,18.85l16.5-10.6c10.23-3.89,18.59-4.59,26.68-5.26,12.65-1.06,24.59-2.06,41.89-14.24,35.8-25.2,62.4-40.6,102-63,33.49-18.93,70.77-26,105-20a1.79,1.79,0,0,1,1.45,2.09,1.77,1.77,0,0,1-2.08,1.45c-33.4-5.91-69.85,1-102.61,19.54-39.47,22.31-66,37.67-101.67,62.78-18.09,12.74-31.09,13.82-43.66,14.87-7.85.66-16,1.33-25.38,4.88l-16,10.3C1248.52,222.72,1218.34,232.64,1190,232.64Z"/></clipPath><clipPath id="clip-path-6"><path id="SVGID-6" data-name="SVGID" class="cls-1" d="M-119.63,233c-28.44,0-58.68-9.94-90.66-36.36l-16.12-13.3c-9.55-3.54-17.42-3.64-25.75-3.76-12.38-.17-25.19-.35-43-12.87-35.66-25.1-62.2-40.46-101.67-62.77C-429.56,85.42-466,78.48-499.41,84.4a1.78,1.78,0,0,1-2.08-1.46A1.81,1.81,0,0,1-500,80.85c34.21-6.07,71.51,1,105,20,39.57,22.36,66.18,37.75,102,63,16.87,11.88,28.57,12,41,12.21,8.34.12,17,.24,27.24,4.1l.51.3L-208,193.87C-123,264.06-50,214.69,8.69,175c12.94-8.75,25.16-17,36.79-23.56a1.8,1.8,0,0,1,1.76,3.14c-11.5,6.47-23.66,14.69-36.53,23.4C-27,203.52-70.66,233-119.63,233Z"/></clipPath></defs><rect class="cls-2" width="1086" height="175"/><g class="cls-3"><g class="cls-4"><g class="cls-5"><path class="cls-6" d="M118.27,6.3C84.79,6.31,54.09-13.11,3.71-47c-11-7.4-25.35-18.49-40.54-30.22C-69-102.09-109-133-135.94-143a2.41,2.41,0,0,1-1.41-3.09,2.4,2.4,0,0,1,3.09-1.41C-106.69-137.27-68-107.39-33.9-81-18.77-69.34-4.48-58.31,6.39-51,72.8-6.3,104.23,12.68,153.3-5.38,184.91-17,201.72-56.63,197.59-86.33c-3.19-22.88-20.5-45.47-44.11-57.55-21-10.75-43.32-11.5-61.22-2-1.53.81-3,1.7-4.5,2.65a54.12,54.12,0,0,0-23.32,35.19,48.34,48.34,0,0,0,8,37.38c8.66,12.09,23.71,21,37.46,22.07,16.07,1.25,35.87-9.11,39.76-28.23a2.39,2.39,0,0,1,2.83-1.88,2.41,2.41,0,0,1,1.87,2.83c-3.94,19.38-24.13,33.8-44.84,32.06C94.46-45,78-54.72,68.56-67.9a53.08,53.08,0,0,1-8.84-41,59,59,0,0,1,25.41-38.32q2.39-1.56,4.89-2.89c19.29-10.2,43.22-9.47,65.64,2,25.35,13,43.23,36.4,46.68,61.16C206.73-55.45,188.74-13.31,155-.88,141.78,4,129.86,6.3,118.27,6.3Z"/><path class="cls-6" d="M953.12,5.87c-11.58,0-23.5-2.33-36.69-7.18-33.78-12.44-51.77-54.57-47.38-86.12,3.45-24.76,21.34-48.2,46.69-61.16,22.43-11.48,46.35-12.21,65.63-2,1.67.89,3.31,1.85,4.89,2.89a58.91,58.91,0,0,1,25.41,38.32,53.11,53.11,0,0,1-8.83,41.06c-9.44,13.17-25.91,22.84-41,24.06C941.14-42.52,921-57,917-76.33a2.4,2.4,0,0,1,1.88-2.83,2.4,2.4,0,0,1,2.83,1.87c3.89,19.12,23.68,29.5,39.75,28.24,13.75-1.12,28.81-10,37.47-22.08a48.34,48.34,0,0,0,8-37.38,54.08,54.08,0,0,0-23.32-35.19c-1.46-1-3-1.84-4.5-2.65-17.87-9.45-40.18-8.72-61.2,2-23.62,12.08-40.94,34.67-44.12,57.56-4.13,29.69,12.67,69.3,44.28,81C967.2,12.26,998.61-6.74,1065-51.43c10.87-7.32,25.15-18.35,40.28-30,34.12-26.36,72.79-56.24,100.36-66.5a2.41,2.41,0,0,1,3.09,1.41,2.4,2.4,0,0,1-1.41,3.09c-26.89,10-66.93,40.94-99.11,65.8-15.19,11.74-29.53,22.82-40.53,30.22C1017.3-13.55,986.61,5.87,953.12,5.87Z"/><path class="cls-6" d="M1187.74,317c-1.89,0-3.72,0-5.5-.15-21.82-1.22-45.23-8.27-71.57-21.55-29.86-15.05-59.46-35.39-88.07-55.06C968.44,203,912.44,164.53,854.15,162.14,808,160.2,767.6,174.26,743.22,200.59c-24.81,26.8-35.45,64.81-28.47,101.68a2.4,2.4,0,0,1-4.71.89c-7.27-38.36,3.82-77.93,29.65-105.83,25.34-27.36,67.16-41.85,114.66-40,59.67,2.45,116.25,41.34,171,79,28.48,19.58,57.94,39.83,87.5,54.74,25.75,13,48.55,19.86,69.7,21,26.88,1.49,68.55-8.78,92.64-30.8,11.78-10.77,18-23.09,18.43-36.63a2.4,2.4,0,0,1,4.8.16c-.5,14.88-7.23,28.34-20,40C1254.94,306.27,1215.58,317,1187.74,317Z"/><path class="cls-6" d="M-117.46,317.42c-27.83,0-67.19-10.75-90.66-32.21-12.76-11.66-19.49-25.13-20-40a2.4,2.4,0,0,1,2.32-2.48,2.53,2.53,0,0,1,2.48,2.32c.46,13.53,6.66,25.86,18.43,36.62,24.09,22,65.75,32.25,92.64,30.81,21.14-1.18,43.94-8.07,69.7-21.05,29.56-14.9,59-35.15,87.51-54.74,54.71-37.61,111.29-76.5,171-78.95,47.62-1.89,89.31,12.62,114.65,40,25.84,27.91,36.93,67.47,29.66,105.83a2.4,2.4,0,0,1-4.72-.89c7-36.87-3.66-74.88-28.47-101.67-24.37-26.34-64.85-40.42-110.93-38.45-58.29,2.39-114.29,40.88-168.44,78.11-28.62,19.67-58.22,40-88.07,55.07C-66.75,309-90.16,316.05-112,317.27-113.74,317.36-115.57,317.42-117.46,317.42Z"/><path class="cls-6" d="M116.47,51.59c-2.78,0-5.57-.06-8.4-.17C48.4,49-8.18,10.07-62.89-27.54c-28.49-19.58-57.95-39.84-87.51-54.74-25.75-13-48.54-19.86-69.69-21-26.84-1.46-68.56,8.78-92.65,30.8-11.77,10.76-18,23.09-18.43,36.62a2.25,2.25,0,0,1-2.48,2.32A2.39,2.39,0,0,1-336-36c.5-14.88,7.23-28.34,20-40,25.06-22.9,68.23-33.57,96.16-32,21.82,1.21,45.23,8.26,71.57,21.54,29.86,15.06,59.46,35.4,88.08,55.08C-6,5.73,50,44.23,108.27,46.62c46.18,2,86.56-12.13,110.93-38.45C244-18.63,254.66-56.64,247.67-93.51a2.4,2.4,0,0,1,1.92-2.8,2.42,2.42,0,0,1,2.8,1.91c7.27,38.36-3.82,77.92-29.66,105.83C198.9,37.17,160.5,51.59,116.47,51.59Z"/><path class="cls-6" d="M120.29,33.13c-1.92,0-3.84,0-5.78-.12C75.06,31.32,45.21,13,18.87-3.22L17.75-3.9C-3.59-17-23.33-30.34-42.42-43.23c-32-21.61-62.2-42-98.48-60.8-30-15.52-60.66-24.76-86.36-26-22.22-1.08-43.32,3.33-61.06,12.75-15.45,8.21-36.06,21.47-36.75,41.75a2.39,2.39,0,0,1-2.48,2.32,2.41,2.41,0,0,1-2.32-2.48c.77-22.77,22.8-37.06,39.3-45.83,18.5-9.83,40.46-14.44,63.54-13.3,33.81,1.66,66.7,15.36,88.33,26.56,36.53,18.92,66.86,39.4,99,61.08C-20.69-34.35-1-21,20.27-8l1.11.69C47.22,8.58,76.51,26.57,114.71,28.21c42.37,1.89,78.88-17.11,97.67-50.62,21.79-38.85,20.44-82.89-3.61-117.8a2.41,2.41,0,0,1,.62-3.34,2.41,2.41,0,0,1,3.34.62c24.73,35.9,26.2,83,3.84,122.86C197.74,13.52,162,33.13,120.29,33.13Z"/><path class="cls-6" d="M954.91,51.15c-44,0-82.41-14.42-106.24-40.16C822.83-16.91,811.74-56.47,819-94.83a2.4,2.4,0,0,1,2.8-1.92,2.41,2.41,0,0,1,1.92,2.81c-7,36.87,3.65,74.88,28.46,101.67C876.57,34.06,917,48.12,963.12,46.18c58.3-2.39,114.3-40.89,168.45-78.11,28.62-19.68,58.21-40,88.07-55.07,26.35-13.29,49.77-20.34,71.58-21.55,27.9-1.54,71.1,9.14,96.15,32.05,12.77,11.67,19.49,25.13,20,40A2.4,2.4,0,0,1,1405-34a2.42,2.42,0,0,1-2.48-2.32c-.45-13.54-6.65-25.86-18.43-36.63-24.08-22-65.79-32.25-92.64-30.8-21.14,1.18-43.94,8.06-69.69,21-29.57,14.91-59,35.16-87.51,54.74-54.72,37.61-111.3,76.51-171,79Q959.08,51.15,954.91,51.15Z"/><path class="cls-6" d="M951.1,32.69c-41.74,0-77.44-19.61-96.28-53.2-22.36-39.87-20.88-86.95,3.84-122.86A2.4,2.4,0,0,1,862-144a2.41,2.41,0,0,1,.62,3.34c-24,34.91-25.39,79-3.61,117.8,18.78,33.51,55.27,52.52,97.67,50.62,38.2-1.63,67.49-19.63,93.33-35.51l1.12-.68c21.26-13.06,40.95-26.36,60-39.23,32.11-21.68,62.43-42.16,99-61.08,21.63-11.2,54.51-24.9,88.33-26.56,23.1-1.13,45,3.48,63.54,13.31,16.5,8.76,38.53,23,39.3,45.82a2.41,2.41,0,0,1-2.32,2.48,2.43,2.43,0,0,1-2.48-2.32c-.68-20.29-21.3-33.54-36.75-41.75-17.73-9.42-38.83-13.83-61-12.75-25.72,1.27-56.39,10.51-86.37,26-36.28,18.78-66.49,39.19-98.48,60.79-19.08,12.89-38.82,26.22-60.17,39.33l-1.11.69c-26.34,16.18-56.2,34.53-95.64,36.22Q954,32.69,951.1,32.69Z"/><g class="cls-7"><rect class="cls-8" x="627.49" y="95.53" width="3.78" height="178.87"/><rect class="cls-8" x="631.27" y="95.53" width="1.69" height="178.87"/><rect class="cls-9" x="632.97" y="95.53" width="1.69" height="178.87"/><rect class="cls-10" x="634.66" y="95.53" width="1.69" height="178.87"/><rect class="cls-11" x="636.35" y="95.53" width="1.69" height="178.87"/><rect class="cls-12" x="638.04" y="95.53" width="1.69" height="178.87"/><rect class="cls-13" x="639.74" y="95.53" width="1.69" height="178.87"/><rect class="cls-14" x="641.43" y="95.53" width="1.69" height="178.87"/><rect class="cls-15" x="643.12" y="95.53" width="1.69" height="178.87"/><rect class="cls-16" x="644.82" y="95.53" width="1.69" height="178.87"/><rect class="cls-17" x="646.51" y="95.53" width="1.69" height="178.87"/><rect class="cls-18" x="648.2" y="95.53" width="1.69" height="178.87"/><rect class="cls-19" x="649.89" y="95.53" width="1.69" height="178.87"/><rect class="cls-20" x="651.59" y="95.53" width="1.69" height="178.87"/><rect class="cls-21" x="653.28" y="95.53" width="1.69" height="178.87"/><rect class="cls-22" x="654.97" y="95.53" width="1.69" height="178.87"/><rect class="cls-23" x="656.67" y="95.53" width="1.69" height="178.87"/><rect class="cls-24" x="658.36" y="95.53" width="1.69" height="178.87"/><rect class="cls-25" x="660.05" y="95.53" width="1.69" height="178.87"/><rect class="cls-26" x="661.74" y="95.53" width="1.69" height="178.87"/><rect class="cls-27" x="663.44" y="95.53" width="1.69" height="178.87"/><rect class="cls-28" x="665.13" y="95.53" width="1.69" height="178.87"/><rect class="cls-29" x="666.82" y="95.53" width="1.69" height="178.87"/><rect class="cls-30" x="668.52" y="95.53" width="1.69" height="178.87"/><rect class="cls-31" x="670.21" y="95.53" width="1.69" height="178.87"/><rect class="cls-32" x="671.9" y="95.53" width="1.69" height="178.87"/><rect class="cls-33" x="673.59" y="95.53" width="1.69" height="178.87"/><rect class="cls-34" x="675.29" y="95.53" width="1.69" height="178.87"/><rect class="cls-35" x="676.98" y="95.53" width="1.69" height="178.87"/><rect class="cls-36" x="678.67" y="95.53" width="1.69" height="178.87"/><rect class="cls-37" x="680.37" y="95.53" width="1.69" height="178.87"/><rect class="cls-38" x="682.06" y="95.53" width="1.69" height="178.87"/><rect class="cls-39" x="683.75" y="95.53" width="1.69" height="178.87"/><rect class="cls-40" x="685.44" y="95.53" width="1.69" height="178.87"/><rect class="cls-41" x="687.14" y="95.53" width="1.69" height="178.87"/><rect class="cls-42" x="688.83" y="95.53" width="1.69" height="178.87"/><rect class="cls-43" x="690.52" y="95.53" width="1.69" height="178.87"/><rect class="cls-44" x="692.22" y="95.53" width="1.69" height="178.87"/><rect class="cls-45" x="693.91" y="95.53" width="1.69" height="178.87"/><rect class="cls-46" x="695.6" y="95.53" width="1.69" height="178.87"/><rect class="cls-47" x="697.29" y="95.53" width="1.69" height="178.87"/><rect class="cls-48" x="698.99" y="95.53" width="1.69" height="178.87"/><rect class="cls-49" x="700.68" y="95.53" width="1.69" height="178.87"/><rect class="cls-50" x="702.37" y="95.53" width="1.69" height="178.87"/><rect class="cls-51" x="704.07" y="95.53" width="1.69" height="178.87"/><rect class="cls-52" x="705.76" y="95.53" width="1.69" height="178.87"/><rect class="cls-53" x="707.45" y="95.53" width="1.69" height="178.87"/><rect class="cls-54" x="709.14" y="95.53" width="1.69" height="178.87"/><rect class="cls-55" x="710.84" y="95.53" width="1.69" height="178.87"/><rect class="cls-56" x="712.53" y="95.53" width="1.69" height="178.87"/><rect class="cls-57" x="714.22" y="95.53" width="1.69" height="178.87"/><rect class="cls-58" x="715.92" y="95.53" width="1.69" height="178.87"/><rect class="cls-59" x="717.61" y="95.53" width="1.69" height="178.87"/><rect class="cls-60" x="719.3" y="95.53" width="1.69" height="178.87"/><rect class="cls-61" x="720.99" y="95.53" width="1.69" height="178.87"/><rect class="cls-62" x="722.69" y="95.53" width="1.69" height="178.87"/><rect class="cls-63" x="724.38" y="95.53" width="1.69" height="178.87"/><rect class="cls-64" x="726.07" y="95.53" width="1.69" height="178.87"/><rect class="cls-65" x="727.77" y="95.53" width="1.69" height="178.87"/><rect class="cls-66" x="729.46" y="95.53" width="1.69" height="178.87"/><rect class="cls-67" x="731.15" y="95.53" width="1.69" height="178.87"/><rect class="cls-68" x="732.84" y="95.53" width="1.69" height="178.87"/><rect class="cls-69" x="734.54" y="95.53" width="1.69" height="178.87"/><rect class="cls-70" x="736.23" y="95.53" width="1.69" height="178.87"/><rect class="cls-71" x="737.92" y="95.53" width="1.69" height="178.87"/><rect class="cls-72" x="739.62" y="95.53" width="1.69" height="178.87"/><rect class="cls-73" x="741.31" y="95.53" width="1.69" height="178.87"/><rect class="cls-74" x="743" y="95.53" width="1.69" height="178.87"/><rect class="cls-75" x="744.69" y="95.53" width="1.69" height="178.87"/><rect class="cls-76" x="746.39" y="95.53" width="1.69" height="178.87"/><rect class="cls-77" x="748.08" y="95.53" width="1.69" height="178.87"/><rect class="cls-78" x="749.77" y="95.53" width="1.69" height="178.87"/><rect class="cls-79" x="751.47" y="95.53" width="1.69" height="178.87"/><rect class="cls-80" x="753.16" y="95.53" width="1.69" height="178.87"/><rect class="cls-81" x="754.85" y="95.53" width="1.69" height="178.87"/><rect class="cls-82" x="756.54" y="95.53" width="1.69" height="178.87"/><rect class="cls-83" x="758.24" y="95.53" width="1.69" height="178.87"/><rect class="cls-84" x="759.93" y="95.53" width="1.69" height="178.87"/><rect class="cls-85" x="761.62" y="95.53" width="1.69" height="178.87"/><rect class="cls-86" x="763.32" y="95.53" width="1.69" height="178.87"/><rect class="cls-87" x="765.01" y="95.53" width="1.69" height="178.87"/><rect class="cls-88" x="766.7" y="95.53" width="1.69" height="178.87"/><rect class="cls-89" x="768.39" y="95.53" width="1.69" height="178.87"/><rect class="cls-90" x="770.09" y="95.53" width="1.69" height="178.87"/><rect class="cls-91" x="771.78" y="95.53" width="1.69" height="178.87"/><rect class="cls-91" x="773.47" y="95.53" width="2.67" height="178.87"/><rect class="cls-92" x="776.14" y="95.53" width="2.67" height="178.87"/><rect class="cls-93" x="778.82" y="95.53" width="2.67" height="178.87"/><rect class="cls-94" x="781.49" y="95.53" width="2.67" height="178.87"/><rect class="cls-95" x="784.16" y="95.53" width="2.67" height="178.87"/><rect class="cls-96" x="786.83" y="95.53" width="2.67" height="178.87"/><rect class="cls-86" x="789.5" y="95.53" width="2.67" height="178.87"/><rect class="cls-97" x="792.17" y="95.53" width="2.67" height="178.87"/><rect class="cls-98" x="794.84" y="95.53" width="2.67" height="178.87"/><rect class="cls-99" x="797.51" y="95.53" width="2.67" height="178.87"/><rect class="cls-100" x="800.19" y="95.53" width="2.67" height="178.87"/><rect class="cls-101" x="802.86" y="95.53" width="2.67" height="178.87"/><rect class="cls-102" x="805.53" y="95.53" width="2.67" height="178.87"/><rect class="cls-103" x="808.2" y="95.53" width="2.67" height="178.87"/><rect class="cls-104" x="810.87" y="95.53" width="2.67" height="178.87"/><rect class="cls-105" x="813.54" y="95.53" width="2.67" height="178.87"/><rect class="cls-106" x="816.21" y="95.53" width="2.67" height="178.87"/><rect class="cls-107" x="818.88" y="95.53" width="2.67" height="178.87"/><rect class="cls-108" x="821.56" y="95.53" width="2.67" height="178.87"/><rect class="cls-109" x="824.23" y="95.53" width="2.67" height="178.87"/><rect class="cls-110" x="826.9" y="95.53" width="2.67" height="178.87"/><rect class="cls-111" x="829.57" y="95.53" width="2.67" height="178.87"/><rect class="cls-112" x="832.24" y="95.53" width="2.67" height="178.87"/><rect class="cls-113" x="834.91" y="95.53" width="2.67" height="178.87"/><rect class="cls-114" x="837.58" y="95.53" width="2.67" height="178.87"/><rect class="cls-115" x="840.25" y="95.53" width="2.67" height="178.87"/><rect class="cls-116" x="842.93" y="95.53" width="2.67" height="178.87"/><rect class="cls-117" x="845.6" y="95.53" width="2.67" height="178.87"/><rect class="cls-118" x="848.27" y="95.53" width="2.67" height="178.87"/><rect class="cls-119" x="850.94" y="95.53" width="2.67" height="178.87"/><rect class="cls-120" x="853.61" y="95.53" width="2.67" height="178.87"/><rect class="cls-121" x="856.28" y="95.53" width="2.67" height="178.87"/><rect class="cls-122" x="858.95" y="95.53" width="2.67" height="178.87"/><rect class="cls-123" x="861.62" y="95.53" width="2.67" height="178.87"/><rect class="cls-124" x="864.3" y="95.53" width="2.67" height="178.87"/><rect class="cls-125" x="866.97" y="95.53" width="2.67" height="178.87"/><rect class="cls-126" x="869.64" y="95.53" width="2.67" height="178.87"/><rect class="cls-127" x="872.31" y="95.53" width="2.67" height="178.87"/><rect class="cls-128" x="874.98" y="95.53" width="2.67" height="178.87"/><rect class="cls-129" x="877.65" y="95.53" width="2.67" height="178.87"/><rect class="cls-130" x="880.32" y="95.53" width="2.67" height="178.87"/><rect class="cls-131" x="883" y="95.53" width="2.67" height="178.87"/><rect class="cls-132" x="885.67" y="95.53" width="2.67" height="178.87"/><rect class="cls-133" x="888.34" y="95.53" width="2.67" height="178.87"/><rect class="cls-134" x="891.01" y="95.53" width="2.67" height="178.87"/><rect class="cls-135" x="893.68" y="95.53" width="2.67" height="178.87"/><rect class="cls-136" x="896.35" y="95.53" width="2.67" height="178.87"/><rect class="cls-136" x="899.02" y="95.53" width="1.87" height="178.87"/><rect class="cls-136" x="900.9" y="95.53" width="1.87" height="178.87"/><rect class="cls-135" x="902.77" y="95.53" width="1.87" height="178.87"/><rect class="cls-135" x="904.64" y="95.53" width="1.87" height="178.87"/><rect class="cls-137" x="906.52" y="95.53" width="1.87" height="178.87"/><rect class="cls-133" x="908.39" y="95.53" width="1.87" height="178.87"/><rect class="cls-132" x="910.26" y="95.53" width="1.87" height="178.87"/><rect class="cls-138" x="912.14" y="95.53" width="1.87" height="178.87"/><rect class="cls-131" x="914.01" y="95.53" width="1.87" height="178.87"/><rect class="cls-139" x="915.88" y="95.53" width="1.87" height="178.87"/><rect class="cls-129" x="917.76" y="95.53" width="1.87" height="178.87"/><rect class="cls-128" x="919.63" y="95.53" width="1.87" height="178.87"/><rect class="cls-127" x="921.5" y="95.53" width="1.87" height="178.87"/><rect class="cls-126" x="923.38" y="95.53" width="1.87" height="178.87"/><rect class="cls-125" x="925.25" y="95.53" width="1.87" height="178.87"/><rect class="cls-124" x="927.12" y="95.53" width="1.87" height="178.87"/><rect class="cls-123" x="929" y="95.53" width="1.87" height="178.87"/><rect class="cls-122" x="930.87" y="95.53" width="1.87" height="178.87"/><rect class="cls-140" x="932.74" y="95.53" width="1.87" height="178.87"/><rect class="cls-120" x="934.62" y="95.53" width="1.87" height="178.87"/><rect class="cls-141" x="936.49" y="95.53" width="1.87" height="178.87"/><rect class="cls-119" x="938.37" y="95.53" width="1.87" height="178.87"/><rect class="cls-117" x="940.24" y="95.53" width="1.87" height="178.87"/><rect class="cls-116" x="942.11" y="95.53" width="1.87" height="178.87"/><rect class="cls-142" x="943.99" y="95.53" width="1.87" height="178.87"/><rect class="cls-143" x="945.86" y="95.53" width="1.87" height="178.87"/><rect class="cls-113" x="947.73" y="95.53" width="1.87" height="178.87"/><rect class="cls-144" x="949.61" y="95.53" width="1.87" height="178.87"/><rect class="cls-111" x="951.48" y="95.53" width="1.87" height="178.87"/><rect class="cls-110" x="953.35" y="95.53" width="1.87" height="178.87"/><rect class="cls-145" x="955.23" y="95.53" width="1.87" height="178.87"/><rect class="cls-108" x="957.1" y="95.53" width="1.87" height="178.87"/><rect class="cls-107" x="958.97" y="95.53" width="1.87" height="178.87"/><rect class="cls-106" x="960.85" y="95.53" width="1.87" height="178.87"/><rect class="cls-105" x="962.72" y="95.53" width="1.87" height="178.87"/><rect class="cls-104" x="964.59" y="95.53" width="1.87" height="178.87"/><rect class="cls-103" x="966.47" y="95.53" width="1.87" height="178.87"/><rect class="cls-102" x="968.34" y="95.53" width="1.87" height="178.87"/><rect class="cls-101" x="970.21" y="95.53" width="1.87" height="178.87"/><rect class="cls-146" x="972.09" y="95.53" width="1.87" height="178.87"/><rect class="cls-98" x="973.96" y="95.53" width="1.87" height="178.87"/><rect class="cls-97" x="975.83" y="95.53" width="1.87" height="178.87"/><rect class="cls-86" x="977.71" y="95.53" width="1.87" height="178.87"/><rect class="cls-96" x="979.58" y="95.53" width="1.87" height="178.87"/><rect class="cls-95" x="981.45" y="95.53" width="1.87" height="178.87"/><rect class="cls-89" x="983.33" y="95.53" width="1.87" height="178.87"/><rect class="cls-90" x="985.2" y="95.53" width="1.87" height="178.87"/><rect class="cls-147" x="987.08" y="95.53" width="1.87" height="178.87"/><rect class="cls-148" x="988.95" y="95.53" width="1.87" height="178.87"/><rect class="cls-149" x="990.82" y="95.53" width="1.87" height="178.87"/><rect class="cls-150" x="992.7" y="95.53" width="1.87" height="178.87"/><rect class="cls-151" x="994.57" y="95.53" width="1.87" height="178.87"/><rect class="cls-152" x="996.44" y="95.53" width="1.87" height="178.87"/><rect class="cls-153" x="998.32" y="95.53" width="1.87" height="178.87"/><rect class="cls-154" x="1000.19" y="95.53" width="1.87" height="178.87"/><rect class="cls-154" x="1002.06" y="95.53" width="2.31" height="178.87"/><rect class="cls-155" x="1004.37" y="95.53" width="2.31" height="178.87"/><rect class="cls-156" x="1006.68" y="95.53" width="2.31" height="178.87"/><rect class="cls-157" x="1008.98" y="95.53" width="2.31" height="178.87"/><rect class="cls-157" x="1011.29" y="95.53" width="2.31" height="178.87"/><rect class="cls-158" x="1013.6" y="95.53" width="2.31" height="178.87"/><rect class="cls-159" x="1015.91" y="95.53" width="2.31" height="178.87"/><rect class="cls-160" x="1018.21" y="95.53" width="2.31" height="178.87"/><rect class="cls-161" x="1020.52" y="95.53" width="2.31" height="178.87"/><rect class="cls-162" x="1022.83" y="95.53" width="2.31" height="178.87"/><rect class="cls-163" x="1025.13" y="95.53" width="2.31" height="178.87"/><rect class="cls-164" x="1027.44" y="95.53" width="2.31" height="178.87"/><rect class="cls-165" x="1029.75" y="95.53" width="2.31" height="178.87"/><rect class="cls-166" x="1032.06" y="95.53" width="2.31" height="178.87"/><rect class="cls-167" x="1034.36" y="95.53" width="2.31" height="178.87"/><rect class="cls-168" x="1036.67" y="95.53" width="2.31" height="178.87"/><rect class="cls-169" x="1038.98" y="95.53" width="2.31" height="178.87"/><rect class="cls-170" x="1041.28" y="95.53" width="2.31" height="178.87"/><rect class="cls-171" x="1043.59" y="95.53" width="2.31" height="178.87"/><rect class="cls-172" x="1045.9" y="95.53" width="2.31" height="178.87"/><rect class="cls-173" x="1048.21" y="95.53" width="2.31" height="178.87"/><rect class="cls-174" x="1050.51" y="95.53" width="2.31" height="178.87"/><rect class="cls-175" x="1052.82" y="95.53" width="2.31" height="178.87"/><rect class="cls-176" x="1055.13" y="95.53" width="2.31" height="178.87"/><rect class="cls-177" x="1057.43" y="95.53" width="2.31" height="178.87"/><rect class="cls-178" x="1059.74" y="95.53" width="2.31" height="178.87"/><rect class="cls-179" x="1062.05" y="95.53" width="2.31" height="178.87"/><rect class="cls-180" x="1064.36" y="95.53" width="2.31" height="178.87"/><rect class="cls-181" x="1066.66" y="95.53" width="2.31" height="178.87"/><rect class="cls-182" x="1068.97" y="95.53" width="2.31" height="178.87"/><rect class="cls-183" x="1071.28" y="95.53" width="2.31" height="178.87"/><rect class="cls-184" x="1073.58" y="95.53" width="2.31" height="178.87"/><rect class="cls-185" x="1075.89" y="95.53" width="2.31" height="178.87"/><rect class="cls-186" x="1078.2" y="95.53" width="2.31" height="178.87"/><rect class="cls-187" x="1080.51" y="95.53" width="2.31" height="178.87"/><rect class="cls-188" x="1082.81" y="95.53" width="2.31" height="178.87"/><rect class="cls-189" x="1085.12" y="95.53" width="2.31" height="178.87"/></g><g class="cls-190"><rect class="cls-105" x="-0.23" y="95.92" width="2.67" height="178.88"/><rect class="cls-106" x="2.44" y="95.92" width="2.67" height="178.88"/><rect class="cls-107" x="5.11" y="95.92" width="2.67" height="178.88"/><rect class="cls-108" x="7.78" y="95.92" width="2.67" height="178.88"/><rect class="cls-109" x="10.45" y="95.92" width="2.67" height="178.88"/><rect class="cls-110" x="13.12" y="95.92" width="2.67" height="178.88"/><rect class="cls-111" x="15.79" y="95.92" width="2.67" height="178.88"/><rect class="cls-112" x="18.46" y="95.92" width="2.67" height="178.88"/><rect class="cls-113" x="21.14" y="95.92" width="2.67" height="178.88"/><rect class="cls-114" x="23.81" y="95.92" width="2.67" height="178.88"/><rect class="cls-115" x="26.48" y="95.92" width="2.67" height="178.88"/><rect class="cls-116" x="29.15" y="95.92" width="2.67" height="178.88"/><rect class="cls-117" x="31.82" y="95.92" width="2.67" height="178.88"/><rect class="cls-118" x="34.49" y="95.92" width="2.67" height="178.88"/><rect class="cls-119" x="37.16" y="95.92" width="2.67" height="178.88"/><rect class="cls-120" x="39.83" y="95.92" width="2.67" height="178.88"/><rect class="cls-121" x="42.51" y="95.92" width="2.67" height="178.88"/><rect class="cls-122" x="45.18" y="95.92" width="2.67" height="178.88"/><rect class="cls-123" x="47.85" y="95.92" width="2.67" height="178.88"/><rect class="cls-124" x="50.52" y="95.92" width="2.67" height="178.88"/><rect class="cls-125" x="53.19" y="95.92" width="2.67" height="178.88"/><rect class="cls-126" x="55.86" y="95.92" width="2.67" height="178.88"/><rect class="cls-127" x="58.53" y="95.92" width="2.67" height="178.88"/><rect class="cls-128" x="61.2" y="95.92" width="2.67" height="178.88"/><rect class="cls-129" x="63.88" y="95.92" width="2.67" height="178.88"/><rect class="cls-130" x="66.55" y="95.92" width="2.67" height="178.88"/><rect class="cls-131" x="69.22" y="95.92" width="2.67" height="178.88"/><rect class="cls-132" x="71.89" y="95.92" width="2.67" height="178.88"/><rect class="cls-133" x="74.56" y="95.92" width="2.67" height="178.88"/><rect class="cls-134" x="77.23" y="95.92" width="2.67" height="178.88"/><rect class="cls-135" x="79.9" y="95.92" width="2.67" height="178.88"/><rect class="cls-136" x="82.58" y="95.92" width="2.67" height="178.88"/><rect class="cls-136" x="85.25" y="95.92" width="1.87" height="178.88"/><rect class="cls-136" x="87.12" y="95.92" width="1.87" height="178.88"/><rect class="cls-135" x="88.99" y="95.92" width="1.87" height="178.88"/><rect class="cls-135" x="90.87" y="95.92" width="1.87" height="178.88"/><rect class="cls-137" x="92.74" y="95.92" width="1.87" height="178.88"/><rect class="cls-133" x="94.61" y="95.92" width="1.87" height="178.88"/><rect class="cls-132" x="96.49" y="95.92" width="1.87" height="178.88"/><rect class="cls-138" x="98.36" y="95.92" width="1.87" height="178.88"/><rect class="cls-131" x="100.23" y="95.92" width="1.87" height="178.88"/><rect class="cls-139" x="102.11" y="95.92" width="1.87" height="178.88"/><rect class="cls-129" x="103.98" y="95.92" width="1.87" height="178.88"/><rect class="cls-128" x="105.85" y="95.92" width="1.87" height="178.88"/><rect class="cls-127" x="107.73" y="95.92" width="1.87" height="178.88"/><rect class="cls-126" x="109.6" y="95.92" width="1.87" height="178.88"/><rect class="cls-125" x="111.47" y="95.92" width="1.87" height="178.88"/><rect class="cls-124" x="113.35" y="95.92" width="1.87" height="178.88"/><rect class="cls-123" x="115.22" y="95.92" width="1.87" height="178.88"/><rect class="cls-122" x="117.1" y="95.92" width="1.87" height="178.88"/><rect class="cls-140" x="118.97" y="95.92" width="1.87" height="178.88"/><rect class="cls-120" x="120.84" y="95.92" width="1.87" height="178.88"/><rect class="cls-141" x="122.72" y="95.92" width="1.87" height="178.88"/><rect class="cls-119" x="124.59" y="95.92" width="1.87" height="178.88"/><rect class="cls-117" x="126.46" y="95.92" width="1.87" height="178.88"/><rect class="cls-116" x="128.34" y="95.92" width="1.87" height="178.88"/><rect class="cls-142" x="130.21" y="95.92" width="1.87" height="178.88"/><rect class="cls-143" x="132.08" y="95.92" width="1.87" height="178.88"/><rect class="cls-113" x="133.96" y="95.92" width="1.87" height="178.88"/><rect class="cls-144" x="135.83" y="95.92" width="1.87" height="178.88"/><rect class="cls-111" x="137.7" y="95.92" width="1.87" height="178.88"/><rect class="cls-110" x="139.58" y="95.92" width="1.87" height="178.88"/><rect class="cls-145" x="141.45" y="95.92" width="1.87" height="178.88"/><rect class="cls-108" x="143.32" y="95.92" width="1.87" height="178.88"/><rect class="cls-107" x="145.2" y="95.92" width="1.87" height="178.88"/><rect class="cls-106" x="147.07" y="95.92" width="1.87" height="178.88"/><rect class="cls-105" x="148.94" y="95.92" width="1.87" height="178.88"/><rect class="cls-104" x="150.82" y="95.92" width="1.87" height="178.88"/><rect class="cls-103" x="152.69" y="95.92" width="1.87" height="178.88"/><rect class="cls-102" x="154.56" y="95.92" width="1.87" height="178.88"/><rect class="cls-101" x="156.44" y="95.92" width="1.87" height="178.88"/><rect class="cls-146" x="158.31" y="95.92" width="1.87" height="178.88"/><rect class="cls-98" x="160.18" y="95.92" width="1.87" height="178.88"/><rect class="cls-97" x="162.06" y="95.92" width="1.87" height="178.88"/><rect class="cls-86" x="163.93" y="95.92" width="1.87" height="178.88"/><rect class="cls-96" x="165.81" y="95.92" width="1.87" height="178.88"/><rect class="cls-95" x="167.68" y="95.92" width="1.87" height="178.88"/><rect class="cls-89" x="169.55" y="95.92" width="1.87" height="178.88"/><rect class="cls-90" x="171.43" y="95.92" width="1.87" height="178.88"/><rect class="cls-147" x="173.3" y="95.92" width="1.87" height="178.88"/><rect class="cls-148" x="175.17" y="95.92" width="1.87" height="178.88"/><rect class="cls-149" x="177.05" y="95.92" width="1.87" height="178.88"/><rect class="cls-150" x="178.92" y="95.92" width="1.87" height="178.88"/><rect class="cls-151" x="180.79" y="95.92" width="1.87" height="178.88"/><rect class="cls-152" x="182.67" y="95.92" width="1.87" height="178.88"/><rect class="cls-153" x="184.54" y="95.92" width="1.87" height="178.88"/><rect class="cls-154" x="186.41" y="95.92" width="1.87" height="178.88"/><rect class="cls-154" x="188.29" y="95.92" width="2.31" height="178.88"/><rect class="cls-155" x="190.59" y="95.92" width="2.31" height="178.88"/><rect class="cls-156" x="192.9" y="95.92" width="2.31" height="178.88"/><rect class="cls-157" x="195.21" y="95.92" width="2.31" height="178.88"/><rect class="cls-157" x="197.52" y="95.92" width="2.31" height="178.88"/><rect class="cls-158" x="199.82" y="95.92" width="2.31" height="178.88"/><rect class="cls-159" x="202.13" y="95.92" width="2.31" height="178.88"/><rect class="cls-160" x="204.44" y="95.92" width="2.31" height="178.88"/><rect class="cls-161" x="206.74" y="95.92" width="2.31" height="178.88"/><rect class="cls-162" x="209.05" y="95.92" width="2.31" height="178.88"/><rect class="cls-163" x="211.36" y="95.92" width="2.31" height="178.88"/><rect class="cls-164" x="213.66" y="95.92" width="2.31" height="178.88"/><rect class="cls-165" x="215.97" y="95.92" width="2.31" height="178.88"/><rect class="cls-166" x="218.28" y="95.92" width="2.31" height="178.88"/><rect class="cls-167" x="220.59" y="95.92" width="2.31" height="178.88"/><rect class="cls-168" x="222.89" y="95.92" width="2.31" height="178.88"/><rect class="cls-169" x="225.2" y="95.92" width="2.31" height="178.88"/><rect class="cls-170" x="227.51" y="95.92" width="2.31" height="178.88"/><rect class="cls-171" x="229.81" y="95.92" width="2.31" height="178.88"/><rect class="cls-172" x="232.12" y="95.92" width="2.31" height="178.88"/><rect class="cls-173" x="234.43" y="95.92" width="2.31" height="178.88"/><rect class="cls-174" x="236.74" y="95.92" width="2.31" height="178.88"/><rect class="cls-175" x="239.04" y="95.92" width="2.31" height="178.88"/><rect class="cls-176" x="241.35" y="95.92" width="2.31" height="178.88"/><rect class="cls-177" x="243.66" y="95.92" width="2.31" height="178.88"/><rect class="cls-178" x="245.96" y="95.92" width="2.31" height="178.88"/><rect class="cls-179" x="248.27" y="95.92" width="2.31" height="178.88"/><rect class="cls-180" x="250.58" y="95.92" width="2.31" height="178.88"/><rect class="cls-181" x="252.89" y="95.92" width="2.31" height="178.88"/><rect class="cls-182" x="255.19" y="95.92" width="2.31" height="178.88"/><rect class="cls-183" x="257.5" y="95.92" width="2.31" height="178.88"/><rect class="cls-184" x="259.81" y="95.92" width="2.31" height="178.88"/><rect class="cls-185" x="262.11" y="95.92" width="2.31" height="178.88"/><rect class="cls-186" x="264.42" y="95.92" width="2.31" height="178.88"/><rect class="cls-187" x="266.73" y="95.92" width="2.31" height="178.88"/><rect class="cls-188" x="269.04" y="95.92" width="2.31" height="178.88"/><rect class="cls-189" x="271.34" y="95.92" width="2.31" height="178.88"/><rect class="cls-191" x="273.65" y="95.92" width="2.31" height="178.88"/><rect class="cls-192" x="275.96" y="95.92" width="2.31" height="178.88"/><rect class="cls-193" x="278.26" y="95.92" width="2.31" height="178.88"/><rect class="cls-194" x="280.57" y="95.92" width="2.31" height="178.88"/><rect class="cls-195" x="282.88" y="95.92" width="2.31" height="178.88"/><rect class="cls-196" x="285.19" y="95.92" width="2.31" height="178.88"/><rect class="cls-197" x="287.49" y="95.92" width="2.31" height="178.88"/><rect class="cls-198" x="289.8" y="95.92" width="2.31" height="178.88"/><rect class="cls-199" x="292.11" y="95.92" width="2.31" height="178.88"/><rect class="cls-200" x="294.41" y="95.92" width="2.31" height="178.88"/><rect class="cls-201" x="296.72" y="95.92" width="2.31" height="178.88"/><rect class="cls-202" x="299.03" y="95.92" width="2.31" height="178.88"/><rect class="cls-203" x="301.34" y="95.92" width="2.31" height="178.88"/><rect class="cls-204" x="303.64" y="95.92" width="2.31" height="178.88"/><rect class="cls-205" x="305.95" y="95.92" width="2.31" height="178.88"/><rect class="cls-206" x="308.26" y="95.92" width="2.31" height="178.88"/><rect class="cls-207" x="310.56" y="95.92" width="2.31" height="178.88"/><rect class="cls-208" x="312.87" y="95.92" width="2.31" height="178.88"/><rect class="cls-209" x="315.18" y="95.92" width="2.31" height="178.88"/><rect class="cls-210" x="317.49" y="95.92" width="2.31" height="178.88"/><rect class="cls-211" x="319.79" y="95.92" width="2.31" height="178.88"/><rect class="cls-212" x="322.1" y="95.92" width="2.31" height="178.88"/><rect class="cls-213" x="324.41" y="95.92" width="2.31" height="178.88"/><rect class="cls-214" x="326.71" y="95.92" width="2.31" height="178.88"/><rect class="cls-215" x="329.02" y="95.92" width="2.31" height="178.88"/><rect class="cls-216" x="331.33" y="95.92" width="2.31" height="178.88"/><rect class="cls-217" x="333.64" y="95.92" width="2.31" height="178.88"/><rect class="cls-218" x="335.94" y="95.92" width="2.31" height="178.88"/><rect class="cls-219" x="338.25" y="95.92" width="2.31" height="178.88"/><rect class="cls-220" x="340.56" y="95.92" width="2.31" height="178.88"/><rect class="cls-221" x="342.86" y="95.92" width="2.31" height="178.88"/><rect class="cls-222" x="345.17" y="95.92" width="2.31" height="178.88"/><rect class="cls-223" x="347.48" y="95.92" width="2.31" height="178.88"/><rect class="cls-224" x="349.79" y="95.92" width="2.31" height="178.88"/><rect class="cls-225" x="352.09" y="95.92" width="2.31" height="178.88"/><rect class="cls-226" x="354.4" y="95.92" width="2.31" height="178.88"/><rect class="cls-227" x="356.71" y="95.92" width="2.31" height="178.88"/><rect class="cls-228" x="359.01" y="95.92" width="2.31" height="178.88"/><rect class="cls-228" x="361.32" y="95.92" width="0.67" height="178.88"/><rect class="cls-229" x="361.99" y="95.92" width="0.67" height="178.88"/><rect class="cls-230" x="362.66" y="95.92" width="0.67" height="178.88"/><rect class="cls-231" x="363.34" y="95.92" width="0.67" height="178.88"/><rect class="cls-232" x="364.01" y="95.92" width="0.67" height="178.88"/><rect class="cls-233" x="364.68" y="95.92" width="0.67" height="178.88"/><rect class="cls-234" x="365.35" y="95.92" width="0.67" height="178.88"/><rect class="cls-235" x="366.02" y="95.92" width="0.67" height="178.88"/><rect class="cls-236" x="366.69" y="95.92" width="0.67" height="178.88"/><rect class="cls-237" x="367.36" y="95.92" width="0.67" height="178.88"/><rect class="cls-238" x="368.03" y="95.92" width="0.67" height="178.88"/><rect class="cls-239" x="368.7" y="95.92" width="0.67" height="178.88"/><rect class="cls-240" x="369.38" y="95.92" width="0.67" height="178.88"/><rect class="cls-241" x="370.05" y="95.92" width="0.67" height="178.88"/><rect class="cls-242" x="370.72" y="95.92" width="0.67" height="178.88"/><rect class="cls-243" x="371.39" y="95.92" width="0.67" height="178.88"/><rect class="cls-244" x="372.06" y="95.92" width="0.67" height="178.88"/><rect class="cls-245" x="372.73" y="95.92" width="0.67" height="178.88"/><rect class="cls-246" x="373.4" y="95.92" width="0.67" height="178.88"/><rect class="cls-247" x="374.07" y="95.92" width="0.67" height="178.88"/><rect class="cls-248" x="374.75" y="95.92" width="0.67" height="178.88"/><rect class="cls-249" x="375.42" y="95.92" width="0.67" height="178.88"/><rect class="cls-250" x="376.09" y="95.92" width="0.67" height="178.88"/><rect class="cls-251" x="376.76" y="95.92" width="0.67" height="178.88"/><rect class="cls-252" x="377.43" y="95.92" width="0.67" height="178.88"/><rect class="cls-253" x="378.1" y="95.92" width="0.67" height="178.88"/><rect class="cls-254" x="378.77" y="95.92" width="0.67" height="178.88"/><rect class="cls-255" x="379.44" y="95.92" width="0.67" height="178.88"/><rect class="cls-256" x="380.12" y="95.92" width="0.67" height="178.88"/><rect class="cls-257" x="380.79" y="95.92" width="0.67" height="178.88"/><rect class="cls-258" x="381.46" y="95.92" width="0.67" height="178.88"/><rect class="cls-259" x="382.13" y="95.92" width="0.67" height="178.88"/><rect class="cls-260" x="382.8" y="95.92" width="0.67" height="178.88"/><rect class="cls-261" x="383.47" y="95.92" width="0.67" height="178.88"/><rect class="cls-262" x="384.14" y="95.92" width="0.67" height="178.88"/><rect class="cls-263" x="384.81" y="95.92" width="0.67" height="178.88"/><rect class="cls-264" x="385.49" y="95.92" width="0.67" height="178.88"/><rect class="cls-265" x="386.16" y="95.92" width="0.67" height="178.88"/><rect class="cls-266" x="386.83" y="95.92" width="0.67" height="178.88"/><rect class="cls-267" x="387.5" y="95.92" width="0.67" height="178.88"/><rect class="cls-268" x="388.17" y="95.92" width="0.67" height="178.88"/><rect class="cls-269" x="388.84" y="95.92" width="0.67" height="178.88"/><rect class="cls-270" x="389.51" y="95.92" width="0.67" height="178.88"/><rect class="cls-271" x="390.18" y="95.92" width="0.67" height="178.88"/><rect class="cls-272" x="390.86" y="95.92" width="0.67" height="178.88"/><rect class="cls-273" x="391.53" y="95.92" width="0.67" height="178.88"/><rect class="cls-274" x="392.2" y="95.92" width="0.67" height="178.88"/><rect class="cls-275" x="392.87" y="95.92" width="0.67" height="178.88"/><rect class="cls-276" x="393.54" y="95.92" width="0.67" height="178.88"/><rect class="cls-277" x="394.21" y="95.92" width="0.67" height="178.88"/><rect class="cls-278" x="394.88" y="95.92" width="0.67" height="178.88"/><rect class="cls-279" x="395.55" y="95.92" width="0.67" height="178.88"/><rect class="cls-280" x="396.23" y="95.92" width="0.67" height="178.88"/><rect class="cls-281" x="396.9" y="95.92" width="0.67" height="178.88"/><rect class="cls-282" x="397.57" y="95.92" width="0.67" height="178.88"/><rect class="cls-283" x="398.24" y="95.92" width="0.67" height="178.88"/><rect class="cls-284" x="398.91" y="95.92" width="0.67" height="178.88"/><rect class="cls-285" x="399.58" y="95.92" width="0.67" height="178.88"/><rect class="cls-286" x="400.25" y="95.92" width="0.67" height="178.88"/><rect class="cls-287" x="400.92" y="95.92" width="0.67" height="178.88"/><rect class="cls-288" x="401.6" y="95.92" width="0.67" height="178.88"/><rect class="cls-289" x="402.27" y="95.92" width="0.67" height="178.88"/><rect class="cls-290" x="402.94" y="95.92" width="0.67" height="178.88"/><rect class="cls-291" x="403.61" y="95.92" width="0.67" height="178.88"/><rect class="cls-292" x="404.28" y="95.92" width="0.67" height="178.88"/><rect class="cls-293" x="404.95" y="95.92" width="0.67" height="178.88"/><rect class="cls-294" x="405.62" y="95.92" width="0.67" height="178.88"/><rect class="cls-295" x="406.29" y="95.92" width="0.67" height="178.88"/><rect class="cls-296" x="406.97" y="95.92" width="0.67" height="178.88"/><rect class="cls-297" x="407.64" y="95.92" width="0.67" height="178.88"/><rect class="cls-298" x="408.31" y="95.92" width="0.67" height="178.88"/><rect class="cls-299" x="408.98" y="95.92" width="0.67" height="178.88"/><rect class="cls-300" x="409.65" y="95.92" width="0.67" height="178.88"/><rect class="cls-301" x="410.32" y="95.92" width="0.67" height="178.88"/><rect class="cls-302" x="410.99" y="95.92" width="0.67" height="178.88"/><rect class="cls-303" x="411.66" y="95.92" width="0.67" height="178.88"/><rect class="cls-304" x="412.34" y="95.92" width="0.67" height="178.88"/><rect class="cls-305" x="413.01" y="95.92" width="0.67" height="178.88"/><rect class="cls-306" x="413.68" y="95.92" width="0.67" height="178.88"/><rect class="cls-307" x="414.35" y="95.92" width="0.67" height="178.88"/><rect class="cls-308" x="415.02" y="95.92" width="0.67" height="178.88"/><rect class="cls-309" x="415.69" y="95.92" width="0.67" height="178.88"/><rect class="cls-310" x="416.36" y="95.92" width="0.67" height="178.88"/><rect class="cls-311" x="417.03" y="95.92" width="0.67" height="178.88"/><rect class="cls-312" x="417.71" y="95.92" width="0.67" height="178.88"/><rect class="cls-313" x="418.38" y="95.92" width="0.67" height="178.88"/><rect class="cls-314" x="419.05" y="95.92" width="0.67" height="178.88"/><rect class="cls-315" x="419.72" y="95.92" width="0.67" height="178.88"/><rect class="cls-316" x="420.39" y="95.92" width="0.67" height="178.88"/><rect class="cls-317" x="421.06" y="95.92" width="0.67" height="178.88"/><rect class="cls-318" x="421.73" y="95.92" width="0.67" height="178.88"/><rect class="cls-319" x="422.4" y="95.92" width="0.67" height="178.88"/><rect class="cls-320" x="423.08" y="95.92" width="0.67" height="178.88"/><rect class="cls-321" x="423.75" y="95.92" width="0.67" height="178.88"/><rect class="cls-322" x="424.42" y="95.92" width="0.67" height="178.88"/><rect class="cls-323" x="425.09" y="95.92" width="0.67" height="178.88"/><rect class="cls-324" x="425.76" y="95.92" width="0.67" height="178.88"/><rect class="cls-325" x="426.43" y="95.92" width="0.67" height="178.88"/><rect class="cls-326" x="427.1" y="95.92" width="0.67" height="178.88"/><rect class="cls-327" x="427.77" y="95.92" width="0.67" height="178.88"/><rect class="cls-328" x="428.45" y="95.92" width="0.67" height="178.88"/><rect class="cls-329" x="429.12" y="95.92" width="0.67" height="178.88"/><rect class="cls-330" x="429.79" y="95.92" width="0.67" height="178.88"/><rect class="cls-330" x="430.46" y="95.92" width="0.67" height="178.88"/><rect class="cls-331" x="431.13" y="95.92" width="0.67" height="178.88"/><rect class="cls-332" x="431.8" y="95.92" width="0.67" height="178.88"/><rect class="cls-333" x="432.47" y="95.92" width="0.67" height="178.88"/><rect class="cls-334" x="433.14" y="95.92" width="0.67" height="178.88"/><rect class="cls-335" x="433.82" y="95.92" width="0.67" height="178.88"/><rect class="cls-336" x="434.49" y="95.92" width="0.67" height="178.88"/><rect class="cls-337" x="435.16" y="95.92" width="0.67" height="178.88"/><rect class="cls-337" x="435.83" y="95.92" width="0.67" height="178.88"/><rect class="cls-338" x="436.5" y="95.92" width="0.67" height="178.88"/><rect class="cls-339" x="437.17" y="95.92" width="0.67" height="178.88"/><rect class="cls-340" x="437.84" y="95.92" width="0.67" height="178.88"/><rect class="cls-341" x="438.51" y="95.92" width="0.67" height="178.88"/><rect class="cls-342" x="439.19" y="95.92" width="0.67" height="178.88"/><rect class="cls-343" x="439.86" y="95.92" width="0.67" height="178.88"/><rect class="cls-343" x="440.53" y="95.92" width="0.67" height="178.88"/><rect class="cls-344" x="441.2" y="95.92" width="0.67" height="178.88"/><rect class="cls-345" x="441.87" y="95.92" width="0.67" height="178.88"/><rect class="cls-345" x="442.54" y="95.92" width="0.25" height="178.88"/></g><g class="cls-346"><rect class="cls-8" x="1021.87" y="74.39" width="3.34" height="189.29"/><rect class="cls-8" x="1025.21" y="74.39" width="1.48" height="189.29"/><rect class="cls-9" x="1026.69" y="74.39" width="1.48" height="189.29"/><rect class="cls-10" x="1028.17" y="74.39" width="1.48" height="189.29"/><rect class="cls-11" x="1029.65" y="74.39" width="1.48" height="189.29"/><rect class="cls-12" x="1031.13" y="74.39" width="1.48" height="189.29"/><rect class="cls-13" x="1032.61" y="74.39" width="1.48" height="189.29"/><rect class="cls-14" x="1034.09" y="74.39" width="1.48" height="189.29"/><rect class="cls-15" x="1035.57" y="74.39" width="1.48" height="189.29"/><rect class="cls-16" x="1037.05" y="74.39" width="1.48" height="189.29"/><rect class="cls-17" x="1038.53" y="74.39" width="1.48" height="189.29"/><rect class="cls-18" x="1040.01" y="74.39" width="1.48" height="189.29"/><rect class="cls-19" x="1041.49" y="74.39" width="1.48" height="189.29"/><rect class="cls-20" x="1042.97" y="74.39" width="1.48" height="189.29"/><rect class="cls-21" x="1044.45" y="74.39" width="1.48" height="189.29"/><rect class="cls-22" x="1045.94" y="74.39" width="1.48" height="189.29"/><rect class="cls-23" x="1047.42" y="74.39" width="1.48" height="189.29"/><rect class="cls-24" x="1048.9" y="74.39" width="1.48" height="189.29"/><rect class="cls-25" x="1050.38" y="74.39" width="1.48" height="189.29"/><rect class="cls-26" x="1051.86" y="74.39" width="1.48" height="189.29"/><rect class="cls-27" x="1053.34" y="74.39" width="1.48" height="189.29"/><rect class="cls-28" x="1054.82" y="74.39" width="1.48" height="189.29"/><rect class="cls-29" x="1056.3" y="74.39" width="1.48" height="189.29"/><rect class="cls-30" x="1057.78" y="74.39" width="1.48" height="189.29"/><rect class="cls-31" x="1059.26" y="74.39" width="1.48" height="189.29"/><rect class="cls-32" x="1060.74" y="74.39" width="1.48" height="189.29"/><rect class="cls-33" x="1062.22" y="74.39" width="1.48" height="189.29"/><rect class="cls-34" x="1063.7" y="74.39" width="1.48" height="189.29"/><rect class="cls-35" x="1065.18" y="74.39" width="1.48" height="189.29"/><rect class="cls-36" x="1066.66" y="74.39" width="1.48" height="189.29"/><rect class="cls-37" x="1068.14" y="74.39" width="1.48" height="189.29"/><rect class="cls-38" x="1069.62" y="74.39" width="1.48" height="189.29"/><rect class="cls-39" x="1071.1" y="74.39" width="1.48" height="189.29"/><rect class="cls-40" x="1072.58" y="74.39" width="1.48" height="189.29"/><rect class="cls-41" x="1074.06" y="74.39" width="1.48" height="189.29"/><rect class="cls-42" x="1075.54" y="74.39" width="1.48" height="189.29"/><rect class="cls-43" x="1077.02" y="74.39" width="1.48" height="189.29"/><rect class="cls-44" x="1078.5" y="74.39" width="1.48" height="189.29"/><rect class="cls-45" x="1079.98" y="74.39" width="1.48" height="189.29"/><rect class="cls-46" x="1081.46" y="74.39" width="1.48" height="189.29"/><rect class="cls-47" x="1082.94" y="74.39" width="1.48" height="189.29"/><rect class="cls-48" x="1084.43" y="74.39" width="1.48" height="189.29"/><rect class="cls-49" x="1085.91" y="74.39" width="1.48" height="189.29"/></g><g class="cls-347"><rect class="cls-266" x="-0.56" y="74.78" width="0.59" height="189.28"/><rect class="cls-267" x="0.03" y="74.78" width="0.59" height="189.28"/><rect class="cls-268" x="0.62" y="74.78" width="0.59" height="189.28"/><rect class="cls-269" x="1.2" y="74.78" width="0.59" height="189.28"/><rect class="cls-270" x="1.79" y="74.78" width="0.59" height="189.28"/><rect class="cls-271" x="2.38" y="74.78" width="0.59" height="189.28"/><rect class="cls-272" x="2.96" y="74.78" width="0.59" height="189.28"/><rect class="cls-273" x="3.55" y="74.78" width="0.59" height="189.28"/><rect class="cls-274" x="4.14" y="74.78" width="0.59" height="189.28"/><rect class="cls-275" x="4.72" y="74.78" width="0.59" height="189.28"/><rect class="cls-276" x="5.31" y="74.78" width="0.59" height="189.28"/><rect class="cls-277" x="5.9" y="74.78" width="0.59" height="189.28"/><rect class="cls-278" x="6.49" y="74.78" width="0.59" height="189.28"/><rect class="cls-279" x="7.07" y="74.78" width="0.59" height="189.28"/><rect class="cls-280" x="7.66" y="74.78" width="0.59" height="189.28"/><rect class="cls-281" x="8.25" y="74.78" width="0.59" height="189.28"/><rect class="cls-282" x="8.83" y="74.78" width="0.59" height="189.28"/><rect class="cls-283" x="9.42" y="74.78" width="0.59" height="189.28"/><rect class="cls-284" x="10.01" y="74.78" width="0.59" height="189.28"/><rect class="cls-285" x="10.59" y="74.78" width="0.59" height="189.28"/><rect class="cls-286" x="11.18" y="74.78" width="0.59" height="189.28"/><rect class="cls-287" x="11.77" y="74.78" width="0.59" height="189.28"/><rect class="cls-288" x="12.36" y="74.78" width="0.59" height="189.28"/><rect class="cls-289" x="12.94" y="74.78" width="0.59" height="189.28"/><rect class="cls-290" x="13.53" y="74.78" width="0.59" height="189.28"/><rect class="cls-291" x="14.12" y="74.78" width="0.59" height="189.28"/><rect class="cls-292" x="14.7" y="74.78" width="0.59" height="189.28"/><rect class="cls-293" x="15.29" y="74.78" width="0.59" height="189.28"/><rect class="cls-294" x="15.88" y="74.78" width="0.59" height="189.28"/><rect class="cls-295" x="16.46" y="74.78" width="0.59" height="189.28"/><rect class="cls-296" x="17.05" y="74.78" width="0.59" height="189.28"/><rect class="cls-297" x="17.64" y="74.78" width="0.59" height="189.28"/><rect class="cls-298" x="18.23" y="74.78" width="0.59" height="189.28"/><rect class="cls-299" x="18.81" y="74.78" width="0.59" height="189.28"/><rect class="cls-300" x="19.4" y="74.78" width="0.59" height="189.28"/><rect class="cls-301" x="19.99" y="74.78" width="0.59" height="189.28"/><rect class="cls-302" x="20.57" y="74.78" width="0.59" height="189.28"/><rect class="cls-303" x="21.16" y="74.78" width="0.59" height="189.28"/><rect class="cls-304" x="21.75" y="74.78" width="0.59" height="189.28"/><rect class="cls-305" x="22.33" y="74.78" width="0.59" height="189.28"/><rect class="cls-306" x="22.92" y="74.78" width="0.59" height="189.28"/><rect class="cls-307" x="23.51" y="74.78" width="0.59" height="189.28"/><rect class="cls-308" x="24.1" y="74.78" width="0.59" height="189.28"/><rect class="cls-309" x="24.68" y="74.78" width="0.59" height="189.28"/><rect class="cls-310" x="25.27" y="74.78" width="0.59" height="189.28"/><rect class="cls-311" x="25.86" y="74.78" width="0.59" height="189.28"/><rect class="cls-312" x="26.44" y="74.78" width="0.59" height="189.28"/><rect class="cls-313" x="27.03" y="74.78" width="0.59" height="189.28"/><rect class="cls-314" x="27.62" y="74.78" width="0.59" height="189.28"/><rect class="cls-315" x="28.2" y="74.78" width="0.59" height="189.28"/><rect class="cls-316" x="28.79" y="74.78" width="0.59" height="189.28"/><rect class="cls-317" x="29.38" y="74.78" width="0.59" height="189.28"/><rect class="cls-318" x="29.96" y="74.78" width="0.59" height="189.28"/><rect class="cls-319" x="30.55" y="74.78" width="0.59" height="189.28"/><rect class="cls-320" x="31.14" y="74.78" width="0.59" height="189.28"/><rect class="cls-321" x="31.73" y="74.78" width="0.59" height="189.28"/><rect class="cls-322" x="32.31" y="74.78" width="0.59" height="189.28"/><rect class="cls-323" x="32.9" y="74.78" width="0.59" height="189.28"/><rect class="cls-324" x="33.49" y="74.78" width="0.59" height="189.28"/><rect class="cls-325" x="34.07" y="74.78" width="0.59" height="189.28"/><rect class="cls-326" x="34.66" y="74.78" width="0.59" height="189.28"/><rect class="cls-327" x="35.25" y="74.78" width="0.59" height="189.28"/><rect class="cls-328" x="35.83" y="74.78" width="0.59" height="189.28"/><rect class="cls-329" x="36.42" y="74.78" width="0.59" height="189.28"/><rect class="cls-330" x="37.01" y="74.78" width="0.59" height="189.28"/><rect class="cls-330" x="37.6" y="74.78" width="0.59" height="189.28"/><rect class="cls-331" x="38.18" y="74.78" width="0.59" height="189.28"/><rect class="cls-332" x="38.77" y="74.78" width="0.59" height="189.28"/><rect class="cls-333" x="39.36" y="74.78" width="0.59" height="189.28"/><rect class="cls-334" x="39.94" y="74.78" width="0.59" height="189.28"/><rect class="cls-335" x="40.53" y="74.78" width="0.59" height="189.28"/><rect class="cls-336" x="41.12" y="74.78" width="0.59" height="189.28"/><rect class="cls-337" x="41.7" y="74.78" width="0.59" height="189.28"/><rect class="cls-337" x="42.29" y="74.78" width="0.59" height="189.28"/><rect class="cls-338" x="42.88" y="74.78" width="0.59" height="189.28"/><rect class="cls-339" x="43.47" y="74.78" width="0.59" height="189.28"/><rect class="cls-340" x="44.05" y="74.78" width="0.59" height="189.28"/><rect class="cls-341" x="44.64" y="74.78" width="0.59" height="189.28"/><rect class="cls-342" x="45.23" y="74.78" width="0.59" height="189.28"/><rect class="cls-343" x="45.81" y="74.78" width="0.59" height="189.28"/><rect class="cls-343" x="46.4" y="74.78" width="0.59" height="189.28"/><rect class="cls-344" x="46.99" y="74.78" width="0.59" height="189.28"/><rect class="cls-345" x="47.57" y="74.78" width="0.59" height="189.28"/><rect class="cls-345" x="48.16" y="74.78" width="0.26" height="189.28"/></g><path class="cls-348" d="M615.35,210.63a1.81,1.81,0,0,1-1.59-2.66c22.36-41.48,81.67-83.94,126.13-102.83,39-16.58,85.65-23.1,134.89-18.92,79.31,6.76,153,39.24,208.37,66.79,4.58,2.27,9.21,4.66,13.9,7.06,26.61,13.64,54.12,27.76,83.1,30,27.63,2.14,59.52-17.12,72.52-43.79C1265.9,119.08,1259,84,1235.45,58.9c-20.76-22.11-54.12-21-76.33-8.41-23.39,13.23-33,36.41-25.8,62,4.89,17.31,19.72,31.35,36.89,34.93,17.7,3.69,37.2-5.94,43.5-21.47,4.24-10.47,2.22-22.83-4.92-30.06-9.42-9.55-23.48-7.09-31.63.8a1.8,1.8,0,1,1-2.5-2.59c10.73-10.38,26.85-10.7,36.69-.74,8.12,8.23,10.46,22.18,5.69,33.94-7,17.36-27.87,27.77-47.56,23.65-18.46-3.86-34.38-18.92-39.63-37.48-7.71-27.32,2.57-52,27.5-66.14,23.45-13.25,58.7-14.38,80.72,9.08,24.55,26.16,31.72,62.88,17.83,91.39-13.59,27.89-47,48-76,45.8-29.71-2.27-57.55-16.55-84.47-30.36-4.67-2.4-9.29-4.77-13.86-7-55.07-27.4-128.37-59.71-207.07-66.41-48.68-4.17-94.72,2.29-133.19,18.63C697.4,127.1,638.9,168.92,616.93,209.68A1.78,1.78,0,0,1,615.35,210.63Z"/><path class="cls-348" d="M454.94,211a1.8,1.8,0,0,1-1.59-1c-22-40.76-80.47-82.58-124.36-101.23C290.52,92.5,244.45,86,195.81,90.21c-78.71,6.71-152,39-207.07,66.41-4.57,2.28-9.19,4.65-13.86,7C-52,177.47-79.88,191.76-109.6,194c-29,2.24-62.42-17.91-76-45.8-13.89-28.5-6.72-65.22,17.83-91.39,22-23.46,57.29-22.33,80.73-9.07,24.93,14.09,35.2,38.81,27.49,66.13-5.24,18.57-21.17,33.63-39.63,37.48-19.6,4.12-40.52-6.28-47.56-23.65-4.77-11.75-2.42-25.71,5.7-33.94,9.83-10,25.94-9.64,36.69.75a1.8,1.8,0,0,1,0,2.54,1.79,1.79,0,0,1-2.54,0c-8.16-7.88-22.22-10.34-31.64-.8-7.13,7.23-9.16,19.6-4.92,30.06,6.3,15.53,25.81,25.16,43.49,21.48,17.19-3.59,32-17.62,36.9-34.94,7.24-25.61-2.41-48.8-25.79-62-22.22-12.56-55.58-13.7-76.33,8.41-23.54,25.08-30.46,60.18-17.22,87.35,13,26.66,44.87,45.93,72.51,43.78,29-2.21,56.5-16.32,83.1-30,4.69-2.4,9.32-4.78,13.91-7.06,55.34-27.54,129-60,208.36-66.78,49.26-4.2,95.88,2.34,134.89,18.91,44.46,18.89,103.78,61.35,126.13,102.84a1.8,1.8,0,0,1-.73,2.44A1.84,1.84,0,0,1,454.94,211Z"/><path class="cls-348" d="M1187.17,286.3c-27.06,0-55-7.56-80.65-22.07-39.56-22.36-66.17-37.76-102-63-148.22-104.36-245.2-42.77-271.39-21.4-21.47,17.52-36.11,47.8-37.28,77.14a1.93,1.93,0,0,1-1.87,1.73,1.8,1.8,0,0,1-1.73-1.87c1.21-30.33,16.37-61.65,38.61-79.79,26.69-21.77,125.44-84.57,275.73,21.25,35.66,25.1,62.2,40.46,101.67,62.77,32.76,18.51,69.18,25.45,102.61,19.54,28.83-5.11,86.21-41.43,87.29-73.23a1.88,1.88,0,0,1,1.86-1.74,1.81,1.81,0,0,1,1.74,1.86c-1.18,34.64-60.85,71.44-90.26,76.65A139.22,139.22,0,0,1,1187.17,286.3Z"/><path class="cls-348" d="M-116.88,286.69a140.19,140.19,0,0,1-24.37-2.11c-29.42-5.21-89.09-42-90.26-76.65a1.79,1.79,0,0,1,1.74-1.86,1.72,1.72,0,0,1,1.86,1.74c1.07,31.8,58.45,68.12,87.29,73.22,33.4,5.92,69.84-1,102.6-19.53,39.45-22.3,66-37.65,101.67-62.78C214,92.9,312.7,155.71,339.39,177.47c22.23,18.14,37.39,49.46,38.61,79.79a1.81,1.81,0,0,1-1.73,1.87,1.9,1.9,0,0,1-1.87-1.73c-1.18-29.34-15.81-59.62-37.29-77.14C310.92,158.89,214,97.3,65.72,201.67c-35.83,25.22-62.42,40.61-102,63C-61.92,279.14-89.83,286.69-116.88,286.69Z"/><path class="cls-348" d="M794.11,54.84a30.25,30.25,0,0,1-14.19-3.61c-9-4.8-17.23-15.39-13.2-30.76C769,11.94,775.87,5,783.92,3.15,792.59,1.2,801.87,6,805,14.06c2.18,5.59,1.18,12-2.49,16a10.92,10.92,0,0,1-7.88,3.58,13,13,0,0,1-9-3.79,1.8,1.8,0,0,1,2.56-2.53A8.82,8.82,0,0,0,794.6,30a7.22,7.22,0,0,0,5.29-2.42c2.72-2.93,3.45-8,1.79-12.22-2.49-6.35-10.1-10.28-17-8.7S772.1,14.11,770.2,21.38c-3.49,13.34,3.6,22.52,11.41,26.68,8.45,4.49,21.27,5.08,29.47-4.23,9.35-10.63,12.15-26,6.82-37.41S799.71-13,788.62-12.07c-11.86,1-23.21,7.25-34.17,13.27q-2.93,1.6-5.77,3.14c-23.11,12.3-53.9,26.82-87.12,30-20.73,2-40.36-.8-56.82-8.07-18.36-8.1-42.51-25.31-52.16-44a1.79,1.79,0,0,1,.78-2.42,1.8,1.8,0,0,1,2.42.77C565-1.47,588.4,15.12,606.19,23c15.9,7,34.94,9.7,55,7.78,32.6-3.12,63-17.46,85.78-29.6q2.82-1.51,5.73-3.11c11.29-6.21,23-12.62,35.59-13.71s26.85,7.74,32.85,20.55,3.05,29.45-7.38,41.32A25.92,25.92,0,0,1,794.11,54.84Z"/><path class="cls-348" d="M279.07,54.73a26,26,0,0,1-19.69-8.66C249,34.19,246,17.59,252,4.75s20.15-21.61,32.88-20.52S309.2-8.24,320.48-2c1.94,1.06,3.85,2.11,5.75,3.12C349,13.26,379.37,27.64,412,30.8c20.09,1.93,39.11-.73,55-7.72,17.81-7.85,41.2-24.41,50.46-42.27a1.81,1.81,0,0,1,2.43-.76,1.79,1.79,0,0,1,.77,2.42C511,1.1,486.81,18.29,468.45,26.37c-16.49,7.25-36.14,10-56.84,8-33.23-3.22-64-17.79-87.08-30.11-1.91-1-3.84-2.08-5.79-3.15-10.95-6-22.28-12.27-34.14-13.3-11-1-24,7.13-29.29,18.46s-2.56,26.77,6.78,37.42c8.17,9.31,21,8.73,29.45,4.26,7.82-4.15,14.93-13.33,11.45-26.66C301.1,14,295.27,8.1,288.48,6.55s-14.48,2.35-17,8.7c-1.67,4.26-.94,9.28,1.77,12.21a7.24,7.24,0,0,0,5.29,2.44,9.19,9.19,0,0,0,6.34-2.72,1.8,1.8,0,0,1,2.56,2.53,13.18,13.18,0,0,1-9,3.79,10.93,10.93,0,0,1-7.88-3.59c-3.66-4-4.66-10.39-2.48-16,3.17-8.08,12.43-12.87,21.12-10.89,8.06,1.83,15,8.8,17.2,17.34,4,15.37-4.22,26-13.25,30.75A30.35,30.35,0,0,1,279.07,54.73Z"/><path class="cls-348" d="M120.44,15.75C83.33,15.75,49.24-6-6.75-44c-5.87-4-12.69-8.7-20.18-13.87C-68.21-86.38-130.59-129.47-168-143.52c-48.13-18.06-109.24-12.6-167.66,15a1.81,1.81,0,0,1-2.4-.86,1.79,1.79,0,0,1,.86-2.39c59.29-28,121.43-33.53,170.46-15.11,37.83,14.2,100.43,57.44,141.86,86.05C-17.4-55.66-10.59-51-4.72-47,69.51,3.41,104.64,24.83,159.72,4.38c35.61-13.22,54.55-58.21,49.9-91.94C204.84-122.18,173.87-153,136-160.87c-32.23-6.68-60,4.8-76.26,31.49C52-116.7,50-101.23,53.92-85.82A63.61,63.61,0,0,0,83.34-46.48c15.65,9,34.11,10.7,49.38,4.58,16.23-6.51,27.93-22.45,28.45-38.76.55-17.22-12-33.75-28.06-36.84-9.3-1.79-19,.85-25.17,6.94s-9.61,17.28-4.41,25.38A1.79,1.79,0,0,1,103-82.7a1.79,1.79,0,0,1-2.48-.54c-6.19-9.64-2.36-22.77,4.92-29.89,7-6.9,17.92-9.92,28.37-7.91,17.69,3.42,31.59,21.58,31,40.5-.57,17.69-13.19,35-30.71,42C117.77-32,98.14-33.82,81.55-43.36A67.21,67.21,0,0,1,50.44-84.92c-4.21-16.36-2-32.82,6.21-46.32,16.81-27.67,46.76-40,80.06-33.15C176-156.23,208.2-124.13,213.18-88c4.85,35.1-15,82-52.21,95.81C146.42,13.16,133.25,15.75,120.44,15.75Z"/><path class="cls-348" d="M118.61,70.08C74.82,70.08,20,55.65-44.21,10.43-79.84-14.66-106.39-30-145.87-52.34-178.64-70.86-215.1-77.8-248.48-71.88c-28.83,5.11-86.22,41.43-87.29,73.23a1.94,1.94,0,0,1-1.86,1.73,1.79,1.79,0,0,1-1.74-1.86c1.17-34.64,60.84-71.43,90.26-76.64,34.24-6.08,71.52,1,105,20,39.58,22.37,66.19,37.77,102,63,148.24,104.37,245.2,42.77,271.39,21.4,21.47-17.51,36.11-47.79,37.29-77.14A1.71,1.71,0,0,1,268.41-50a1.81,1.81,0,0,1,1.73,1.87c-1.22,30.34-16.38,61.66-38.61,79.79C216.25,44.15,177.31,70.08,118.61,70.08Z"/><path class="cls-348" d="M951,15.32c-12.81,0-26-2.59-40.53-8-37.23-13.83-57-60.7-52.21-95.81,5-36.08,37.14-68.18,76.47-76.34,33.31-6.91,63.25,5.48,80.07,33.15,8.21,13.51,10.41,30,6.21,46.32a67.29,67.29,0,0,1-31.11,41.57c-16.58,9.52-36.21,11.33-52.52,4.79-17.51-7-30.14-24.28-30.7-42-.61-18.91,13.28-37.08,31-40.49,10.46-2,21.32,1,28.38,7.9,7.27,7.12,11.11,20.25,4.91,29.89a1.8,1.8,0,0,1-2.48.55,1.8,1.8,0,0,1-.54-2.49c5.19-8.1,1.84-19.26-4.41-25.37s-15.85-8.73-25.17-7c-16,3.09-28.62,19.63-28.06,36.85.52,16.31,12.21,32.24,28.44,38.75,15.28,6.12,33.74,4.41,49.39-4.58a63.63,63.63,0,0,0,29.41-39.34c4-15.41,1.9-30.88-5.8-43.55-16.22-26.7-44-38.17-76.26-31.49-37.89,7.85-68.85,38.68-73.63,73.31C857.12-54.27,876.06-9.28,911.68,4c55.05,20.45,90.19-1,164.44-51.37,5.85-4,12.63-8.65,20.09-13.81,41.45-28.62,104.08-71.88,141.93-86.09,49-18.42,111.16-12.9,170.45,15.11a1.8,1.8,0,0,1,.86,2.4,1.79,1.79,0,0,1-2.39.86c-58.42-27.6-119.53-33.07-167.66-15-37.44,14-99.84,57.16-141.14,85.69-7.47,5.15-14.26,9.84-20.12,13.82C1022.16-6.44,988.06,15.31,951,15.32Z"/><path class="cls-348" d="M954.88,75.93C896.17,75.93,857.25,50,842,37.54c-22.24-18.14-37.4-49.46-38.62-79.79a1.81,1.81,0,0,1,1.73-1.87A1.83,1.83,0,0,1,807-42.39c1.18,29.34,15.82,59.62,37.3,77.14,26.18,21.36,123.16,83,271.38-21.4,35.79-25.21,62.4-40.61,102-63,33.49-18.93,70.79-26,105-19.95,29.42,5.21,89.1,42,90.27,76.65a1.81,1.81,0,0,1-1.74,1.86,1.78,1.78,0,0,1-1.86-1.74c-1.08-31.8-58.46-68.12-87.3-73.22-33.4-5.92-69.83,1-102.6,19.54-39.47,22.3-66,37.66-101.67,62.77C1053.49,61.5,998.68,75.93,954.88,75.93Z"/><path class="cls-348" d="M851.31,409.08A206.05,206.05,0,0,1,749,382c-33-19-62.93-48.58-91.4-90.41-9.12-13.4-17.65-28.58-26.83-47.77-23.19-48.42-55.47-76.61-90.91-79.37-29.31-2.25-58.14,13.84-79,44.22a1.8,1.8,0,0,1-3-2c21.62-31.47,51.65-48.15,82.26-45.77,36.77,2.86,70.11,31.77,93.87,81.4,9.11,19,17.55,34.06,26.56,47.3,28.16,41.38,57.67,70.59,90.22,89.31A202.55,202.55,0,0,0,900,399.48c35.75-9,67.43-18.6,93-44.51a1.8,1.8,0,0,1,2.56,2.53c-26.21,26.57-58.38,36.31-94.67,45.47A202.85,202.85,0,0,1,851.31,409.08Z"/><path class="cls-348" d="M219,409.47a202.35,202.35,0,0,1-49.55-6.11c-35.12-8.86-68.3-17.23-94.84-44.13a1.8,1.8,0,0,1,2.56-2.53c25.84,26.18,58.54,34.43,93.16,43.17a202.55,202.55,0,0,0,149.24-20.63c32.55-18.73,62.06-47.94,90.22-89.32,9-13.22,17.45-28.25,26.56-47.29,23.76-49.63,57.1-78.54,93.87-81.4,30.71-2.37,60.65,14.29,82.27,45.77a1.8,1.8,0,0,1-.47,2.5,1.82,1.82,0,0,1-2.51-.47c-20.86-30.38-49.62-46.48-79-44.22-35.44,2.76-67.72,30.95-90.9,79.37-9.2,19.21-17.73,34.39-26.84,47.77-28.46,41.83-58.36,71.41-91.4,90.41A206,206,0,0,1,219,409.47Z"/></g></g></g></svg>