<svg id="Capa_1" data-name="Capa 1" xmlns="http://www.w3.org/2000/svg" xmlns:xlink="http://www.w3.org/1999/xlink" viewBox="0 0 539.14 467.64"><defs><style>.cls-1{fill:none;}.cls-2{fill:#5eb3e4;}.cls-3{opacity:0.6;}.cls-4{clip-path:url(#clip-path);}.cls-5{fill:#fef8d0;}.cls-6{fill:#0075a9;}.cls-7{fill:#ffad5f;}</style><clipPath id="clip-path"><rect class="cls-1" x="-0.36" width="539.5" height="467.64"/></clipPath></defs><rect class="cls-2" width="539.5" height="467.64"/><g class="cls-3"><g class="cls-4"><path class="cls-5" d="M50,348.63A93.5,93.5,0,0,1,1.39,335.18a1.36,1.36,0,0,1,1.4-2.34c42.49,25.34,85.94,8.15,108.05-4.35,29.9-16.89,50-28.53,77-47.53,20.71-14.58,41.38-25.8,61.45-33.35l.07.15c42.43-19.15,155.39-25,227.12,80.36a1.36,1.36,0,0,1-2.26,1.53h0c-71.59-105.18-184.59-98.11-225.16-78.74l-.13-.25c-19.44,7.47-39.46,18.4-59.52,32.53-27.09,19.08-47.24,30.74-77.21,47.68C98.1,338.83,75.56,348.63,50,348.63Z"/><path class="cls-5" d="M310.63,480.68c-50.28,0-103.09-31-136.93-61.36a1.36,1.36,0,0,1,1.82-2c35.42,31.76,91.78,64.29,143.8,60.34,50.89-3.86,104.7-19.23,153.43-104.87,2.8-4.92,5.48-10,8.32-15.42,12.68-24.1,25.79-49,50.28-60.33a37.28,37.28,0,0,1,30.9-.31,1.36,1.36,0,1,1-1.1,2.49,35.16,35.16,0,0,0-28.59.26c-23.72,11-36.61,35.46-49.08,59.16-2.85,5.42-5.54,10.54-8.36,15.5-49.36,86.74-104,102.32-155.59,106.24C316.57,480.57,313.61,480.68,310.63,480.68Z"/><path class="cls-5" d="M371.41,485.23a1.36,1.36,0,0,1-.2-2.71c45.87-7,82.39-38.88,101.27-66.42a1.37,1.37,0,0,1,2.25,1.55c-19.21,28-56.38,60.46-103.11,67.56Z"/><path class="cls-5" d="M51,326.52C29.48,326.52,6.58,319-17.63,299l-12.21-10.06c-7.24-2.69-13.19-2.77-19.5-2.86-9.38-.13-19.08-.26-32.54-9.74-27-19-47.1-30.64-77-47.53-24.81-14-52.4-19.28-77.7-14.8a1.36,1.36,0,0,1-1.58-1.1h0a1.36,1.36,0,0,1,1.1-1.58h0c25.91-4.6,54.15.77,79.51,15.11,29.95,16.93,50.1,28.59,77.21,47.67,12.77,9,21.63,9.12,31,9.25,6.32.09,12.85.18,20.63,3.1l.39.23,12.38,10.21c64.34,53.17,119.64,15.77,164.07-14.27,9.8-6.62,19.05-12.88,27.86-17.83a1.36,1.36,0,1,1,1.34,2.37h0c-8.71,4.9-17.92,11.13-27.67,17.72C121.11,304.21,88.1,326.52,51,326.52Z"/><g class="cls-3"><path class="cls-6" d="M340.7,499.29a301.32,301.32,0,0,1-43.47-3.52l-2.2-.3c-45.59-6.29-96.82-33.79-142-58.05-11.64-6.25-22.62-12.15-32.87-17.32a1.82,1.82,0,1,1,1.64-3.25h0c10.29,5.2,21.29,11.11,33,17.36,44.92,24.12,95.84,51.46,140.79,57.66l2.2.3c34.16,4.76,124.87,17.39,199.58-71.09a1.82,1.82,0,1,1,2.92,2.18l-.14.16C446.37,487.05,384.56,499.29,340.7,499.29Z"/></g><g class="cls-3"><path class="cls-6" d="M313.8,427.59a47.58,47.58,0,0,1-22.36-5.42c-1.27-.67-2.51-1.4-3.71-2.19a44.6,44.6,0,0,1-19.23-29,40.14,40.14,0,0,1,6.68-31.09c7.14-10,19.62-17.3,31-18.22,15.76-1.29,31,9.62,34,24.28a1.82,1.82,0,1,1-3.57.72h0c-2.93-14.47-17.87-22.36-30.1-21.38-10.41.85-21.81,7.56-28.37,16.72a36.65,36.65,0,0,0-6.06,28.31A41,41,0,0,0,289.73,417c1.1.72,2.24,1.39,3.4,2,13.55,7.17,30.44,6.61,46.35-1.53,17.88-9.15,31-26.26,33.41-43.58,3.13-22.49-9.6-52.48-33.54-61.3-37.16-13.68-61,.7-111.24,34.54-8.24,5.54-19.05,13.9-30.51,22.75-25.83,20-55.12,42.58-76,50.35a1.82,1.82,0,0,1-1.27-3.41c20.36-7.57,50.68-31,75-49.82,11.5-8.89,22.37-17.28,30.7-22.88,51.35-34.56,75.7-49.24,114.53-34.94,25.58,9.42,39.2,41.32,35.87,65.21-2.6,18.74-16.15,36.49-35.34,46.31A60.23,60.23,0,0,1,313.8,427.59Z"/></g><g class="cls-3"><path class="cls-6" d="M52.65,390.44c-21.07,0-50.87-8.13-68.64-24.38-9.67-8.83-14.76-19-15.14-30.29a1.83,1.83,0,0,1,1.76-1.88,1.83,1.83,0,0,1,1.87,1.76c.35,10.25,5,19.58,14,27.73,18.24,16.67,49.8,24.46,70.15,23.32,16-.89,33.28-6.1,52.78-15.93,22.39-11.29,44.69-26.62,66.26-41.45,41.43-28.48,84.27-57.93,129.46-59.78,36-1.48,67.62,9.55,86.81,30.27,19.53,21.19,28,51.09,22.42,80.19a1.82,1.82,0,1,1-3.61-.48,1.42,1.42,0,0,1,0-.2c5.29-27.91-2.77-56.7-21.55-77-18.47-19.94-49.08-30.55-84-29.11-44.14,1.81-86.54,31-127.55,59.14C156,347.25,133.63,362.66,111,374.06c-20,10.05-37.68,15.39-54.2,16.31C55.48,390.41,54.09,390.44,52.65,390.44Z"/></g><g class="cls-3"><path class="cls-6" d="M382.86,417.48a1.7,1.7,0,0,1-1-.32,1.8,1.8,0,0,1-.47-2.52h0c18.2-26.44,19.22-59.78,2.73-89.2-14.23-25.38-41.91-39.71-74-38.33C281.2,288.35,259,302,239.45,314l-.85.52c-16.09,9.88-31,20-45.42,29.69-24.26,16.42-47.26,31.93-74.93,46.26-16.33,8.53-41.33,18.85-66.89,20.11-17.44.85-34.1-2.58-48.11-10.07-12.5-6.64-29.18-17.46-29.76-34.7a1.82,1.82,0,0,1,1.76-1.88h0a1.83,1.83,0,0,1,1.88,1.76C-22.36,381-6.75,391.08,4.92,397.3c13.43,7.13,29.41,10.47,46.24,9.65,19.49-.95,42.76-7.95,65.42-19.71,27.47-14.23,50.35-29.68,74.58-46,14.45-9.76,29.39-19.85,45.55-29.78l.85-.52c19.94-12.25,42.55-26.14,72.41-27.42,33.43-1.44,62.38,13.58,77.29,40.18,16.93,30.2,15.81,65.85-2.91,93A1.82,1.82,0,0,1,382.86,417.48Z"/></g><path class="cls-6" d="M312.92,446.24a64.64,64.64,0,0,1-46.61-20A57.9,57.9,0,0,1,250,383.17c1.54-31,15.28-47.06,26.53-55a1.83,1.83,0,1,1,2.1,3h0c-10.6,7.52-23.54,22.7-25,52.26a54.28,54.28,0,0,0,15.32,40.38,61,61,0,0,0,44,18.83,1.82,1.82,0,0,1,0,3.64Z"/><path class="cls-6" d="M284.24,450a1.84,1.84,0,0,1-.77-.17,73.37,73.37,0,0,1-42.16-66.21c0-17.3,7-37,17.84-50.31a1.82,1.82,0,0,1,2.82,2.3c-10.34,12.66-17,31.5-17,48A69.7,69.7,0,0,0,285,446.52a1.82,1.82,0,0,1-.77,3.47Z"/><path class="cls-6" d="M262.67,448a1.82,1.82,0,0,1-1.18-.43,83.09,83.09,0,0,1-29.07-63.17c0-14.2,5.63-33.83,12.81-44.7a1.82,1.82,0,0,1,3,2c-6.84,10.35-12.2,29.1-12.2,42.69a79.46,79.46,0,0,0,27.79,60.39,1.81,1.81,0,0,1,.21,2.55,1.83,1.83,0,0,1-1.39.64Z"/><path class="cls-6" d="M241.74,439.37a1.82,1.82,0,0,1-1.48-.77A92.31,92.31,0,0,1,223,384.69a100.07,100.07,0,0,1,6.81-35.29,1.82,1.82,0,0,1,3.47,1.11l-.09.22a96.72,96.72,0,0,0-6.55,34,88.58,88.58,0,0,0,16.56,51.8,1.83,1.83,0,0,1-.43,2.54A1.79,1.79,0,0,1,241.74,439.37Z"/><path class="cls-6" d="M225.13,430.51a1.83,1.83,0,0,1-1.64-1,102,102,0,0,1-10.22-44.79,103.62,103.62,0,0,1,3.55-26.91,1.84,1.84,0,0,1,2.23-1.28,1.82,1.82,0,0,1,1.28,2.23,99.69,99.69,0,0,0-3.42,26A98.42,98.42,0,0,0,226.77,428a1.82,1.82,0,0,1-1.64,2.61Z"/><path class="cls-6" d="M210.84,419.1a1.82,1.82,0,0,1-1.74-1.28A112.77,112.77,0,0,1,204,384.34a114.32,114.32,0,0,1,1.36-17.53,1.83,1.83,0,0,1,2.08-1.51,1.8,1.8,0,0,1,1.51,2.07h0a111.19,111.19,0,0,0-1.31,17,109.18,109.18,0,0,0,4.89,32.4,1.81,1.81,0,0,1-1.19,2.27h0A1.65,1.65,0,0,1,210.84,419.1Z"/><path class="cls-6" d="M200,408.58a1.81,1.81,0,0,1-1.73-1.27,66.67,66.67,0,0,1-2.18-30,1.83,1.83,0,0,1,2.08-1.51,1.8,1.8,0,0,1,1.51,2.07h0a63.24,63.24,0,0,0,2.06,28.34,1.82,1.82,0,0,1-1.2,2.27A1.65,1.65,0,0,1,200,408.58Z"/><path class="cls-7" d="M313.27,434.82c-19.82,0-37-9.47-47.5-26.74-6.27-10.33-8-22.92-4.75-35.43a51.34,51.34,0,0,1,23.77-31.74c12.68-7.29,27.69-8.66,40.17-3.66,13.42,5.38,23.09,18.62,23.53,32.19.46,14.53-10.22,28.5-23.83,31.12-8.05,1.56-16.44-.78-21.88-6.1-5.64-5.52-8.6-15.71-3.79-23.21a1.83,1.83,0,1,1,3.06,2h0c-3.81,5.93-1.33,14.14,3.27,18.64S317.07,398.36,324,397c11.93-2.31,21.3-14.62,20.89-27.45-.39-12.17-9.14-24.07-21.26-28.93-11.44-4.58-25.27-3.3-37,3.44a47.76,47.76,0,0,0-22.06,29.5c-3,11.55-1.43,23.14,4.34,32.63,12.18,20,33.06,28.66,57.27,23.64,24.44-5.07,51.32-25.63,55.39-55.12,3.51-25.36-10.72-59.19-37.49-69.13-41.49-15.41-68,.77-124.1,38.84-4.44,3-9.59,6.57-15.26,10.48-31.38,21.65-78.77,54.41-107.52,65.19-37.24,14-84.42,9.8-129.43-11.46a1.82,1.82,0,0,1-.86-2.42,1.82,1.82,0,0,1,2.42-.87c44.12,20.85,90.27,25,126.6,11.34,28.28-10.62,75.49-43.22,106.73-64.8,5.67-3.92,10.83-7.48,15.27-10.5,57.16-38.8,84.24-55.28,127.42-39.24,28.4,10.55,43.52,46.28,39.82,73-3.79,27.51-28.29,52-58.25,58.19A67,67,0,0,1,313.27,434.82Z"/><path class="cls-7" d="M78.83,543.92c-12.41,0-25-4.23-34.37-14.34-18.6-20.06-23.88-48.11-13.15-69.79,10.49-21.21,36-36.41,58.22-34.58,22.58,1.86,43.65,12.83,64,23.44,3.52,1.83,7,3.64,10.44,5.38,41.54,21,96.84,45.77,156.32,51.21,36.75,3.36,71.58-1.3,100.72-13.47,32.56-13.6,75.33-42.36,92.29-73.38a1.82,1.82,0,0,1,3.19,1.74c-17.38,31.79-61,61.16-94.08,75-29.68,12.39-65.12,17.14-102.45,13.72-60.09-5.49-115.8-30.44-157.63-51.57-3.45-1.75-7-3.57-10.48-5.41-20-10.44-40.78-21.24-62.63-23-20.81-1.71-44.78,12.6-54.66,32.57s-4.75,47.05,12.56,65.71c15.45,16.67,40.47,16,57.2,6.63,17.6-9.78,24.92-27.15,19.6-46.36-3.58-13-14.6-23.54-27.43-26.3-13.15-2.83-27.75,4.25-32.52,15.79-3.19,7.74-1.76,16.9,3.5,22.29,6.88,7.06,17.26,5.31,23.31-.47a1.82,1.82,0,0,1,2.51,2.63c-8.36,8-20.84,8.15-28.43.38-6.23-6.4-8-17.18-4.24-26.22,5.48-13.31,21.57-21.2,36.64-18,14.12,3,26.24,14.65,30.17,28.89,6.8,24.65-6.56,42.23-21.34,50.47A56.75,56.75,0,0,1,78.83,543.92Z"/><path class="cls-7" d="M486.08,310.34a1.83,1.83,0,0,1-1.6-1c-16.56-30.74-60.79-62.34-94-76.41-29.06-12.35-63.85-17.21-100.63-14.08-59.51,5.08-115,29.52-156.63,50.25-3.45,1.72-6.94,3.51-10.47,5.32-20.43,10.48-41.56,21.32-64.16,23C36.45,299.11,11,283.76.64,262.49-10,240.74-4.5,212.72,14.22,192.78c16.84-17.94,43.77-17.08,61.68-7,14.72,8.32,28,26,21,50.6-4,14.22-16.21,25.75-30.35,28.7-15,3.15-31.12-4.84-36.53-18.18-3.68-9.06-1.86-19.83,4.41-26.19,7.62-7.73,20.11-7.48,28.42.56A1.85,1.85,0,1,1,60.36,224h0c-6-5.82-16.38-7.64-23.32-.62-5.28,5.36-6.77,14.52-3.63,22.27,4.7,11.57,19.27,18.75,32.42,16,12.85-2.68,23.94-13.18,27.6-26.13,5.42-19.18-1.81-36.54-19.32-46.44-16.67-9.48-41.69-10.35-57.19,6.23-17.47,18.55-22.8,45.54-13,65.63s33.72,34.5,54.47,32.9c21.87-1.67,42.66-12.34,62.77-22.66,3.55-1.81,7-3.61,10.51-5.34,42-20.87,97.82-45.48,157.94-50.61,37.31-3.18,72.74,1.77,102.31,14.36,33.74,14.33,78.75,46.56,95.73,78.07a1.8,1.8,0,0,1-.73,2.45h0A1.72,1.72,0,0,1,486.08,310.34Z"/><path class="cls-7" d="M53.1,367.64A107.65,107.65,0,0,1,34.56,366c-22.39-4-67.83-32-68.72-58.47a1.81,1.81,0,0,1,1.74-1.88h0a1.8,1.8,0,0,1,1.87,1.73v0c.81,23.88,44,51.17,65.73,55,25.19,4.47,52.67-.77,77.39-14.74,29.87-16.89,50-28.51,76.94-47.51,114.07-80.27,189.07-32.56,209.39-16,16.94,13.81,28.48,37.66,29.41,60.75a1.82,1.82,0,0,1-3.64.14c-.88-22.09-11.9-44.89-28.07-58.08-19.76-16.12-93-62.61-204.94,16.23-27.13,19.1-47.28,30.76-77.25,47.7C94.92,361.9,73.66,367.64,53.1,367.64Z"/><path class="cls-7" d="M786.23,460.31a156.3,156.3,0,0,1-77.74-20.6c-25.07-14.41-47.76-36.85-69.36-68.59a271.6,271.6,0,0,1-20.35-36.23c-17.48-36.51-41.8-57.77-68.46-59.84-22.06-1.73-43.71,10.41-59.42,33.28a1.82,1.82,0,0,1-3-2.05c16.46-24,39.31-36.68,62.7-34.85,28,2.18,53.39,24.16,71.46,61.89a269.06,269.06,0,0,0,20.07,35.76c21.29,31.27,43.59,53.35,68.17,67.48a151.32,151.32,0,0,0,183.77-25.35,1.82,1.82,0,1,1,2.59,2.55,156.13,156.13,0,0,1-72.8,41.91A154,154,0,0,1,786.23,460.31Z"/><path class="cls-7" d="M307.39,460.61A154,154,0,0,1,269.76,456,156.1,156.1,0,0,1,197,414.09a1.81,1.81,0,1,1,2.58-2.55h0a151.32,151.32,0,0,0,183.77,25.32c24.58-14.14,46.88-36.21,68.17-67.49a267.83,267.83,0,0,0,20.07-35.75C489.63,295.88,515,273.9,543,271.72c23.41-1.82,46.24,10.89,62.7,34.86a1.82,1.82,0,0,1-3,2.05c-15.7-22.87-37.4-35-59.41-33.28-26.67,2.07-51,23.32-68.47,59.84a271.6,271.6,0,0,1-20.35,36.23c-21.57,31.74-44.29,54.17-69.36,68.58A156.41,156.41,0,0,1,307.39,460.61Z"/><path class="cls-5" d="M471.6,89.48a93.53,93.53,0,0,1,48.64,13.38,1.37,1.37,0,0,1-1.4,2.35c-42.52-25.28-86-8-108,4.49-29.87,16.94-50,28.6-76.92,47.64-20.69,14.6-41.35,25.85-61.4,33.43l-.08-.16c-42.39,19.22-155.35,25.24-227.22-80.05A1.36,1.36,0,0,1,47.43,109c71.74,105.09,184.73,97.87,225.27,78.45l.13.24c19.43-7.49,39.43-18.45,59.48-32.6,27.07-19.11,47.2-30.8,77.14-47.78C423.52,99.35,446.05,89.51,471.6,89.48Z"/><path class="cls-5" d="M211.05-42.31c50.29,0,103.1,31,136.93,61.35a1.36,1.36,0,0,1-1.6,2.2,1.42,1.42,0,0,1-.22-.2c-35.41-31.75-91.77-64.29-143.79-60.33C151.48-35.41,97.67-20,48.92,65.61c-2.8,4.92-5.48,10-8.32,15.41-12.68,24.1-25.77,49-50.27,60.34a37.22,37.22,0,0,1-30.89.3,1.36,1.36,0,0,1-.7-1.79,1.37,1.37,0,0,1,1.8-.7,35.13,35.13,0,0,0,28.58-.25c23.72-11,36.62-35.47,49.08-59.17,2.86-5.41,5.55-10.53,8.37-15.49C95.92-22.49,150.52-38.07,202.16-42,205.11-42.21,208.08-42.31,211.05-42.31Z"/><path class="cls-5" d="M150.27-46.87a1.37,1.37,0,0,1,1.35,1.16,1.35,1.35,0,0,1-1.12,1.55h0c-45.87,7-82.39,38.88-101.27,66.42a1.38,1.38,0,1,1-2.29-1.54c19.2-28,56.37-60.47,103.11-67.57Z"/><path class="cls-5" d="M470.67,111.84c21.53,0,44.44,7.52,68.65,27.53l12.21,10.07c7.23,2.68,13.19,2.76,19.5,2.85,9.38.13,19.07.26,32.53,9.74,27,19,47.1,30.64,77,47.53,24.8,14,52.4,19.28,77.69,14.8a1.36,1.36,0,0,1,.48,2.68h0c-25.91,4.6-54.15-.77-79.51-15.1-30-16.94-50.11-28.59-77.21-47.68-12.78-9-21.63-9.12-31-9.25-6.32-.08-12.86-.17-20.63-3.1l-.39-.22L537.6,141.47c-64.36-53.16-119.68-15.77-164.09,14.27-9.79,6.62-19,12.88-27.86,17.84a1.36,1.36,0,1,1-1.33-2.38c8.71-4.9,17.92-11.13,27.67-17.72C400.58,134.16,433.59,111.84,470.67,111.84Z"/><g class="cls-3"><path class="cls-6" d="M181-60.93a304.05,304.05,0,0,1,43.46,3.52l2.2.31c45.6,6.29,96.82,33.79,142,58.05,11.63,6.24,22.62,12.14,32.86,17.32a1.82,1.82,0,1,1-1.17,3.45,1.65,1.65,0,0,1-.42-.21c-10.31-5.2-21.32-11.11-33-17.36C322-20,271.1-47.3,226.15-53.5l-2.2-.31C189.8-58.56,99.08-71.2,24.38,17.29a1.82,1.82,0,1,1-2.78-2.35C75.32-48.69,137.12-60.93,181-60.93Z"/></g><g class="cls-3"><path class="cls-6" d="M207.92,10.77a47.56,47.56,0,0,1,22.36,5.43c1.27.67,2.5,1.39,3.7,2.18a44.58,44.58,0,0,1,19.24,29,40.25,40.25,0,0,1-6.68,31.1c-7.15,10-19.62,17.29-31,18.21-15.75,1.29-31-9.61-34-24.28a1.82,1.82,0,0,1,3.56-.72C188,86.16,203,94.06,215.2,93.07c10.41-.84,21.81-7.56,28.37-16.71a36.57,36.57,0,0,0,6.07-28.31,41,41,0,0,0-17.72-26.63,37.52,37.52,0,0,0-3.41-2C215,12.26,198.07,12.81,182.16,21c-17.88,9.15-31,26.25-33.4,43.58C145.67,87,158.39,117,182.33,125.82c37.16,13.69,61-.7,111.25-34.54,8.23-5.54,19-13.89,30.5-22.74,25.84-20,55.12-42.59,76-50.35a1.81,1.81,0,0,1,1.27,3.4c-20.36,7.58-50.68,31-75,49.82C314.8,80.3,303.92,88.69,295.61,94.3c-51.35,34.55-75.7,49.23-114.53,34.93C155.5,119.81,141.92,87.91,145.2,64c2.61-18.74,16.15-36.49,35.35-46.31A60.21,60.21,0,0,1,207.92,10.77Z"/></g><g class="cls-3"><path class="cls-6" d="M469,47.92c21.08,0,50.88,8.14,68.65,24.38,9.66,8.84,14.76,19,15.14,30.29a1.82,1.82,0,0,1-1.76,1.88h0a1.84,1.84,0,0,1-1.88-1.75c-.34-10.25-5-19.58-14-27.74C516.94,58.31,485.38,50.52,465,51.66c-16,.89-33.27,6.11-52.77,15.93C389.92,78.88,367.61,94.21,346,109c-41.42,28.48-84.27,57.93-129.45,59.79-36,1.48-67.63-9.56-86.82-30.28-19.56-21.13-28-51.09-22.45-80.14a1.82,1.82,0,0,1,3.57.68c-5.29,27.92,2.76,56.7,21.55,77,18.46,19.94,49.08,30.55,84,29.12C260.57,163.35,303,134.17,344,106c21.68-14.9,44.08-30.31,66.7-41.7C430.62,54.29,448.35,49,464.92,48,466.21,48,467.6,47.92,469,47.92Z"/></g><g class="cls-3"><path class="cls-6" d="M138.83,20.88a1.7,1.7,0,0,1,1,.32,1.82,1.82,0,0,1,.47,2.53c-18.2,26.43-19.23,59.78-2.73,89.19,14.22,25.38,41.9,39.71,74,38.34,28.92-1.24,51.1-14.87,70.67-26.89l.84-.52c16.09-9.89,31-20,45.42-29.7,24.32-16.42,47.28-31.93,74.95-46.25,16.37-8.49,41.27-18.9,66.87-20.11,17.44-.86,34.11,2.62,48.12,10.07,12.49,6.63,29.17,17.45,29.76,34.7a1.82,1.82,0,1,1-3.64.12c-.52-15.36-16.13-25.4-27.83-31.61-13.43-7.14-29.41-10.48-46.23-9.65-19.46.95-42.69,7.95-65.39,19.7-27.48,14.23-50.36,29.68-74.58,46C316.08,106.88,301.13,117,285,126.9l-.84.52c-19.94,12.26-42.55,26.15-72.42,27.43-33.43,1.44-62.37-13.59-77.29-40.19-16.92-30.2-15.81-65.84,2.91-93A1.84,1.84,0,0,1,138.83,20.88Z"/></g><path class="cls-6" d="M208.73-7.87a64.57,64.57,0,0,1,46.62,20A57.9,57.9,0,0,1,271.67,55.2c-1.54,31-15.28,47.05-26.53,55a1.83,1.83,0,0,1-2.11-3h0c10.6-7.53,23.54-22.7,25-52.26a54.3,54.3,0,0,0-15.31-40.35,61,61,0,0,0-44-18.83,1.81,1.81,0,0,1-1.8-1.82h0A1.81,1.81,0,0,1,208.73-7.87Z"/><path class="cls-6" d="M237.45-11.66a1.84,1.84,0,0,1,.77.17,73.33,73.33,0,0,1,42.16,66.21c0,17.29-7,37-17.85,50.3a1.82,1.82,0,0,1-3-2.1,1.56,1.56,0,0,1,.16-.2c10.34-12.65,17-31.5,17-48a69.7,69.7,0,0,0-40-62.92,1.83,1.83,0,0,1-.88-2.42A1.81,1.81,0,0,1,237.45-11.66Z"/><path class="cls-6" d="M259-9.62a1.79,1.79,0,0,1,1.19.44A83.07,83.07,0,0,1,289.26,54c0,14.2-5.62,33.83-12.8,44.69a1.82,1.82,0,0,1-2.52.51,1.79,1.79,0,0,1-.52-2.49v0c6.84-10.36,12.2-29.11,12.2-42.69a79.42,79.42,0,0,0-27.8-60.39,1.83,1.83,0,0,1-.2-2.57A1.84,1.84,0,0,1,259-9.62Z"/><path class="cls-6" d="M279.92-1a1.81,1.81,0,0,1,1.48.76,92.3,92.3,0,0,1,17.23,53.91,100.34,100.34,0,0,1-6.8,35.3,1.81,1.81,0,0,1-3.36-1.35,96.72,96.72,0,0,0,6.55-34,88.7,88.7,0,0,0-16.56-51.8A1.82,1.82,0,0,1,279-.7,1.75,1.75,0,0,1,279.92-1Z"/><path class="cls-6" d="M296.56,7.86a1.79,1.79,0,0,1,1.63,1,102,102,0,0,1,10.22,44.79,103.14,103.14,0,0,1-3.55,26.91,1.82,1.82,0,1,1-3.5-1h0a99.69,99.69,0,0,0,3.42-26,98.51,98.51,0,0,0-9.86-43.1A1.82,1.82,0,0,1,295.71,8l.05,0A1.7,1.7,0,0,1,296.56,7.86Z"/><path class="cls-6" d="M310.85,19.27a1.8,1.8,0,0,1,1.73,1.28A112.58,112.58,0,0,1,317.65,54a114.32,114.32,0,0,1-1.36,17.53,1.82,1.82,0,1,1-3.6-.56,109.56,109.56,0,0,0-3.58-49.36,1.82,1.82,0,0,1,1.2-2.28h0A2.48,2.48,0,0,1,310.85,19.27Z"/><path class="cls-6" d="M321.64,29.78a1.82,1.82,0,0,1,1.74,1.28,67,67,0,0,1,2.18,30,1.82,1.82,0,1,1-3.6-.56,63.13,63.13,0,0,0-2-28.36,1.82,1.82,0,0,1,1.19-2.28A1.89,1.89,0,0,1,321.64,29.78Z"/><path class="cls-7" d="M208.41,3.54c19.82,0,37,9.47,47.5,26.74,6.28,10.34,8,22.92,4.75,35.43a51.37,51.37,0,0,1-23.74,31.75c-12.67,7.29-27.69,8.65-40.16,3.66-13.42-5.39-23.1-18.62-23.54-32.19-.46-14.54,10.23-28.5,23.84-31.13,8-1.56,16.44.78,21.88,6.11,5.64,5.52,8.6,15.7,3.79,23.2a1.83,1.83,0,1,1-3.06-2C223.48,59.17,221,51,216.4,46.46S204.61,40,197.71,41.37c-11.92,2.3-21.29,14.63-20.88,27.44.39,12.19,9.09,24.07,21.26,28.93,11.43,4.59,25.26,3.3,37-3.43a47.69,47.69,0,0,0,22.06-29.5c3-11.56,1.43-23.15-4.34-32.64-12.18-20-33-28.66-57.26-23.64-24.45,5.07-51.33,25.64-55.4,55.13-3.51,25.34,10.77,59.19,37.48,69.13,41.49,15.41,68-.78,124.11-38.84,4.44-3,9.59-6.58,15.25-10.49C348.38,61.78,395.81,29,424.51,18.25c37.25-14,84.41-9.81,129.41,11.46A1.81,1.81,0,1,1,552.39,33h0c-44.12-20.86-90.27-25-126.6-11.35-28.28,10.62-75.49,43.23-106.73,64.8-5.67,3.92-10.83,7.48-15.28,10.5-57.15,38.8-84.24,55.28-127.41,39.25-28.4-10.55-43.52-46.28-39.83-73,3.8-27.5,28.3-52,58.26-58.19A67.67,67.67,0,0,1,208.41,3.54Z"/><path class="cls-7" d="M442.86-105.56c12.41,0,25,4.23,34.36,14.34,18.61,20.06,23.89,48.11,13.16,69.79C479.92-.22,454.35,15,432.16,13.15c-22.59-1.86-43.65-12.83-64-23.43-3.52-1.84-7-3.65-10.45-5.39-41.53-21-96.84-45.77-156.32-51.2-36.74-3.36-71.58,1.29-100.71,13.46C68.11-39.81,25.33-11,8.37,20a1.81,1.81,0,1,1-3.18-1.74c17.37-31.79,61-61.16,94.08-75,29.65-12.42,65.11-17.17,102.45-13.75C261.8-65,317.52-40,359.34-18.91c3.46,1.74,7,3.56,10.48,5.4,20.1,10.44,40.78,21.24,62.64,23,20.81,1.71,44.77-12.6,54.66-32.53s4.74-47-12.56-65.71c-15.46-16.67-40.48-16-57.21-6.63-17.57,9.8-24.9,27.11-19.6,46.33,3.58,13,14.61,23.54,27.44,26.3,13.15,2.78,27.73-4.29,32.51-15.83,3.2-7.74,1.76-16.91-3.49-22.29-6.88-7.07-17.26-5.31-23.31.47a1.83,1.83,0,0,1-2.57-.06,1.82,1.82,0,0,1,0-2.57c8.36-8,20.85-8.16,28.43-.38C463-57,464.76-46.2,461-37.16c-5.49,13.31-21.57,21.2-36.64,18-14.12-3-26.24-14.65-30.17-28.89-6.8-24.65,6.56-42.23,21.34-50.46A56.88,56.88,0,0,1,442.86-105.56Z"/><path class="cls-7" d="M35.61,128a1.81,1.81,0,0,1,1.6.95C53.8,159.73,98,191.31,131.15,205.4c29.06,12.35,63.86,17.21,100.64,14.08,59.51-5.07,115-29.52,156.63-50.25,3.45-1.71,6.93-3.5,10.46-5.31,20.44-10.49,41.56-21.33,64.16-23,22.2-1.68,47.65,13.66,58,34.94,10.6,21.74,5.14,49.76-13.58,69.71-16.84,17.94-43.77,17.07-61.68,7-14.73-8.32-28-26-21-50.59,4-14.22,16.21-25.76,30.35-28.71,15.05-3.14,31.12,4.84,36.53,18.18,3.67,9.07,1.86,19.84-4.41,26.19-7.63,7.73-20.11,7.49-28.43-.55a1.82,1.82,0,1,1,2.39-2.74.86.86,0,0,1,.14.13c6,5.81,16.37,7.64,23.31.61,5.29-5.35,6.78-14.51,3.63-22.27-4.69-11.57-19.26-18.74-32.42-16C443,179.45,431.94,190,428.28,202.9c-5.42,19.18,1.8,36.55,19.32,46.45,16.66,9.42,41.68,10.29,57.24-6.28,17.42-18.56,22.75-45.55,13-65.63s-33.72-34.51-54.46-32.91c-21.87,1.67-42.67,12.34-62.78,22.66-3.54,1.82-7,3.61-10.51,5.34-42,20.86-97.87,45.47-158,50.6-37.38,3.19-72.77-1.78-102.37-14.35C96,194.45,51,162.21,34,130.71a1.84,1.84,0,0,1,.74-2.47A1.93,1.93,0,0,1,35.61,128Z"/><path class="cls-7" d="M468.59,70.73a105.64,105.64,0,0,1,18.53,1.61c22.4,4,67.83,32,68.73,58.47a1.82,1.82,0,0,1-3.64.12c-.8-23.88-44-51.17-65.72-55-25.19-4.46-52.68.78-77.39,14.75-29.88,16.88-50,28.51-77,47.51-114.07,80.31-189.06,32.6-209.33,16.07-16.9-13.84-28.48-37.68-29.41-60.78A1.82,1.82,0,0,1,97,93.34c.89,22.1,11.91,44.89,28.08,58.08,19.76,16.13,93,62.62,204.94-16.23,27.12-19.09,47.28-30.76,77.25-47.7C426.82,76.47,448,70.73,468.59,70.73Z"/><path class="cls-7" d="M214.29-22.24a154,154,0,0,1,37.63,4.64,156,156,0,0,1,72.8,41.9,1.82,1.82,0,0,1-2.58,2.56A151.31,151.31,0,0,0,138.37,1.5C113.78,15.64,91.48,37.72,70.2,69a270,270,0,0,0-20.08,35.74c-18.07,37.74-43.45,59.72-71.46,61.9-23.41,1.82-46.23-10.89-62.69-34.85a1.82,1.82,0,0,1,.47-2.53,1.81,1.81,0,0,1,2.52.47h0c15.71,22.87,37.41,35,59.42,33.29,26.67-2.08,51-23.33,68.46-59.85A274.49,274.49,0,0,1,67.19,66.94C88.8,35.21,111.48,12.77,136.56-1.65A156.39,156.39,0,0,1,214.29-22.24Z"/></g></g></svg>