<svg id="Capa_1" data-name="Capa 1" xmlns="http://www.w3.org/2000/svg" xmlns:xlink="http://www.w3.org/1999/xlink" viewBox="0 0 1086 175"><defs><style>.cls-1{fill:none;}.cls-2{fill:#1e1e1c;}.cls-3{opacity:0.5;}.cls-4{clip-path:url(#clip-path);}.cls-5{fill:url(#Degradado_sin_nombre_354);}.cls-6{fill:url(#Degradado_sin_nombre_354-2);}.cls-7{fill:url(#Degradado_sin_nombre_354-3);}</style><clipPath id="clip-path"><rect id="SVGID" class="cls-1" x="1.41" y="2.04" width="1047.31" height="172.96"/></clipPath><linearGradient id="Degradado_sin_nombre_354" x1="-435.93" y1="17.97" x2="662.13" y2="17.97" gradientTransform="translate(423.16 -888.16)" gradientUnits="userSpaceOnUse"><stop offset="0.01" stop-color="#9e9e9e"/><stop offset="0.25" stop-color="#e9e8e8"/><stop offset="0.34" stop-color="#d8d7d7"/><stop offset="0.51" stop-color="#ababab"/><stop offset="0.6" stop-color="#939393"/><stop offset="0.87" stop-color="#e3e2e2"/><stop offset="1" stop-color="#a8a6a6"/></linearGradient><linearGradient id="Degradado_sin_nombre_354-2" x1="-408.52" y1="543.25" x2="736.71" y2="543.25" xlink:href="#Degradado_sin_nombre_354"/><linearGradient id="Degradado_sin_nombre_354-3" x1="-512" y1="548.26" x2="618.66" y2="548.26" xlink:href="#Degradado_sin_nombre_354"/></defs><rect class="cls-2" width="1086" height="175"/><g class="cls-3"><g class="cls-4"><path class="cls-5" d="M715.62,662.93l-27-23.78A1108.46,1108.46,0,0,1,536.13,470a1106.29,1106.29,0,0,1-152,168.53l-1.18,1-26.76,21.48L321,621l26.15-21a1055,1055,0,0,0,156.43-177C410,280,351,117.66,335.32-47c-21.85-229.12,38.83-459.85,167.9-647.62q-19.08-25.56-40-49.83c-46.51-54-101-104.41-153.6-153.17-89.84-83.22-182.74-169.26-242.84-278.09C-27-1345.58-21-1535.2.51-1664.36,27.69-1827.37,91-1982,152.12-2131.59c46.63-114,105.94-184.78,198.29-236.62,3.79-1.93,66.81-32.77,191.71-35,110.38-2,186.66,33,189.86,34.45l1.87,1c107.59,60.39,149.63,146.38,186.54,236.61C981.56-1981.66,1044.82-1827,1072-1664c21.53,129.15,27.52,318.77-66.31,488.68-60.1,108.81-153,194.86-242.83,278.07C710.21-848.46,655.77-798,609.25-744Q588.5-720,569.56-694.57C698.44-506.88,759-276.3,737.19-47.34,721.48,117.45,662.37,280,568.72,423A1055.39,1055.39,0,0,0,726,600.84l26.75,23.57ZM536.38-647C422.72-472.6,369.86-261.49,389.85-51.72,404,96.58,455.14,243,536.14,373.58,617.28,242.87,668.51,96.35,682.66-52.1,702.65-261.72,649.88-472.67,536.38-647ZM377.3-2322.58c-80.41,45.36-132.54,108.25-174.17,210.06-60.12,147-122.29,299-148.55,456.41-20.22,121.28-26.11,298.84,60.66,456,56,101.46,141.76,180.86,232.52,264.93C401.49-885.44,457.05-834,505.52-777.73Q521.45-759.22,536.4-740q14.79-19,30.59-37.38c48.47-56.26,104-107.73,157.78-157.5,90.75-84.06,176.47-163.46,232.49-264.91,86.78-157.14,80.89-334.69,60.66-456-26.25-157.44-88.42-309.42-148.54-456.4-40.75-99.65-78.74-162.73-162.15-209.91-7.83-3.4-73.49-30.59-164.08-28.82C438.06-2349,383-2325.15,377.3-2322.58Z"/><path class="cls-6" d="M32.54,1671.25c-12.45-52.39-18.45-111.1-17.86-174.5,2.76-296.35,235.16-421.83,373.45-470.25,86.64-30.33,178.68-34.9,267.69-39.32,51-2.53,103.73-5.15,153.95-12.69,39.14-5.87,95.27-17.66,130.63-52.13,21.67-21.11,37.33-52.58,46.54-93.56,10.71-47.64,10.93-96.14.62-140.27C969.44,611,918.3,530.82,871.79,461.78c-36.4-54-87.28-102.67-136.5-149.74-18.24-17.45-37.11-35.49-54.88-53.47C560.63,137.34,460,36.13,346.3-70.52c-72-67.59-132.85-143.42-181.14-225.27-36.63,122-61.74,233.87-65.66,316.32C84.94,326,179.56,532.8,380.71,635.15c40.5,20.6,108.66,32.36,169.37,41.77l-8.76,51.7c-68-10.54-138.44-22.87-186.33-47.24C136.67,570.31,29.42,341,44.79,18.14c4.87-102.29,38.09-239,83.83-381.89a942.51,942.51,0,0,1-71.46-202C8-780,23.91-1021.41,103.23-1263.78c64.93-198.35,169-396.89,327.35-624.84,57.14-82.2,156.29-193.33,225.74-253,124.15-106.67,250.93-144.15,397.72-187.56,21.73-6.42,44-13,66.83-20l39-11.92-3.38,39c-12.46,144.08-38.34,328.31-128.58,475.25-66,107.51-150.68,222.23-240.32,343.68C661.65-1332.49,531.43-1156,442.23-984.41,362.85-831.64,259.94-589.56,187.57-367.3c49.08,95.17,115.48,182.84,197.07,259.4C499-.61,600,101,720.21,222.6,737.44,240,755.2,257,774,275c51.25,49,104.24,99.68,143.81,158.41,49.07,72.83,103.09,157.74,123.17,243.7,12,51.45,11.85,107.71-.52,162.69-11.58,51.54-31.53,90.54-61,119.23-46.73,45.56-114.39,60.17-161.23,67.19-53,8-107.2,10.65-159.6,13.25-88.87,4.41-172.81,8.58-251.7,36.19-125,43.78-335,156.74-337.51,421.55-.38,40.8,2.17,102.1,16.49,162.44ZM1098.28-2287.46q-14.17,4.22-28.06,8.31c-146.43,43.3-262.09,77.5-377.31,176.49-66.55,57.18-161.75,163.93-216.73,243-155.46,223.7-257.36,418-320.69,611.49-76.48,233.68-92,465.78-44.84,671.21A885.74,885.74,0,0,0,154-440.09c75.81-220,174.27-442.71,239.19-567.62,91.07-175.26,222.52-353.37,349.65-525.62,88.95-120.53,173-234.38,237.84-340C1057.58-1998.54,1084.94-2155.84,1098.28-2287.46Z"/><path class="cls-7" d="M34.18,1678.57c-3.17-16-77.6-394-65.69-529.88,6.39-73,34.49-164,68.32-221.28A370.59,370.59,0,0,1,66.29,884.8c-1-8.47-2.06-17.18-3.14-26.07C53.64,781.07,42.87,693,59.42,620.36c31.26-137.2,147.65-252.43,250.34-354.11,14.08-13.94,27.86-27.59,41.06-40.94C471,103.72,572,2.17,686.38-105.2c81.59-76.55,148-164.22,197.07-259.4C811.09-586.86,708.18-828.94,628.79-981.7c-89.2-171.65-219.42-348.09-345.35-518.72-89.64-121.46-174.3-236.17-240.33-343.68C-47.13-1991-73-2175.28-85.47-2319.36l-3.37-39,39,11.91c22.84,7,45.1,13.56,66.82,20,146.8,43.41,273.58,80.9,397.73,187.57,69.45,59.66,168.61,170.79,225.74,253C798.85-1658,902.87-1459.42,967.79-1261.08c79.33,242.37,95.26,483.76,46.07,698.08a941.94,941.94,0,0,1-71.45,202c45.74,142.88,79,279.6,83.82,381.9C1041.61,343.67,934.35,573,716,684.08c-59.35,30.2-145.72,42.69-229.27,54.78-59.87,8.65-116.43,16.84-157.92,30.64-104.34,34.7-198,105.07-244.35,183.65-29.89,50.64-55.73,134.72-61.44,199.91C11.76,1281.91,87.22,1665,88,1668.83ZM905.87-293.08C857.58-211.24,796.76-135.4,724.73-67.82,611,38.91,510.35,140.09,390.62,261.27c-13.33,13.49-27.25,27.28-41.48,41.37C251.52,399.3,140.87,508.85,112.93,631.51c-13.33,58.49-6,133,2.21,201.49,53.56-48.57,121.55-88.3,195.73-113,46.27-15.39,105.26-23.92,167.71-32.95,79-11.43,160.67-23.24,211.73-49.23C891.47,535.51,986.08,328.72,971.53,23.23,967.61-59.21,942.5-171.14,905.87-293.08ZM-27.25-2284.75c13.34,131.62,40.69,288.92,117.58,414.12,64.87,105.63,148.88,219.47,237.84,340C455.3-1358.38,586.75-1180.26,677.83-1005,742.74-880.09,841.2-657.39,917-437.39a887,887,0,0,0,43.35-136.83c47.15-205.43,31.65-437.53-44.84-671.21-63.32-193.48-165.23-387.79-320.69-611.49-55-79.11-150.18-185.86-216.73-243-115.22-99-230.88-133.18-377.32-176.48Q-13.08-2280.55-27.25-2284.75Z"/></g></g></svg>