<svg id="Capa_1" data-name="Capa 1" xmlns="http://www.w3.org/2000/svg" viewBox="0 0 539.5 467.64"><defs><style>.cls-1{fill:#5c3327;}.cls-2{opacity:0.6;}.cls-3{fill:#fcd199;}.cls-4{fill:#b12028;}</style></defs><rect class="cls-1" width="539.5" height="467.64"/><g class="cls-2"><rect class="cls-3" x="99.48" y="66.14" width="63.72" height="63.72" transform="translate(152.27 260.54) rotate(-134.07)"/><rect class="cls-3" x="377.28" y="66.14" width="63.72" height="63.72" transform="translate(623.28 460.14) rotate(-134.07)"/><rect class="cls-3" x="98.5" y="337.77" width="63.72" height="63.72" transform="translate(-44.55 720.39) rotate(-134.07)"/><rect class="cls-3" x="377.28" y="337.77" width="63.72" height="63.72" transform="translate(428.12 920.69) rotate(-134.07)"/><rect class="cls-4" x="156.1" y="271.11" width="227.55" height="30.64" transform="translate(-0.65 0.61) rotate(-0.13)"/><rect class="cls-4" x="155.88" y="174.89" width="227.55" height="30.64" transform="translate(-0.43 0.61) rotate(-0.13)"/><rect class="cls-4" x="335.75" y="205.29" width="78.99" height="65.58" transform="translate(-0.54 0.85) rotate(-0.13)"/><rect class="cls-4" x="124.11" y="205.77" width="78.99" height="65.58" transform="matrix(1, 0, 0, 1, -0.54, 0.37)"/><rect class="cls-4" x="207.11" y="216.94" width="123.97" height="41.82" transform="translate(31.85 507.47) rotate(-90.13)"/><rect class="cls-4" x="180.65" y="300.52" width="88.51" height="41.82" transform="translate(-96.02 547.05) rotate(-90.13)"/><rect class="cls-4" x="180.28" y="136.43" width="88.51" height="41.82" transform="translate(67.7 382.22) rotate(-90.13)"/><rect class="cls-4" x="268.83" y="300.32" width="88.51" height="41.82" transform="translate(-7.43 635.04) rotate(-90.13)"/><rect class="cls-4" x="268.46" y="136.23" width="88.51" height="41.82" transform="matrix(0, -1, 1, 0, 156.29, 470.21)"/><rect class="cls-4" x="306.62" y="220.96" width="104.8" height="47.75" transform="translate(115.01 604.4) rotate(-90.13)"/><rect class="cls-4" x="127.44" y="221.97" width="104.8" height="46.53" transform="translate(-64.98 425.63) rotate(-90.13)"/></g></svg>