<svg id="Capa_1" data-name="Capa 1" xmlns="http://www.w3.org/2000/svg" xmlns:xlink="http://www.w3.org/1999/xlink" viewBox="0 0 1086 175"><defs><style>.cls-1{fill:none;}.cls-2{fill:#b68150;}.cls-3{opacity:0.6;}.cls-4{clip-path:url(#clip-path);}.cls-5{fill:#a23329;}.cls-6{fill:#f1bc7c;}</style><clipPath id="clip-path"><rect id="SVGID" class="cls-1" x="0.75" y="-0.25" width="1084.5" height="175.5"/></clipPath></defs><rect class="cls-2" width="1086" height="175"/><g class="cls-3"><g class="cls-4"><rect class="cls-5" x="45.83" y="-27.7" width="30.7" height="227.97" transform="translate(-0.34 0.24) rotate(-0.22)"/><rect class="cls-5" x="142.23" y="-28.07" width="30.7" height="227.97" transform="translate(-0.33 0.61) rotate(-0.22)"/><rect class="cls-5" x="76.94" y="152.9" width="65.7" height="79.13" transform="translate(-0.75 0.43) rotate(-0.22)"/><rect class="cls-5" x="77.06" y="-43.1" width="65.7" height="62.4" transform="translate(0.05 0.43) rotate(-0.22)"/><rect class="cls-5" x="47.76" y="65.83" width="124.19" height="41.9" transform="translate(-0.34 0.43) rotate(-0.22)"/><rect class="cls-5" x="-27.22" y="110.61" width="88.67" height="41.9" transform="translate(-0.51 0.07) rotate(-0.22)"/><rect class="cls-5" x="146.45" y="109.97" width="88.67" height="41.9" transform="translate(-0.51 0.74) rotate(-0.22)"/><rect class="cls-5" x="-27.56" y="22.27" width="88.67" height="41.9" transform="translate(-0.17 0.07) rotate(-0.22)"/><rect class="cls-5" x="146.11" y="21.63" width="88.67" height="41.9" transform="translate(-0.16 0.74) rotate(-0.22)"/><rect class="cls-5" x="49.31" y="-27.85" width="104.99" height="48.53" transform="translate(0.01 0.4) rotate(-0.22)"/><rect class="cls-5" x="50.51" y="152.92" width="104.99" height="46.62" transform="translate(-0.69 0.4) rotate(-0.22)"/><rect class="cls-6" x="277.09" y="115.6" width="227.97" height="30.7" transform="translate(-0.33 1) rotate(-0.15)"/><rect class="cls-6" x="276.84" y="19.21" width="227.97" height="30.7" transform="translate(-0.09 1) rotate(-0.15)"/><rect class="cls-6" x="457.06" y="49.63" width="79.13" height="65.7" transform="translate(-0.21 1.27) rotate(-0.15)"/><rect class="cls-6" x="245.03" y="50.18" width="79.13" height="65.7" transform="translate(-0.21 0.73) rotate(-0.15)"/><rect class="cls-6" x="328.18" y="61.33" width="124.19" height="41.9" transform="translate(308.99 472.76) rotate(-90.15)"/><rect class="cls-6" x="301.39" y="145.38" width="89.28" height="41.9" transform="translate(180.58 512.78) rotate(-90.15)"/><rect class="cls-6" x="301.27" y="-19.31" width="88.67" height="41.9" transform="translate(344.86 347.25) rotate(-90.15)"/><rect class="cls-6" x="389.74" y="145.16" width="89.28" height="41.9" transform="translate(269.38 600.9) rotate(-90.15)"/><rect class="cls-6" x="389.62" y="-19.54" width="88.67" height="41.9" transform="translate(433.66 435.37) rotate(-90.15)"/><rect class="cls-6" x="427.87" y="65.33" width="104.99" height="47.83" transform="translate(392.35 569.85) rotate(-90.15)"/><rect class="cls-6" x="248.37" y="66.4" width="104.99" height="46.62" transform="translate(211.93 390.8) rotate(-90.15)"/><rect class="cls-5" x="616.35" y="-27.7" width="30.7" height="227.97" transform="translate(-0.33 2.46) rotate(-0.22)"/><rect class="cls-5" x="712.75" y="-28.07" width="30.7" height="227.97" transform="translate(-0.33 2.84) rotate(-0.22)"/><rect class="cls-5" x="647.47" y="152.9" width="65.7" height="79.13" transform="translate(-0.74 2.65) rotate(-0.22)"/><rect class="cls-5" x="647.58" y="-43.1" width="65.7" height="62.4" transform="translate(0.05 2.65) rotate(-0.22)"/><rect class="cls-5" x="618.28" y="65.83" width="124.19" height="41.9" transform="translate(-0.33 2.65) rotate(-0.22)"/><rect class="cls-5" x="543.31" y="110.61" width="88.67" height="41.9" transform="translate(-0.51 2.29) rotate(-0.22)"/><rect class="cls-5" x="716.97" y="109.97" width="88.67" height="41.9" transform="translate(-0.5 2.97) rotate(-0.22)"/><rect class="cls-5" x="542.96" y="22.27" width="88.67" height="41.9" transform="translate(-0.16 2.29) rotate(-0.22)"/><rect class="cls-5" x="716.63" y="21.63" width="88.67" height="41.9" transform="translate(-0.16 2.97) rotate(-0.22)"/><rect class="cls-5" x="619.83" y="-27.85" width="104.99" height="48.53" transform="translate(0.02 2.62) rotate(-0.22)"/><rect class="cls-5" x="621.03" y="152.92" width="104.99" height="46.62" transform="translate(-0.68 2.63) rotate(-0.22)"/><rect class="cls-6" x="847.61" y="115.6" width="227.97" height="30.7" transform="translate(-0.33 2.46) rotate(-0.15)"/><rect class="cls-6" x="847.37" y="19.21" width="227.97" height="30.7" transform="translate(-0.09 2.46) rotate(-0.15)"/><rect class="cls-6" x="1027.58" y="49.63" width="79.13" height="65.7" transform="translate(-0.21 2.74) rotate(-0.15)"/><rect class="cls-6" x="815.55" y="50.18" width="79.13" height="65.7" transform="translate(-0.21 2.19) rotate(-0.15)"/><rect class="cls-6" x="898.7" y="61.33" width="124.19" height="41.9" transform="translate(880.98 1043.29) rotate(-90.15)"/><rect class="cls-6" x="871.92" y="145.38" width="89.28" height="41.9" transform="translate(752.56 1083.3) rotate(-90.15)"/><rect class="cls-6" x="871.8" y="-19.31" width="88.67" height="41.9" transform="translate(916.84 917.77) rotate(-90.15)"/><rect class="cls-6" x="960.26" y="145.16" width="89.28" height="41.9" transform="translate(841.36 1171.42) rotate(-90.15)"/><rect class="cls-6" x="960.14" y="-19.54" width="88.67" height="41.9" transform="translate(1005.64 1005.89) rotate(-90.15)"/><rect class="cls-6" x="998.4" y="65.33" width="104.99" height="47.83" transform="translate(964.34 1140.37) rotate(-90.15)"/><rect class="cls-6" x="818.89" y="66.4" width="104.99" height="46.62" transform="translate(783.91 961.33) rotate(-90.15)"/></g></g></svg>