<svg id="Capa_1" data-name="Capa 1" xmlns="http://www.w3.org/2000/svg" viewBox="0 0 841 684"><defs><style>.cls-1{fill:#5c3327;}.cls-2{opacity:0.6;}.cls-3{fill:#fcd199;}.cls-4{fill:#b12028;}</style></defs><rect class="cls-1" width="841" height="684"/><g class="cls-2"><rect class="cls-3" x="241.49" y="174.46" width="63.72" height="63.72" transform="translate(315.23 546.23) rotate(-134.07)"/><rect class="cls-3" x="519.29" y="174.46" width="63.72" height="63.72" transform="translate(786.24 745.83) rotate(-134.07)"/><rect class="cls-3" x="240.51" y="446.09" width="63.72" height="63.72" transform="translate(118.4 1006.08) rotate(-134.07)"/><rect class="cls-3" x="519.29" y="446.09" width="63.72" height="63.72" transform="translate(591.07 1206.38) rotate(-134.07)"/><rect class="cls-4" x="298.11" y="379.43" width="227.55" height="30.64" transform="translate(-0.89 0.93) rotate(-0.13)"/><rect class="cls-4" x="297.89" y="283.21" width="227.55" height="30.64" transform="translate(-0.67 0.93) rotate(-0.13)"/><rect class="cls-4" x="477.77" y="313.61" width="78.99" height="65.58" transform="translate(-0.78 1.17) rotate(-0.13)"/><rect class="cls-4" x="266.12" y="314.09" width="78.99" height="65.58" transform="matrix(1, 0, 0, 1, -0.78, 0.69)"/><rect class="cls-4" x="349.12" y="325.25" width="123.97" height="41.82" transform="translate(65.87 758.05) rotate(-90.13)"/><rect class="cls-4" x="322.66" y="408.83" width="88.51" height="41.82" transform="translate(-62 797.63) rotate(-90.13)"/><rect class="cls-4" x="322.29" y="244.74" width="88.51" height="41.82" transform="translate(101.72 632.8) rotate(-90.13)"/><rect class="cls-4" x="410.85" y="408.64" width="88.51" height="41.82" transform="translate(26.58 885.62) rotate(-90.13)"/><rect class="cls-4" x="410.47" y="244.55" width="88.51" height="41.82" transform="matrix(0, -1, 1, 0, 190.3, 720.78)"/><rect class="cls-4" x="448.63" y="329.27" width="104.8" height="47.75" transform="translate(149.02 854.98) rotate(-90.13)"/><rect class="cls-4" x="269.45" y="330.29" width="104.8" height="46.53" transform="translate(-30.97 676.21) rotate(-90.13)"/></g></svg>