<svg id="Capa_1" data-name="Capa 1" xmlns="http://www.w3.org/2000/svg" xmlns:xlink="http://www.w3.org/1999/xlink" viewBox="0 0 538.47 621.22"><defs><style>.cls-1{fill:none;}.cls-2{fill:#b68150;}.cls-3{opacity:0.6;}.cls-4{clip-path:url(#clip-path);}.cls-5{fill:#fcd199;}.cls-6{fill:#a23329;}.cls-7{fill:#f1bc7c;}</style><clipPath id="clip-path"><rect id="SVGID" class="cls-1" x="-44.73" y="41.37" width="621.22" height="538.47" transform="translate(576.48 44.73) rotate(90)"/></clipPath></defs><rect class="cls-2" x="-41.37" y="40.79" width="621.22" height="538.47" transform="translate(579.26 40.79) rotate(90)"/><g class="cls-3"><g class="cls-4"><rect class="cls-5" x="240.95" y="275.31" width="62.53" height="62.53" transform="translate(247.78 715.83) rotate(-134.98)"/><rect class="cls-6" x="293.06" y="80.89" width="239.84" height="32.3" transform="translate(-0.37 1.61) rotate(-0.22)"/><rect class="cls-6" x="293.46" y="182.31" width="239.84" height="32.3" transform="translate(-0.77 1.61) rotate(-0.22)"/><rect class="cls-6" x="259.65" y="113.63" width="83.25" height="69.12" transform="translate(-0.58 1.17) rotate(-0.22)"/><rect class="cls-6" x="483.46" y="113.74" width="65.65" height="69.12" transform="translate(-0.57 2.01) rotate(-0.22)"/><rect class="cls-6" x="347.14" y="126.21" width="130.66" height="44.08" transform="translate(559.11 -264.79) rotate(89.78)"/><rect class="cls-6" x="318.71" y="28.65" width="93.29" height="44.08" transform="translate(414.62 -314.86) rotate(89.78)"/><rect class="cls-6" x="319.38" y="211.36" width="93.29" height="44.08" transform="translate(598 -133.54) rotate(89.78)"/><rect class="cls-6" x="411.66" y="28.28" width="93.29" height="44.08" transform="translate(506.84 -408.17) rotate(89.78)"/><rect class="cls-6" x="412.33" y="211" width="93.29" height="44.08" transform="translate(690.22 -226.85) rotate(89.78)"/><rect class="cls-6" x="452.3" y="114.26" width="110.46" height="51.05" transform="translate(645.34 -368.29) rotate(89.78)"/><rect class="cls-6" x="263.13" y="116.52" width="110.46" height="49.05" transform="translate(458.16 -177.86) rotate(89.78)"/><rect class="cls-7" x="349.85" y="358.36" width="32.3" height="239.84" transform="translate(-1.22 0.94) rotate(-0.15)"/><rect class="cls-7" x="451.26" y="358.1" width="32.3" height="239.84" transform="translate(-1.22 1.2) rotate(-0.15)"/><rect class="cls-7" x="382.43" y="547.7" width="69.12" height="83.25" transform="translate(-1.51 1.07) rotate(-0.15)"/><rect class="cls-7" x="381.86" y="324.62" width="69.12" height="83.25" transform="translate(-0.94 1.07) rotate(-0.15)"/><rect class="cls-7" x="351.87" y="455.4" width="130.66" height="44.08" transform="translate(-1.22 1.07) rotate(-0.15)"/><rect class="cls-7" x="281.81" y="408.85" width="93.93" height="44.08" transform="translate(-1.1 0.84) rotate(-0.15)"/><rect class="cls-7" x="455.4" y="408.4" width="93.29" height="44.08" transform="translate(-1.1 1.29) rotate(-0.15)"/><rect class="cls-7" x="282.05" y="501.8" width="93.93" height="44.08" transform="translate(-1.33 0.84) rotate(-0.15)"/><rect class="cls-7" x="455.64" y="501.35" width="93.29" height="44.08" transform="translate(-1.34 1.29) rotate(-0.15)"/><rect class="cls-7" x="354.64" y="547.06" width="110.46" height="50.32" transform="translate(-1.47 1.05) rotate(-0.15)"/><rect class="cls-7" x="354.15" y="358.85" width="110.46" height="49.05" transform="translate(-0.98 1.05) rotate(-0.15)"/><rect class="cls-6" x="121.93" y="407.5" width="32.3" height="239.84" transform="translate(-389.88 663.45) rotate(-89.78)"/><rect class="cls-6" x="122.32" y="306.09" width="32.3" height="239.84" transform="translate(-288.07 562.82) rotate(-89.78)"/><rect class="cls-6" x="-8.18" y="434.65" width="69.12" height="83.25" transform="translate(-450 500.8) rotate(-89.78)"/><rect class="cls-6" x="206.82" y="443.34" width="69.12" height="65.65" transform="translate(-235.72 715.68) rotate(-89.78)"/><rect class="cls-6" x="72.23" y="454.17" width="130.66" height="44.08" transform="translate(-339.18 611.92) rotate(-89.78)"/><rect class="cls-6" x="43.8" y="551.74" width="93.29" height="44.08" transform="translate(-483.68 661.99) rotate(-89.78)"/><rect class="cls-6" x="44.48" y="369.03" width="93.29" height="44.08" transform="translate(-300.3 480.67) rotate(-89.78)"/><rect class="cls-6" x="136.75" y="552.1" width="93.29" height="44.08" transform="translate(-391.46 755.3) rotate(-89.78)"/><rect class="cls-6" x="137.43" y="369.39" width="93.29" height="44.08" transform="translate(-208.07 573.97) rotate(-89.78)"/><rect class="cls-6" x="177.4" y="459.16" width="110.46" height="51.05" transform="translate(-252.95 715.42) rotate(-89.78)"/><rect class="cls-6" x="-11.78" y="458.9" width="110.46" height="49.05" transform="translate(-440.14 524.99) rotate(-89.78)"/><rect class="cls-7" x="-49.16" y="130.04" width="239.84" height="32.3" transform="translate(-75.61 216.57) rotate(-89.85)"/><rect class="cls-7" x="52.25" y="130.3" width="239.84" height="32.3" transform="translate(25.28 318.24) rotate(-89.85)"/><rect class="cls-7" x="80.12" y="0.58" width="83.25" height="69.12" transform="translate(86.3 156.8) rotate(-89.85)"/><rect class="cls-7" x="79.55" y="223.66" width="83.25" height="69.12" transform="translate(-137.35 378.73) rotate(-89.85)"/><rect class="cls-7" x="56.63" y="124.99" width="130.66" height="44.08" transform="translate(0.38 -0.31) rotate(0.15)"/><rect class="cls-7" x="-13.43" y="171.54" width="93.93" height="44.08" transform="translate(0.49 -0.08) rotate(0.15)"/><rect class="cls-7" x="160.16" y="171.98" width="93.29" height="44.08" transform="translate(0.5 -0.53) rotate(0.15)"/><rect class="cls-7" x="-13.19" y="78.59" width="93.93" height="44.08" transform="translate(0.26 -0.09) rotate(0.15)"/><rect class="cls-7" x="160.4" y="79.03" width="93.29" height="44.08" transform="translate(0.26 -0.53) rotate(0.15)"/><rect class="cls-7" x="59.4" y="27.08" width="110.46" height="50.32" transform="translate(0.13 -0.29) rotate(0.15)"/><rect class="cls-7" x="58.91" y="216.57" width="110.46" height="49.05" transform="translate(0.62 -0.29) rotate(0.15)"/></g></g></svg>